<?xml version="1.0" encoding="UTF-8"?>
<svg version="1.1" xmlns="http://www.w3.org/2000/svg" width="2000" height="2000">
<path d="M0 0 C660 0 1320 0 2000 0 C2000 660 2000 1320 2000 2000 C1340 2000 680 2000 0 2000 C0 1340 0 680 0 0 Z " fill="#FEFEFE" transform="translate(0,0)"/>
<path d="M0 0 C1.23150787 0.00215515 2.46301575 0.0043103 3.73184204 0.00653076 C21.78661611 0.05715969 39.44167406 0.55570141 57.3125 3.3125 C58.79119742 3.53027502 60.27004851 3.74700831 61.74902344 3.96289062 C112.65434844 11.43859389 176.27418312 25.5144763 208.96044922 69.30932617 C218.37175862 82.60671053 222.67420586 95.91195443 221.3125 112.3125 C220.41207928 115.57804285 219.73882893 116.99662617 216.98779297 119.03491211 C216.01986816 119.54803955 215.05194336 120.06116699 214.0546875 120.58984375 C212.96631592 121.17854248 211.87794434 121.76724121 210.7565918 122.3737793 C209.88494888 122.83196548 209.88494888 122.83196548 208.99569702 123.29940796 C206.53349164 124.59382046 204.08910801 125.92029907 201.64353943 127.24580383 C200.38329676 127.92877122 199.12218888 128.61014436 197.86024475 129.28996277 C191.82209318 132.55046225 185.90612498 136.00664187 180 139.5 C171.6205542 144.43373737 163.15572961 149.16376227 154.59594727 153.77636719 C147.79110544 157.46097869 141.10384833 161.32112453 134.4375 165.25 C125.42924927 170.55566066 116.31595032 175.61561208 107.10424805 180.55834961 C97.9652352 185.47108255 88.96700896 190.61011664 79.97509766 195.78564453 C75.30806875 198.4619327 70.62262027 201.10555031 65.9375 203.75 C64.98093506 204.29011719 64.02437012 204.83023437 63.03881836 205.38671875 C61.09920374 206.48175448 59.15950627 207.57664346 57.21972656 208.67138672 C52.41613023 211.38299023 47.61439603 214.097887 42.8125 216.8125 C36.87533215 220.16855688 30.93794418 223.5242231 25 226.87890625 C23.96423828 227.46414063 22.92847656 228.049375 21.86132812 228.65234375 C19.88614523 229.76836637 17.91088944 230.88426001 15.93554688 232 C15.03900391 232.50660156 14.14246094 233.01320313 13.21875 233.53515625 C12.373125 234.00711426 11.5275 234.47907227 10.65625 234.96533203 C9.17431798 235.81713421 7.71203551 236.70496706 6.28125 237.64013672 C4.46875 238.80859375 4.46875 238.80859375 1.3125 240.3125 C-2.45450809 239.15935023 -5.80355066 237.23569515 -9.23828125 235.328125 C-10.31698486 234.7297583 -11.39568848 234.1313916 -12.50708008 233.51489258 C-13.67150281 232.86430279 -14.83580646 232.21349982 -16 231.5625 C-16.89312393 231.06512833 -16.89312393 231.06512833 -17.80429077 230.55770874 C-27.26846429 225.28676107 -36.63904879 219.86777973 -45.97583008 214.37402344 C-53.36814276 210.04007135 -60.85692881 205.91585131 -68.3996582 201.85083008 C-75.24639374 198.14317834 -81.97790911 194.26223587 -88.6875 190.3125 C-97.24514928 185.27615702 -105.88028179 180.42647396 -114.6159668 175.70654297 C-121.66558623 171.89097837 -128.63365134 167.9477687 -135.58276367 163.95263672 C-142.42381456 160.02328067 -149.299189 156.15833773 -156.1875 152.3125 C-164.72060739 147.54665836 -173.22535513 142.73565242 -181.70141602 137.86914062 C-189.87429637 133.18507567 -198.10014001 128.59662656 -206.33984375 124.03125 C-208.29599439 122.94225892 -210.24629046 121.84265193 -212.18920898 120.73022461 C-213.679071 119.88476104 -215.18493096 119.06530891 -216.71899414 118.30297852 C-218.375 117.41015625 -218.375 117.41015625 -220.6875 115.3125 C-221.24462148 112.31285723 -221.40874342 110.22179417 -221.25 107.25 C-221.22558838 106.48776123 -221.20117676 105.72552246 -221.17602539 104.94018555 C-220.44842796 89.05906945 -213.26810347 74.97829357 -202.6875 63.3125 C-201.98367188 62.51585937 -201.27984375 61.71921875 -200.5546875 60.8984375 C-189.1428298 48.71289453 -174.41186929 39.93430351 -159.6875 32.3125 C-158.54667969 31.72082031 -157.40585937 31.12914062 -156.23046875 30.51953125 C-127.81449294 16.58262729 -96.78669864 9.1967286 -65.6875 4.3125 C-64.66591797 4.14443848 -63.64433594 3.97637695 -62.59179688 3.80322266 C-41.82773587 0.57569716 -20.97999599 -0.06646607 0 0 Z " fill="#182B5C" transform="translate(999.6875,874.6875)"/>
<path d="M0 0 C3.7878387 1.3559849 7.45666732 2.9599739 11.140625 4.57421875 C12.7820195 5.28133247 12.7820195 5.28133247 14.45657349 6.00273132 C17.43630474 7.28824578 20.41267865 8.58117848 23.38774872 9.87743378 C26.52873554 11.24374098 29.67398395 12.6001658 32.81884766 13.95751953 C38.00994158 16.19937202 43.1987056 18.44653062 48.38574219 20.69775391 C55.44293816 23.76037673 62.50547793 26.81050418 69.5703125 29.85546875 C70.64165939 30.31726028 71.71300629 30.77905182 72.81681824 31.25483704 C74.94670395 32.17288023 77.07660189 33.09089507 79.20651245 34.00888062 C82.39206217 35.38235649 85.57710302 36.75700538 88.76196289 38.13208008 C101.72955977 43.73081702 114.70371317 49.31391104 127.6875 54.875 C128.51717285 55.23036835 129.3468457 55.58573669 130.20166016 55.95187378 C135.48250166 58.21355297 140.76371188 60.47437042 146.04498291 62.73504639 C156.32226507 67.13444064 166.59894419 71.53524201 176.875 75.9375 C178.0736972 76.45101013 179.27239441 76.96452026 180.50741577 77.49359131 C196.88992114 84.51275345 213.26105107 91.55756964 229.61935425 98.63293457 C247.93134717 106.55234622 266.27032555 114.40838574 284.61230469 122.25805664 C295.2990546 126.83295596 305.98213714 131.41544711 316.64453125 136.046875 C317.52366684 136.42850296 318.40280243 136.81013092 319.30857849 137.20332336 C323.32148156 138.94590446 327.33281466 140.69195082 331.34155273 142.4440918 C332.722454 143.04484988 334.10339221 143.64552308 335.484375 144.24609375 C336.65709961 144.75841553 337.82982422 145.2707373 339.03808594 145.79858398 C343.56536182 147.79517641 343.56536182 147.79517641 348.3046875 147.32783508 C349.57699219 146.76590706 349.57699219 146.76590706 350.875 146.19262695 C351.84542236 145.77080643 352.81584473 145.3489859 353.81567383 144.91438293 C354.86650146 144.44376938 355.9173291 143.97315582 357 143.48828125 C358.10432373 143.00481735 359.20864746 142.52135345 360.34643555 142.02323914 C363.90246037 140.46373378 367.45130335 138.88859981 371 137.3125 C373.29770138 136.30035169 375.59587431 135.28927315 377.89453125 134.27929688 C381.37648497 132.74913457 384.85806746 131.21818293 388.33795166 129.68331909 C400.05157784 124.5201515 411.81735905 119.48160568 423.59057617 114.45614624 C429.06791425 112.11680515 434.54163125 109.7690283 440.015625 107.421875 C442.18512257 106.4920655 444.35463771 105.56229702 446.52416992 104.63256836 C450.57202269 102.89778496 454.61981309 101.1628562 458.66752529 99.42774487 C461.77962853 98.09370158 464.89176025 96.75972477 468.00390625 95.42578125 C468.93617507 95.02618541 468.93617507 95.02618541 469.8872776 94.61851692 C477.82499536 91.21632791 485.76380588 87.8167076 493.70385742 84.41996765 C518.80142609 73.68323528 543.87674573 62.89901954 568.90826416 52.00912476 C587.99797876 43.70695512 607.13557527 35.52100167 626.29956055 27.3918457 C637.19818122 22.76612536 648.0811626 18.10936113 658.9296875 13.3671875 C659.95491013 12.92004395 660.98013275 12.47290039 662.03642273 12.01220703 C666.85830732 9.90913654 671.67663631 7.79869335 676.48852539 5.67285156 C678.18879425 4.92994798 679.88922416 4.18741284 681.58984375 3.4453125 C682.34453949 3.10797089 683.09923523 2.77062927 683.87680054 2.42306519 C688.23932701 0.53205606 692.19061247 -0.71270445 697 -1 C699.5 0.5625 699.5 0.5625 701 3 C701.125 6 701.125 6 700 9 C695.02350622 12.91247058 689.37822538 15.15173025 683.5703125 17.578125 C682.0132106 18.23764664 682.0132106 18.23764664 680.4246521 18.91049194 C678.17380757 19.86304774 675.92177665 20.81280394 673.66870117 21.7600708 C669.45776183 23.53053653 665.25120018 25.31123724 661.04483414 27.09253502 C660.43008099 27.35285326 659.81532784 27.6131715 659.1819458 27.88137817 C658.56270485 28.14360294 657.9434639 28.40582771 657.30545807 28.67599869 C655.39862359 29.48309727 653.4914446 30.28937651 651.58416748 31.09542847 C637.86967897 36.89255349 624.18359184 42.75537649 610.5 48.625 C608.13623189 49.63834967 605.77246237 50.65169606 603.40869141 51.66503906 C586.92125862 58.73554938 570.44690859 65.83569217 554 73 C560.67100371 70.80177408 567.30708186 68.51218159 573.93359375 66.18359375 C574.9829158 65.81528442 576.03223785 65.4469751 577.11335754 65.06750488 C580.55515686 63.8586901 583.99640982 62.6483319 587.4375 61.4375 C588.62960083 61.01816193 589.82170166 60.59882385 591.04992676 60.16677856 C608.13909644 54.15248566 625.20646479 48.07995464 642.25 41.9375 C643.75923035 41.39429611 643.75923035 41.39429611 645.2989502 40.84011841 C656.02969552 36.97775021 666.75287988 33.09601975 677.45962524 29.16755676 C682.08527247 27.47180279 686.71391624 25.78432057 691.34289551 24.09768677 C693.55251709 23.2899156 695.76064256 22.47803871 697.96716309 21.66183472 C701.02009153 20.53268423 704.07773579 19.41731104 707.13671875 18.3046875 C708.48472816 17.79989113 708.48472816 17.79989113 709.85997009 17.28489685 C714.79636595 15.50669033 718.74655425 14.51593341 724 15 C725.9375 16.125 725.9375 16.125 727 18 C727.63963393 23.11707145 727.63963393 23.11707145 725.89086914 25.53100586 C723.24166527 27.58914139 720.54633279 28.42207423 717.37109375 29.50390625 C716.35173485 29.85612999 716.35173485 29.85612999 715.31178284 30.21546936 C713.81792799 30.73085111 712.3227355 31.24236759 710.82641602 31.75054932 C706.62644314 33.17804648 702.43714519 34.63640789 698.24609375 36.08984375 C697.34386078 36.40187744 696.44162781 36.71391113 695.51205444 37.03540039 C684.64015292 40.80239129 673.82138796 44.71581074 663 48.625 C658.72933787 50.16583935 654.45840616 51.70593095 650.1875 53.24609375 C649.11021133 53.63470581 648.03292267 54.02331787 646.92298889 54.42370605 C634.6208671 58.86041888 622.31094986 63.2753532 610 67.6875 C608.90289703 68.08073456 607.80579407 68.47396912 606.67544556 68.87911987 C585.12315736 76.60341948 563.56343593 84.30688141 542 92 C549.3852227 90.01583028 556.72991582 87.91967535 564.0625 85.75 C572.69819903 83.2089332 581.36136633 80.80643424 590.0625 78.5 C599.21671694 76.07045766 608.27927874 73.43281317 617.32324219 70.62280273 C625.37282261 68.14202319 633.48262037 65.93177847 641.640625 63.8359375 C649.08767374 61.88763922 656.42692556 59.65389182 663.77734375 57.37109375 C677.98216791 52.96474601 692.25151708 48.80175558 706.54833984 44.70605469 C710.10493776 43.68668136 713.65860112 42.65741753 717.21178818 41.62622833 C719.99155401 40.82137937 722.77331361 40.02360421 725.55567169 39.22776794 C727.49915935 38.66994541 729.44049936 38.10465742 731.3817749 37.53918457 C732.55870911 37.20463257 733.73564331 36.87008057 734.94824219 36.52539062 C735.97568542 36.2297522 737.00312866 35.93411377 738.06170654 35.6295166 C741.1626612 34.96515054 743.83845934 34.77560163 747 35 C749.4375 36.625 749.4375 36.625 751 39 C751 42.0625 751 42.0625 750 45 C747.18569792 47.55352189 744.59315812 48.61334677 740.94921875 49.578125 C739.952854 49.84818359 738.95648926 50.11824219 737.92993164 50.39648438 C736.32492798 50.81897461 736.32492798 50.81897461 734.6875 51.25 C732.40823309 51.86750375 730.12959861 52.48734606 727.8515625 53.109375 C726.70075195 53.42326172 725.54994141 53.73714844 724.36425781 54.06054688 C719.40070469 55.44659567 714.48266284 56.96830414 709.5625 58.5 C700.32971204 61.35805282 691.03461956 63.90394978 681.69165039 66.375 C673.67202464 68.51086525 665.74305369 70.87106665 657.81845093 73.33311462 C651.25064357 75.35613472 644.65324737 77.19313261 638.0078125 78.94140625 C619.35946327 83.90880665 600.82589745 89.28729176 582.2755127 94.60614014 C577.38071958 96.00911091 572.48524942 97.40971531 567.58984375 98.81054688 C558.05924942 101.53811046 548.52938128 104.26820158 539 107 C543.43406253 106.27456915 547.81257112 105.42533217 552.203125 104.46875 C553.25035484 104.24136391 553.25035484 104.24136391 554.31874084 104.00938416 C555.83352684 103.68035783 557.3481757 103.35069961 558.86270142 103.02047729 C563.0106842 102.11613677 567.15968939 101.21650762 571.30859375 100.31640625 C572.17924973 100.1274025 573.0499057 99.93839874 573.94694519 99.7436676 C582.84402328 97.81373416 591.74658151 95.90963501 600.6494751 94.00674438 C614.72297648 90.99841291 628.79046275 87.96516681 642.847229 84.87957764 C652.92304323 82.66802847 663.00557657 80.4902696 673.09350586 78.3347168 C681.92960081 76.44591096 690.76239568 74.54223906 699.59378052 72.63156128 C701.93070678 72.12646826 704.26792987 71.62276969 706.60522461 71.11938477 C713.97392321 69.53079428 721.33931824 67.92990476 728.69581604 66.28561401 C732.06814051 65.53261863 735.44197513 64.78652217 738.81594849 64.04095459 C740.41948114 63.68457826 742.0222703 63.32483731 743.62423706 62.96148682 C760.08884512 59.22879817 760.08884512 59.22879817 767 60 C769.23628015 61.81013811 769.91349174 62.57827222 770.5 65.4375 C769.78533969 69.10013408 768.02813751 69.92295798 765 72 C762.26904297 72.95385742 762.26904297 72.95385742 759.2421875 73.60546875 C758.08178955 73.86191162 756.9213916 74.11835449 755.72583008 74.38256836 C754.45505615 74.6481958 753.18428223 74.91382324 751.875 75.1875 C750.51238159 75.48273502 749.15000173 75.77907285 747.7878418 76.07641602 C743.19637717 77.07249477 738.59858571 78.03742274 734 79 C732.30451256 79.35606182 730.60903755 79.7121828 728.91357422 80.06835938 C721.69429583 81.58327453 714.4739622 83.09303217 707.25146484 84.5925293 C695.81286089 86.97038819 684.39833387 89.43639193 673 92 C658.82781793 95.18747641 644.62190399 98.18993093 630.39877319 101.1411438 C619.17796936 103.47144841 607.98144057 105.86847636 596.8125 108.4375 C575.6189266 113.31210971 554.29799006 117.60968894 533 122 C533.72851669 121.89173889 534.45703339 121.78347778 535.20762634 121.67193604 C563.66520404 117.45017994 592.14440286 113.37974494 620.62439728 109.31244659 C623.93058139 108.8402517 627.236741 108.36788606 630.54288745 107.89542758 C664.38027517 103.06012125 698.22042863 98.24786444 732.08422852 93.60058594 C733.23687698 93.4423938 734.38952545 93.28420166 735.57710266 93.12121582 C737.74452436 92.82428566 739.91206943 92.52825424 742.07975769 92.23327637 C747.04455216 91.55544391 752.0046411 90.85646987 756.95996094 90.11230469 C757.91075531 89.97094086 758.86154968 89.82957703 759.84115601 89.68392944 C761.59090117 89.42224876 763.33988654 89.15539874 765.08779907 88.88174438 C776.39853623 87.19508749 776.39853623 87.19508749 781 88 C783.58686515 89.98886007 783.9528398 90.67661577 784.4375 94 C784 97 784 97 782.26126099 98.6272583 C779.84180285 100.0960366 778.16900153 100.56537433 775.38232422 100.96386719 C774.46106247 101.10146957 773.53980072 101.23907196 772.59062195 101.38084412 C771.58876358 101.51813431 770.58690521 101.6554245 769.5546875 101.796875 C768.4967952 101.95128555 767.43890289 102.10569611 766.34895325 102.26478577 C762.85916062 102.7711657 759.36721302 103.26061569 755.875 103.75 C753.44883304 104.09887038 751.02280897 104.44873588 748.59692383 104.79956055 C741.06707501 105.8840409 733.53405075 106.94515169 726 108 C724.80409241 108.1675177 723.60818481 108.3350354 722.3760376 108.50762939 C718.8822908 108.99660856 715.38843751 109.48481788 711.89453125 109.97265625 C710.21315063 110.20754257 710.21315063 110.20754257 708.49780273 110.44717407 C703.17832362 111.18941001 697.85827692 111.92684726 692.53662109 112.65332031 C691.5504631 112.78910995 690.56430511 112.9248996 689.54826355 113.06480408 C687.75591093 113.31155674 685.96323777 113.55600306 684.17012024 113.7971344 C679.63474041 114.42421069 675.12994098 115.14831358 670.62616348 115.97374535 C657.43361964 118.38294114 644.15141792 120.16260432 630.87109375 122.01171875 C628.18245652 122.38797399 625.49394769 122.765143 622.80543518 123.14228821 C616.49875447 124.02646616 610.19165144 124.90759174 603.88438231 125.78756124 C596.69152512 126.79124117 589.49915843 127.7984147 582.30682647 128.80585039 C567.53841853 130.87439497 552.76941458 132.93865412 538 135 C542.76108301 134.75797698 547.52176637 134.50935043 552.28222656 134.25537109 C553.89151346 134.17035336 555.50088633 134.08694308 557.11035156 134.00537109 C566.89225426 133.50829825 576.61399975 132.78682375 586.35538578 131.76605797 C596.11529307 130.75503853 605.89558008 130.08717585 615.68359375 129.4140625 C617.73223958 129.27102766 619.78086893 129.12775672 621.82948303 128.98426819 C627.24992604 128.60543455 632.67062959 128.23046351 638.09140015 127.85634995 C642.58524555 127.54564467 647.07891148 127.23238413 651.57258415 126.91919231 C672.19301743 125.48261378 692.81429028 124.06026736 713.44140625 122.72265625 C714.15539518 122.67628777 714.86938412 122.62991928 715.60500908 122.58214569 C722.6117374 122.12748027 729.6188337 121.67934888 736.62670898 121.24267578 C747.26288482 120.57163418 757.85599776 119.76660545 768.45530701 118.65222168 C773.99595208 118.07652541 779.48750336 117.66097766 785.0625 117.6875 C785.80564453 117.67138672 786.54878906 117.65527344 787.31445312 117.63867188 C790.29990759 117.63597011 792.45666618 117.64836875 795.00390625 119.296875 C796.74645982 122.27629993 795.81477001 124.79911781 795 128 C790.4850874 131.00994173 786.12646907 131.1428111 780.79454041 131.5243988 C779.54391312 131.61543884 778.29328583 131.70647888 777.00476074 131.80027771 C775.62549275 131.89743291 774.24622013 131.99452236 772.86694336 132.09155273 C771.40737525 132.19656231 769.94782677 132.30184488 768.48829651 132.40737915 C764.51956932 132.6934875 760.55056414 132.97555169 756.58148646 133.25675082 C752.39146907 133.55413493 748.20168088 133.85471733 744.01185608 134.15480042 C736.94287941 134.66057127 729.87371769 135.16369112 722.80444336 135.6652832 C714.73014586 136.23822003 706.6561582 136.81536769 698.5823316 137.39489979 C690.74071514 137.95764557 682.89886499 138.51707413 675.05691719 139.07518196 C671.76241066 139.30971225 668.46798498 139.54533061 665.17362785 139.78195 C648.10106297 141.00709865 631.03225241 142.13111063 613.93883121 143.02085197 C590.26691138 144.26780883 566.63414399 146.19067418 543 148 C544.27351665 148.00146656 545.54703329 148.00293312 546.85914135 148.00444412 C577.08145554 148.04013657 607.3036538 148.09636385 637.52587638 148.17792095 C641.24470821 148.18793856 644.96354048 148.19778266 648.68237305 148.20751953 C649.79291441 148.21043159 649.79291441 148.21043159 650.92589096 148.21340248 C662.91791523 148.24443407 674.90992035 148.26140636 686.9019772 148.27319422 C699.20450103 148.2855998 711.50692429 148.31308771 723.80938464 148.35461307 C731.40232693 148.37976559 738.99510246 148.39311601 746.588087 148.39142957 C752.40778001 148.39139633 758.22727811 148.41233473 764.04690361 148.44116783 C766.43621114 148.44970484 768.82555421 148.45139118 771.21487045 148.44580269 C774.47151852 148.43919867 777.72714337 148.45699808 780.98368835 148.48101807 C781.93407932 148.47325765 782.88447029 148.46549723 783.86366099 148.45750165 C788.09300458 148.5129076 790.40514078 148.6384573 794.08695698 150.87618637 C796 153 796 153 796.625 155.5 C795.73106742 159.07573031 794.04241172 160.00325393 791 162 C788.03196758 162.50010267 788.03196758 162.50010267 784.66408008 162.50024599 C782.73085052 162.51488276 782.73085052 162.51488276 780.75856581 162.52981523 C779.3274547 162.52041919 777.89634594 162.51065768 776.46523952 162.50057125 C774.93937551 162.50443963 773.41351511 162.51006145 771.88766328 162.51728085 C767.67421581 162.53208675 763.4611378 162.52183659 759.24770171 162.50766886 C754.67162043 162.49665657 750.09559225 162.50876371 745.5195151 162.51797634 C737.49261947 162.53091044 729.46583409 162.52889421 721.43893814 162.51719666 C709.50297623 162.49984989 697.56710141 162.50530001 685.63113506 162.51536357 C664.31706366 162.53257995 643.0030436 162.52699932 621.68897325 162.51200638 C603.03765029 162.49897052 584.38634516 162.49375556 565.73501778 162.49632454 C563.88147208 162.49656516 563.88147208 162.49656516 561.99048102 162.49681065 C556.97478555 162.4974742 551.95909009 162.4981766 546.94339463 162.49893599 C500.53623062 162.50586438 454.12909239 162.49121078 407.72193701 162.46543228 C365.1914862 162.44182894 322.66107125 162.43563759 280.13061523 162.44604492 C277.44291339 162.44669813 274.75521155 162.44734944 272.0675097 162.44800042 C271.40298833 162.44816146 270.73846696 162.44832249 270.05380858 162.44848841 C262.69471862 162.45026783 255.33562865 162.45198997 247.97653866 162.45364285 C246.65715968 162.45394029 245.3377807 162.45423774 243.97842054 162.4545442 C209.0357451 162.46215318 174.0930725 162.45575227 139.15039831 162.44494683 C135.39208946 162.44379898 131.6337806 162.4426558 127.87547175 162.44152 C125.38214974 162.44076475 122.88882774 162.43999911 120.39550575 162.43922299 C101.75195323 162.4335565 83.10840965 162.43490011 64.4648571 162.43945122 C43.27421936 162.44455047 22.08361512 162.4387441 0.89298575 162.41855692 C-10.97721711 162.40754078 -22.84735416 162.40480488 -34.71755908 162.41384545 C-42.63483973 162.41904361 -50.55206379 162.41342293 -58.46933254 162.39879211 C-62.98798549 162.39074517 -67.50650489 162.38753814 -72.02515734 162.39736467 C-76.1299662 162.40619016 -80.23451723 162.40139218 -84.3393023 162.38538523 C-85.82069694 162.38205078 -87.30211335 162.38381836 -88.78349378 162.39111372 C-90.7854568 162.40024991 -92.78748188 162.38928592 -94.78942925 162.37719816 C-95.90076436 162.37677114 -97.01209947 162.37634413 -98.15711141 162.37590417 C-101.36504345 161.95173172 -102.75994808 161.31656873 -105 159 C-105.74908498 153.00732019 -105.74908498 153.00732019 -103.73974913 150.30529755 C-101.57087406 148.67803574 -100.42051857 148.62198427 -97.72651386 148.61523914 C-96.84969182 148.6057826 -95.97286978 148.59632606 -95.06947738 148.58658296 C-94.10547883 148.59143053 -93.14148028 148.59627811 -92.14826965 148.60127258 C-91.12481829 148.59462576 -90.10136692 148.58797893 -89.04690188 148.58113068 C-85.60123655 148.56240784 -82.15591563 148.56511225 -78.71020508 148.56762695 C-76.24673468 148.55861548 -73.78326878 148.54828979 -71.31980896 148.53674316 C-66.00779446 148.51481364 -60.69587834 148.50206692 -55.38382912 148.49761391 C-47.70348905 148.49115981 -40.02326791 148.46823556 -32.3429757 148.44127061 C-19.88271991 148.39797178 -7.42246912 148.36802274 5.0378418 148.34643555 C17.14301003 148.32543512 29.24813734 148.29816823 41.35327148 148.26245117 C42.47221257 148.25915293 42.47221257 148.25915293 43.61375853 148.25578807 C47.35596475 148.24471865 51.09817059 148.23352579 54.84037626 148.22227156 C85.89355008 148.12904264 116.94673884 148.05768688 148 148 C147.3495018 147.95432892 146.6990036 147.90865784 146.02879333 147.86160278 C139.13158238 147.37697306 132.23456585 146.88964039 125.33764648 146.40087891 C122.77877414 146.21987573 120.21985622 146.03951541 117.66088867 145.85986328 C102.98606922 144.8291422 88.32306136 143.73104211 73.67091942 142.41429138 C67.8402861 141.89054605 62.00444776 141.46126159 56.1640625 141.0625 C53.78416299 140.89607198 51.40428134 140.72938842 49.02441406 140.5625 C47.75005493 140.47355469 46.4756958 140.38460938 45.16271973 140.29296875 C38.01733148 139.7919707 30.87338334 139.27073338 23.72914886 138.75360107 C18.35565868 138.36510405 12.98199463 137.97901973 7.60834885 137.59268188 C3.04399199 137.26442228 -1.52030445 136.93536526 -6.08447266 136.60449219 C-27.26335115 135.06980591 -48.44154874 133.62146547 -69.64233398 132.42358398 C-101.14478653 130.64001773 -101.14478653 130.64001773 -103.76196289 128.68139648 C-105.82655148 125.87744822 -105.36446922 123.34096782 -105 120 C-101.0421124 117.36140827 -97.65903803 117.70663503 -93.06640625 117.7578125 C-92.14565811 117.76354279 -91.22490997 117.76927307 -90.27626038 117.775177 C-79.02150162 117.92121953 -67.80842854 118.7508366 -56.58862305 119.59912109 C-52.93918165 119.87487293 -49.28906755 120.13955637 -45.63867188 120.40234375 C-35.52653095 121.14011867 -25.42653446 121.91378819 -15.34375 122.984375 C-1.55954428 124.4361183 12.27946204 125.27657177 26.10600281 126.21612167 C29.26078308 126.43110208 32.415378 126.64873896 35.56997871 126.86633587 C51.90515617 127.99263876 68.24212766 129.08900928 84.58203125 130.14453125 C85.97631396 130.23481198 87.37059599 130.32510322 88.76487732 130.41540527 C95.24451083 130.83457401 101.72440063 131.24909605 108.20483398 131.65576172 C119.21990791 132.35572681 130.20250156 133.14369824 141.17913818 134.30644226 C148.44271089 135.072068 155.70850043 135.58018639 163 136 C161.76773682 135.83918945 160.53547363 135.67837891 159.26586914 135.51269531 C154.55917468 134.89748344 149.85312018 134.27748151 145.1472168 133.65625 C143.13566165 133.39133288 141.12394955 133.12760401 139.11206055 132.86523438 C128.37890953 131.46467264 117.67387792 129.9749266 106.99389648 128.2121582 C91.13893067 125.64043797 75.23108794 123.4568489 59.32212067 121.25077891 C55.04175128 120.6564934 50.76186061 120.05878055 46.48193359 119.46131897 C33.81825863 117.6941384 21.15384983 115.9322378 8.48931885 114.17120361 C-1.40047775 112.79593312 -11.2900663 111.41919929 -21.17908001 110.03830916 C-26.23605765 109.33232061 -31.29341955 108.62917774 -36.35111332 107.92833889 C-39.5108428 107.4898479 -42.67020391 107.04874505 -45.82947731 106.60698128 C-47.2735083 106.40558205 -48.71768278 106.20520798 -50.16202354 106.00604248 C-60.4899351 104.58107214 -70.74324904 102.86385206 -81 101 C-82.97909481 100.64543201 -84.95824239 100.29115807 -86.9375 99.9375 C-90.74895397 99.25104603 -90.74895397 99.25104603 -93 97 C-93.375 93.5625 -93.375 93.5625 -93 90 C-90.83560734 87.76955263 -89.58952231 87.04034862 -86.47094727 86.8269043 C-85.49182373 86.92914307 -84.5127002 87.03138184 -83.50390625 87.13671875 C-82.33875488 87.25708496 -81.17360352 87.37745117 -79.97314453 87.50146484 C-78.64826165 87.66359751 -77.32389263 87.82997077 -76 88 C-75.30670593 88.08880432 -74.61341187 88.17760864 -73.89910889 88.269104 C-67.90295267 89.05538408 -61.92083645 89.93491831 -55.9375 90.8125 C-52.76423385 91.27306432 -49.5907501 91.73211152 -46.41726685 92.19117737 C-44.04632306 92.53428535 -41.67545597 92.87792356 -39.30465698 93.22203064 C-29.12228498 94.69850739 -18.93657691 96.15094784 -8.74994087 97.59768867 C-5.96240094 97.99364421 -3.17490992 98.38994228 -0.38743591 98.78636169 C0.53978114 98.91822404 1.4669982 99.05008638 2.42231274 99.18594456 C4.303316 99.45345768 6.18431842 99.7209767 8.06532001 99.98850155 C12.71181206 100.64924306 17.35838895 101.30937566 22.00515747 101.96817017 C56.29046542 106.83045882 56.29046542 106.83045882 72.63124084 109.5063324 C87.07162956 111.85264523 101.565593 113.85306906 116.04937744 115.91027832 C119.28331987 116.37032186 122.51687847 116.83303324 125.75044155 117.29573441 C128.87713032 117.74287955 132.00401569 118.18863656 135.13096809 118.63393402 C136.61701829 118.84567831 138.10301518 119.05779716 139.58895683 119.27030182 C141.64040973 119.56341922 143.69211143 119.8547259 145.74389648 120.14550781 C146.90759262 120.31109192 148.07128876 120.47667603 149.27024841 120.64727783 C151.87184406 121.04271621 151.87184406 121.04271621 154 121 C153.15856445 120.82984375 152.31712891 120.6596875 151.45019531 120.484375 C134.99791811 117.14867469 118.56917806 113.7305709 102.1875 110.0625 C99.16147623 109.38533665 96.13544964 108.708186 93.109375 108.03125 C91.98042061 107.77868187 91.98042061 107.77868187 90.82865906 107.52101135 C82.53863891 105.6690995 74.23978053 103.85856658 65.9375 102.0625 C65.18453644 101.8995343 64.43157288 101.7365686 63.65579224 101.56866455 C49.90632579 98.5966275 36.13588654 95.72773325 22.3637085 92.86315918 C9.48753193 90.18209071 -3.35573385 87.38950116 -16.17700195 84.45727539 C-24.6246916 82.5267131 -33.0865151 80.67709503 -41.5625 78.875 C-43.84250142 78.38696863 -46.12245057 77.89869303 -48.40234375 77.41015625 C-51.70601889 76.70233011 -55.01021344 75.99785748 -58.31689453 75.30419922 C-61.4221006 74.65142938 -64.52372715 73.98366908 -67.625 73.3125 C-68.54998291 73.12220215 -69.47496582 72.9319043 -70.42797852 72.73583984 C-71.26901123 72.55102051 -72.11004395 72.36620117 -72.9765625 72.17578125 C-73.70955566 72.02020752 -74.44254883 71.86463379 -75.19775391 71.7043457 C-77 71 -77 71 -79 68 C-79.48738473 64.83199922 -79.23816292 63.41137232 -77.625 60.625 C-70.10132892 55.96748933 -56.1663443 61.7816323 -47.875 63.625 C-46.2214717 63.98816575 -44.56782378 64.35078729 -42.9140625 64.71289062 C-39.54978128 65.45042483 -36.18620277 66.19103774 -32.82324219 66.93457031 C-28.46936076 67.89708455 -24.11403876 68.85284751 -19.7578125 69.8046875 C-15.21696307 70.79691564 -10.6763201 71.79006181 -6.13607788 72.7850647 C3.40530932 74.87512487 12.95230182 76.93899099 22.5 79 C34.65781214 81.62443993 46.81201182 84.26442064 58.96081543 86.93026733 C66.52778384 88.59060224 74.09699461 90.23938737 81.671875 91.86328125 C105.8266266 97.04574741 129.91979997 102.48194016 154 108 C145.95420154 105.37778633 137.83250642 103.13352815 129.65551758 100.96508789 C113.97030904 96.77066391 98.36956384 92.29129511 82.76595664 87.80488086 C78.69775881 86.63569082 74.62884348 85.46900267 70.56001282 84.30201721 C62.87535581 82.09758501 55.19130702 79.89104087 47.50749475 77.68366629 C37.97101784 74.94417697 28.43375357 72.20743265 18.89648438 69.47070312 C0.21429856 64.10968535 0.21429856 64.10968535 -8.12219185 61.71548253 C-9.64160711 61.27915647 -11.16105448 60.84294224 -12.68053538 60.40684479 C-16.27444606 59.37526345 -19.86787076 58.34206157 -23.46013355 57.30475521 C-29.5056573 55.56102914 -35.5542266 53.83779096 -41.63046265 52.20315552 C-42.61477107 51.93472619 -43.59907949 51.66629686 -44.61321545 51.38973331 C-46.37653883 50.91105407 -48.14274177 50.44278148 -49.91239643 49.98806667 C-54.22715171 48.80907997 -57.30201244 47.81781842 -60 44 C-59.9375 40.375 -59.9375 40.375 -59 37 C-55.65009537 34.76673024 -54.41738154 34.85077407 -50.56542969 35.45214844 C-45.51311286 36.53107868 -40.58012618 38.03533412 -35.63500977 39.52130127 C-32.17994845 40.5590157 -28.71887212 41.57625308 -25.2578125 42.59375 C-24.55895935 42.79956696 -23.8601062 43.00538391 -23.14007568 43.21743774 C-16.62192787 45.12858381 -10.06758649 46.89184523 -3.5 48.625 C5.50444272 51.00929426 14.41515952 53.60866576 23.30957031 56.37329102 C31.56700339 58.91902431 39.89055935 61.17649781 48.25585938 63.33984375 C54.24310365 64.90950416 60.14557683 66.66579406 66.03515625 68.56640625 C80.82626014 73.31712531 95.81204963 77.43807686 110.75396729 81.68322754 C114.85151937 82.84802539 118.94817799 84.01595719 123.04492188 85.18359375 C131.02909658 87.45872722 139.01422526 89.73048907 147 92 C138.31611459 88.72443466 129.63188443 85.4639184 120.87109375 82.3984375 C119.0212 81.7471846 117.17134843 81.09581185 115.3215332 80.44433594 C114.36542145 80.10817261 113.40930969 79.77200928 112.42422485 79.42565918 C91.99699356 72.23984223 71.63259471 64.89021364 51.29144287 57.46463013 C36.74590866 52.15648827 22.18179384 46.91400215 7.5625 41.8125 C-12.89678354 34.65821907 -12.89678354 34.65821907 -23.0625 30.9375 C-24.0330835 30.59114502 -25.00366699 30.24479004 -26.00366211 29.88793945 C-34.32719969 26.79979303 -34.32719969 26.79979303 -37 23 C-36.85205998 19.3014996 -36.64194427 17.64194427 -34 15 C-27.50820421 14.22579842 -22.22642318 16.38824153 -16.19921875 18.62890625 C-14.62174614 19.19997353 -14.62174614 19.19997353 -13.0124054 19.78257751 C-9.566969 21.03236625 -6.127373 22.29748843 -2.6875 23.5625 C-0.27581913 24.43998068 2.13629544 25.31627026 4.54882812 26.19140625 C9.41917188 27.95910099 14.287667 29.73174495 19.15478516 31.50830078 C27.59837237 34.58672399 36.06152771 37.60908921 44.52908325 40.62081909 C48.71061376 42.10865627 52.89049365 43.60111223 57.0703125 45.09375 C57.92244827 45.398004 58.77458405 45.702258 59.65254211 46.01573181 C66.99728303 48.63933261 74.3387266 51.27209377 81.6796875 53.90625 C83.4455722 54.53980408 83.4455722 54.53980408 85.24713135 55.18615723 C91.010184 57.25391438 96.77292336 59.32253767 102.53515625 61.39257812 C115.33619454 65.98826914 128.15428035 70.53067396 141 75 C115.66884487 64.05568771 90.33030855 53.12905444 64.96588135 42.26205444 C61.44414611 40.75284813 57.92295407 39.24238041 54.40185547 37.73168945 C44.37864411 33.43312637 34.352901 29.1415225 24.30500793 24.90090942 C20.33529766 23.22515149 16.36815111 21.54337381 12.40115356 19.86120605 C10.5666935 19.08563049 8.73083613 18.31335079 6.89352417 17.54455566 C4.39692968 16.49987994 1.90510379 15.44455245 -0.5859375 14.38671875 C-1.31633743 14.08475082 -2.04673737 13.7827829 -2.79927063 13.47166443 C-6.28133932 11.98019647 -7.84596172 11.23105742 -10 8 C-10.32443143 4.88545823 -10.45929053 2.83752979 -8.9375 0.0625 C-5.91645704 -1.59420098 -3.20811422 -0.79626731 0 0 Z " fill="#1C2E5E" transform="translate(655,991)"/>
<path d="M0 0 C69.63 0 139.26 0 211 0 C211 68.83581996 211 68.83581996 203.1875 84.5 C202.83913086 85.23444336 202.49076172 85.96888672 202.13183594 86.72558594 C201.11649515 88.8329493 200.06645895 90.91813875 199 93 C198.45472656 94.08796875 197.90945313 95.1759375 197.34765625 96.296875 C183.57807023 121.74872593 159.41891771 137.75780547 132.32421875 146.13671875 C104.21130063 153.45965168 74.93255648 148.4147663 50 134 C27.32075978 119.54698293 9.84538938 97.35001821 3.00390625 71.19140625 C-2.31565912 47.13882599 0 26.73731455 0 0 Z " fill="#182B5C" transform="translate(895,713)"/>
<path d="M0 0 C1.29429715 -0.00751056 2.58859431 -0.01502111 3.92211258 -0.02275926 C5.3594161 -0.01592891 6.79671832 -0.00882433 8.23401928 -0.00147593 C9.76640025 -0.00460473 11.29877901 -0.00904802 12.8311528 -0.01468903 C17.06264976 -0.02641834 21.29394258 -0.0193568 25.52543639 -0.00935517 C30.1211543 -0.00177048 34.71684001 -0.01151468 39.31255341 -0.01908517 C47.3739507 -0.02994283 55.43528778 -0.02957772 63.49668789 -0.02194369 C75.4840223 -0.01062256 87.47130567 -0.01638372 99.45863971 -0.02556861 C120.86473412 -0.04138899 142.27080171 -0.03998746 163.67689869 -0.03133187 C182.40938679 -0.02379427 201.14186505 -0.02181086 219.87435436 -0.0253998 C221.11545176 -0.02562896 222.35654915 -0.02585811 223.63525555 -0.02609421 C228.67288757 -0.02702818 233.71051958 -0.02798338 238.74815159 -0.02897351 C273.91972183 -0.03580405 309.09128906 -0.03699917 344.26285839 -0.02578318 C345.25756204 -0.02546706 345.25756204 -0.02546706 346.27236072 -0.02514455 C357.04176006 -0.02170957 367.81115933 -0.01805125 378.58055859 -0.01437403 C421.29522969 0.00019536 464.00987259 -0.00048086 506.72454357 -0.01506579 C517.48846464 -0.01872926 528.25238572 -0.02236237 539.01630688 -0.02578318 C540.01042118 -0.0261002 540.01042118 -0.0261002 541.0246186 -0.02642362 C576.78940071 -0.03775072 612.55418118 -0.03525843 648.318964 -0.028229 C653.34757963 -0.0272668 658.37619527 -0.02632828 663.40481091 -0.0253998 C664.64304412 -0.02516257 665.88127733 -0.02492534 667.15703277 -0.02468092 C685.88076324 -0.02126411 704.60448281 -0.0252675 723.32821178 -0.03283846 C744.61141107 -0.04140129 765.89457927 -0.03930376 787.17777467 -0.02299623 C799.09887004 -0.01416417 811.01989817 -0.01364565 822.94099185 -0.02493476 C830.89346917 -0.03163704 838.84589231 -0.02752049 846.79836157 -0.01442045 C851.33629957 -0.00725088 855.87410348 -0.00491245 860.41203749 -0.0156384 C864.53551161 -0.02528582 868.65873195 -0.02127576 872.78218736 -0.00609642 C874.26921949 -0.00306021 875.75627235 -0.00511166 877.24328814 -0.01271423 C879.25522893 -0.02227537 881.26723564 -0.01167484 883.27916527 0 C884.39533578 0.00020328 885.51150629 0.00040655 886.66150016 0.00061599 C891.14436344 0.56574745 893.72488048 2.5107887 896.95208263 5.56354749 C899.14091218 9.21159674 899.30718922 12.27388651 898.63958263 16.37604749 C897.0484759 20.59248034 895.53453508 23.10249964 891.63958263 25.37604749 C888.51319796 25.74930167 888.51319796 25.74930167 884.74261856 25.74684179 C884.04557958 25.75049371 883.3485406 25.75414564 882.63037923 25.75790823 C880.28306419 25.76654539 877.93635097 25.7537284 875.58906078 25.74112928 C873.89387717 25.74298701 872.19869457 25.74617437 870.50351566 25.75058079 C865.83608813 25.75893681 861.16885624 25.74865571 856.5014466 25.73549211 C851.47137611 25.72460581 846.44132609 25.73105127 841.41125011 25.73562086 C832.69213437 25.74137335 823.97307416 25.73672597 815.25396442 25.72560728 C802.64207011 25.70997542 790.03025087 25.71550527 777.41835546 25.72722371 C756.95034926 25.74612901 736.48235326 25.75533551 716.01433849 25.75495374 C714.78876938 25.7549363 713.56320027 25.75491886 712.3004927 25.75490089 C698.62490594 25.75444861 684.94932285 25.75111982 671.27373791 25.74402845 C669.42942279 25.74307987 669.42942279 25.74307987 667.54784879 25.74211214 C665.70541334 25.74116329 665.70541334 25.74116329 663.82575697 25.74019527 C661.34890394 25.73892552 658.8720509 25.7376601 656.39519787 25.73639905 C654.55953196 25.73545677 654.55953196 25.73545677 652.68678189 25.73449545 C632.29779281 25.72454954 611.90886455 25.73384776 591.51988834 25.75858307 C578.93635857 25.77303888 566.35304237 25.77090373 553.76952481 25.74762107 C545.15072386 25.73290174 536.5320484 25.73599481 527.91325254 25.75324999 C522.93640072 25.76261171 517.95989673 25.76366271 512.98307133 25.74301946 C508.43009765 25.72428109 503.87774522 25.7283612 499.32479381 25.75084706 C497.67476627 25.75489455 496.02469207 25.75041711 494.37471647 25.7367131 C492.13651193 25.71933181 489.90051298 25.73255504 487.66238785 25.75357091 C486.41793429 25.75308386 485.17348074 25.7525968 483.89131647 25.75209498 C479.74476621 26.54774757 478.3317642 28.20821662 475.63958263 31.37604749 C464.68109559 41.39523565 450.15851036 44.22092438 435.75677013 43.71979749 C425.51078507 43.0596788 416.6928227 38.56896463 408.63958263 32.37604749 C407.93257245 31.36025145 407.22556227 30.34445541 406.49712753 29.29787767 C402.2214723 25.04650778 396.80837762 25.60842077 391.13125509 25.59869701 C389.53701507 25.61533959 387.94278066 25.63252755 386.34855175 25.65020216 C384.65163718 25.64703515 382.95472583 25.64121962 381.2578283 25.63298315 C376.59469254 25.61793056 371.93236259 25.64018934 367.26931536 25.66840601 C362.24063871 25.69225435 357.21202605 25.68141609 352.18331432 25.67457044 C343.46961414 25.66724844 334.75615945 25.68130452 326.04250431 25.70929754 C313.43857424 25.74932027 300.83485228 25.75158894 288.23087133 25.74364508 C267.77503255 25.73131476 247.31927996 25.74206912 226.86345959 25.77082288 C225.63902148 25.77253683 224.41458337 25.77425078 223.15304107 25.77601666 C216.94845598 25.78477346 210.74387126 25.7937691 204.53928661 25.80283582 C192.12130502 25.82083483 179.70332096 25.83659697 167.28533459 25.85090101 C166.06208276 25.85231737 164.83883094 25.85373373 163.57851087 25.85519301 C143.19851358 25.87814064 122.81855462 25.88145071 102.43854767 25.87150091 C89.86253181 25.86638449 77.28678233 25.87964032 64.71081782 25.91641343 C56.09859673 25.94054789 47.48647789 25.94732079 38.87422615 25.9403054 C33.90139427 25.93691443 28.9289234 25.94192876 23.95615482 25.96870077 C19.40698869 25.99307585 14.85841445 25.99466056 10.30921925 25.97788609 C8.66058619 25.97592734 7.0119171 25.9825128 5.36335891 25.99834555 C3.12710606 26.01863012 0.89302417 26.00828023 -1.34319878 25.99014413 C-3.20825289 25.99331405 -3.20825289 25.99331405 -5.11098486 25.996548 C-9.87204832 25.08739162 -11.97528452 22.3548087 -14.67291737 18.50104749 C-15.71681874 15.27444325 -15.70928881 12.74847146 -15.36041737 9.37604749 C-11.77598853 2.47270306 -7.69275318 0.00140101 0 0 Z " fill="#182B5C" transform="translate(558.3604173660278,1164.6239525079727)"/>
<path d="M0 0 C133.65 0 267.3 0 405 0 C405 7.92 405 15.84 405 24 C392.79 24 380.58 24 368 24 C368 60.3 368 96.6 368 134 C368.99 134.33 369.98 134.66 371 135 C373.60210685 138.51343883 373.25689016 142.42653945 373.1953125 146.609375 C373.19106766 147.69958954 373.19106766 147.69958954 373.18673706 148.81182861 C373.17557523 151.12472251 373.15047851 153.43722388 373.125 155.75 C373.11496501 157.32160898 373.10584006 158.89322404 373.09765625 160.46484375 C373.07735359 164.31016736 373.03819888 168.15464623 373 172 C365.74 172 358.48 172 351 172 C350.93098421 167.39127917 350.87129801 162.7843637 350.83520508 158.17553711 C350.82015378 156.60906893 350.79970793 155.04264264 350.77368164 153.47631836 C350.73713567 151.21978394 350.72023739 148.96380847 350.70703125 146.70703125 C350.69154739 146.01100296 350.67606354 145.31497467 350.66011047 144.59785461 C350.65861572 140.2420424 351.26502169 137.43565806 354 134 C354.66 134 355.32 134 356 134 C356 97.7 356 61.4 356 24 C340.16 24 324.32 24 308 24 C308 41.82 308 59.64 308 78 C238.37 78 168.74 78 97 78 C97 60.18 97 42.36 97 24 C64.99 24 32.98 24 0 24 C0 16.08 0 8.16 0 0 Z " fill="#192B5C" transform="translate(798,619)"/>
<path d="M0 0 C45.91666667 0 45.91666667 0 53.0625 7 C57.04526057 13.16685508 57.82373119 17.64743641 57 25 C55.34383152 30.39821403 52.73995621 33.8400292 48 37 C48.60328125 37.35191406 49.2065625 37.70382812 49.828125 38.06640625 C54.96764003 41.24130021 59.31616255 43.96717841 61 50 C61.96922885 57.39674652 61.54660911 63.90470217 57 70 C51.33479696 75.93497461 44.56976237 78.94042641 36.34423828 79.32128906 C30.85091215 79.43981239 25.36869513 79.34761578 19.875 79.25 C13.31625 79.1675 6.7575 79.085 0 79 C0 52.93 0 26.86 0 0 Z " fill="#1B2E5E" transform="translate(442,1278)"/>
<path d="M0 0 C8.25 0 16.5 0 25 0 C25.886875 3.444375 26.77375 6.88875 27.6875 10.4375 C29.55978088 17.65842501 31.48675558 24.85304924 33.625 32 C35.23792856 37.40337536 36.82295874 42.81110002 38.3125 48.25 C38.63863281 49.43078125 38.96476563 50.6115625 39.30078125 51.828125 C39.93062751 54.68530469 40.14762859 57.09117007 40 60 C40.66 60 41.32 60 42 60 C42.09925781 58.75347656 42.19851563 57.50695313 42.30078125 56.22265625 C42.94810806 50.43060646 44.54134329 45.01360317 46.1875 39.4375 C49.05720548 29.48764402 51.68819138 19.50355188 54.13354492 9.44116211 C54.48122925 8.01815796 54.48122925 8.01815796 54.8359375 6.56640625 C55.13830322 5.31259155 55.13830322 5.31259155 55.44677734 4.03344727 C56 2 56 2 57 0 C65.25 0 73.5 0 82 0 C82 26.07 82 52.14 82 79 C77.05 79 72.1 79 67 79 C66.67 58.21 66.34 37.42 66 16 C64.35 22.6 62.7 29.2 61 36 C59.0625 42.3125 59.0625 42.3125 58.10546875 45.30859375 C55.73128803 53.2365117 53.76050153 61.28252243 51.71435547 69.30029297 C50.85551638 72.54603549 49.92236158 75.77173448 49 79 C43.72 79 38.44 79 33 79 C32.4225 76.64875 31.845 74.2975 31.25 71.875 C29.69155136 65.60629113 28.00731614 59.3877628 26.20703125 53.18359375 C24.56149211 47.50727833 22.971011 41.81539466 21.375 36.125 C21.07360107 35.05451416 20.77220215 33.98402832 20.46166992 32.88110352 C20.17267822 31.85041748 19.88368652 30.81973145 19.5859375 29.7578125 C19.3286084 28.8414502 19.0712793 27.92508789 18.80615234 26.98095703 C17.81989535 23.33401642 16.91628658 19.66514633 16 16 C15.67 36.79 15.34 57.58 15 79 C10.05 79 5.1 79 0 79 C0 52.93 0 26.86 0 0 Z " fill="#1B2E5E" transform="translate(750,1278)"/>
<path d="M0 0 C1.5625 1.0078125 1.5625 1.0078125 3.875 3.1953125 C4.803125 4.0615625 4.803125 4.0615625 5.75 4.9453125 C6.12125 5.3578125 6.4925 5.7703125 6.875 6.1953125 C7.205 4.2153125 7.535 2.2353125 7.875 0.1953125 C12.495 0.1953125 17.115 0.1953125 21.875 0.1953125 C21.96578347 7.8455653 22.03899215 15.49561404 22.08224869 23.14627647 C22.10302189 26.69977389 22.13114773 30.25288004 22.17675781 33.80615234 C22.22899721 37.90205393 22.24802984 41.99755192 22.265625 46.09375 C22.28627014 47.3545639 22.30691528 48.61537781 22.32818604 49.91439819 C22.33043068 58.83350838 20.69165009 65.39657532 16.1875 73.0703125 C9.02361186 79.65334484 -0.13401106 80.57131393 -9.4453125 80.46484375 C-16.97787255 79.91309572 -22.96428494 77.90440126 -28.25 72.3828125 C-31.17373533 68.66359787 -32.02723478 65.88804325 -32.125 61.1953125 C-29.85578464 61.06041859 -27.5842933 60.96337255 -25.3125 60.8828125 C-23.41564453 60.79580078 -23.41564453 60.79580078 -21.48046875 60.70703125 C-20.37316406 60.86816406 -19.26585937 61.02929688 -18.125 61.1953125 C-16.36328125 63.58984375 -16.36328125 63.58984375 -15.125 66.1953125 C-11.70170149 68.47751151 -10.28362332 68.49272413 -6.25 68.5078125 C-5.22132813 68.52457031 -4.19265625 68.54132813 -3.1328125 68.55859375 C0.27041814 68.14755421 2.12771011 67.20933997 4.875 65.1953125 C7.57731811 60.73648761 7.49931284 55.28686217 7.875 50.1953125 C7.215 50.1953125 6.555 50.1953125 5.875 50.1953125 C5.61589844 50.80890625 5.35679687 51.4225 5.08984375 52.0546875 C2.99862045 55.73954399 -0.18672401 56.94425562 -4.125 58.1953125 C-10.21156064 59.07870301 -15.82779045 58.78697465 -21.2109375 55.65234375 C-27.3058266 51.01276491 -32.88634355 44.94298715 -34.125 37.1953125 C-34.97229825 25.59943072 -34.55355223 15.32769327 -26.8984375 5.9921875 C-19.88504876 -1.1138892 -9.56973437 -3.62383324 0 0 Z " fill="#1E3060" transform="translate(613.125,1298.8046875)"/>
<path d="M0 0 C4.62 0 9.24 0 14 0 C14 26.07 14 52.14 14 79 C9.38 79 4.76 79 0 79 C-0.33 77.02 -0.66 75.04 -1 73 C-1.47050781 73.42152344 -1.94101563 73.84304688 -2.42578125 74.27734375 C-3.04839844 74.82519531 -3.67101563 75.37304688 -4.3125 75.9375 C-4.92738281 76.48277344 -5.54226563 77.02804687 -6.17578125 77.58984375 C-10.92274661 81.25933945 -17.32056344 80.49197667 -23 80 C-30.63385002 78.06870119 -36.17855015 71.62036082 -40.1640625 65.09375 C-43.55578023 56.59860652 -43.53444245 43.87781071 -40.25 35.3125 C-36.63343073 27.84241381 -31.80604353 23.06738786 -24 20 C-18.14229817 19.14387435 -11.51273978 18.479678 -6.3125 21.8125 C-4.514455 23.51335338 -2.750124 25.249876 -1 27 C-0.67 18.09 -0.34 9.18 0 0 Z " fill="#1E3060" transform="translate(1327,1278)"/>
<path d="M0 0 C4.62 0 9.24 0 14 0 C14 26.07 14 52.14 14 79 C9.38 79 4.76 79 0 79 C-0.33 77.35 -0.66 75.7 -1 74 C-1.7425 74.61875 -2.485 75.2375 -3.25 75.875 C-9.51962921 80.71971348 -15.19555512 80.99688536 -23 80 C-30.69686401 77.23836939 -35.3176208 72.1532704 -39 65 C-39.37382813 64.28457031 -39.74765625 63.56914063 -40.1328125 62.83203125 C-41.41543363 58.64329108 -41.3685546 54.60709242 -41.375 50.25 C-41.39949219 49.3940625 -41.42398438 48.538125 -41.44921875 47.65625 C-41.48853914 39.00576377 -38.60990541 31.85108042 -32.6796875 25.5078125 C-26.9516934 20.36593872 -21.44147404 19.40326859 -13.84375 19.671875 C-8.3058465 20.31086387 -4.99752712 22.00247288 -1 26 C-0.67 17.42 -0.34 8.84 0 0 Z " fill="#1C2F5F" transform="translate(974,1278)"/>
<path d="M0 0 C5.61 0 11.22 0 17 0 C20.23477545 7.89100473 23.11647082 15.87046459 25.9140625 23.92578125 C26.37414908 25.24480593 26.83447052 26.56374871 27.29501343 27.88261414 C28.49622096 31.32405115 29.69493072 34.76635213 30.8928833 38.20892334 C32.81609978 43.73486382 34.74242931 49.2597176 36.67017746 54.7840786 C37.33927281 56.70303459 38.00683117 58.62252012 38.67422485 60.54206848 C39.08159882 61.71065903 39.48897278 62.87924957 39.90869141 64.08325195 C40.44352646 65.62019463 40.44352646 65.62019463 40.98916626 67.18818665 C41.64755734 69.01961823 42.35949771 70.83294001 43.13070679 72.61979675 C44 75 44 75 44 79 C39.05 79 34.1 79 29 79 C28.175 76.73125 27.35 74.4625 26.5 72.125 C26.23896484 71.41230957 25.97792969 70.69961914 25.70898438 69.96533203 C24 65.22222222 24 65.22222222 24 63 C13.77 63 3.54 63 -7 63 C-7.66 65.97 -8.32 68.94 -9 72 C-9.94280904 74.3570226 -10.92378945 76.70082291 -12 79 C-16.95 79 -21.9 79 -27 79 C-26.28716118 75.4358059 -25.53571246 72.39607695 -24.36108398 69.00805664 C-24.02660751 68.03836441 -23.69213104 67.06867218 -23.34751892 66.06959534 C-22.98404861 65.02698044 -22.62057831 63.98436554 -22.24609375 62.91015625 C-21.86695328 61.81521347 -21.48781281 60.72027069 -21.09718323 59.59214783 C-20.29086447 57.26572889 -19.48295582 54.93986048 -18.67358398 52.61450195 C-17.46292203 49.13555255 -16.25737539 45.65486629 -15.05273438 42.17382812 C-10.16231714 28.06855326 -5.14730394 14.01353277 0 0 Z " fill="#1D2F5F" transform="translate(1110,1278)"/>
<path d="M0 0 C4.07360975 1.52760365 6.66675982 4.37051527 9 8 C9.53625 7.236875 10.0725 6.47375 10.625 5.6875 C13.99023433 1.87947168 16.66498886 0.26967734 21.7734375 -0.3203125 C28.22750618 -0.564169 33.88716802 -0.26069332 39 4 C43.14746552 9.05990793 45.13276848 13.85871794 45.11352539 20.40136719 C45.11341209 21.6922525 45.11341209 21.6922525 45.11329651 23.00921631 C45.10813522 23.92914368 45.10297394 24.84907104 45.09765625 25.796875 C45.0962413 26.74564514 45.09482635 27.69441528 45.09336853 28.67193604 C45.08777742 31.69798962 45.07522652 34.72396883 45.0625 37.75 C45.05748385 39.80338435 45.05292115 41.85676986 45.04882812 43.91015625 C45.03781089 48.94013276 45.02055233 53.97005378 45 59 C40.38 59 35.76 59 31 59 C30.98541748 57.78417236 30.97083496 56.56834473 30.95581055 55.31567383 C30.89774902 50.79600922 30.8205164 46.27683873 30.73754883 41.75756836 C30.70433646 39.80322298 30.67629305 37.84878253 30.65356445 35.89428711 C30.61995067 33.08145718 30.56763146 30.26949553 30.51171875 27.45703125 C30.50532883 26.58601273 30.4989389 25.7149942 30.49235535 24.81758118 C30.37842617 20.09518628 30.10350563 16.81360972 27 13 C24.02051539 11.73901962 21.19988238 11.60703199 18 12 C14.67624797 14.49281402 13.31065245 16.06804266 12 20 C11.84565842 22.94717173 11.7424397 25.87498865 11.68359375 28.82421875 C11.66281265 29.68561966 11.64203156 30.54702057 11.62062073 31.43452454 C11.55525091 34.18543544 11.49629868 36.93644156 11.4375 39.6875 C11.39430283 41.55274421 11.35068815 43.4179788 11.30664062 45.28320312 C11.19958237 49.85537124 11.09827946 54.4276351 11 59 C6.38 59 1.76 59 -3 59 C-3.00410889 57.75387939 -3.00821777 56.50775879 -3.01245117 55.22387695 C-3.03425367 50.59227362 -3.08855515 45.96151846 -3.15258789 41.33032227 C-3.17575811 39.32747539 -3.19016132 37.32450683 -3.19555664 35.3215332 C-3.20485333 32.43884546 -3.24585906 29.55806881 -3.29296875 26.67578125 C-3.2890361 25.78288895 -3.28510345 24.88999664 -3.28105164 23.970047 C-3.38539577 19.50534303 -3.55924545 17.57408132 -6.35668945 13.93041992 C-8.87463766 11.80050992 -8.87463766 11.80050992 -12 11.4375 C-15.68233904 12.12793857 -17.36813928 13.36813928 -20 16 C-20.88565586 18.65696758 -21.1450262 20.28190083 -21.20532227 23.01245117 C-21.22526749 23.81305466 -21.24521271 24.61365814 -21.26576233 25.43852234 C-21.29083107 26.72772331 -21.29083107 26.72772331 -21.31640625 28.04296875 C-21.33718735 28.9265657 -21.35796844 29.81016266 -21.37937927 30.72053528 C-21.44475754 33.54277785 -21.50370528 36.36511335 -21.5625 39.1875 C-21.60569637 41.10092106 -21.64931102 43.01433273 -21.69335938 44.92773438 C-21.80042695 49.61839437 -21.90172752 54.30914783 -22 59 C-26.62 59 -31.24 59 -36 59 C-36 39.86 -36 20.72 -36 1 C-31.38 1 -26.76 1 -22 1 C-21.67 2.65 -21.34 4.3 -21 6 C-20.57332031 5.566875 -20.14664062 5.13375 -19.70703125 4.6875 C-13.62448565 -0.73035505 -7.93120955 -1.2185973 0 0 Z " fill="#1D2F5F" transform="translate(1456,1298)"/>
<path d="M0 0 C4.20004563 4.00412514 7.01986145 9.51808178 8.6875 15 C8.6875 18.96 8.6875 22.92 8.6875 27 C-5.5025 27 -19.6925 27 -34.3125 27 C-31.35200926 36.30517013 -31.35200926 36.30517013 -27.6875 39.625 C-23.10905749 41.49029139 -19.18448785 41.9332704 -14.3125 41 C-10.71846727 39.07041686 -8.56813169 36.38344754 -6.3125 33 C-3.0546875 32.70703125 -3.0546875 32.70703125 0.8125 32.8125 C2.73449219 32.85310547 2.73449219 32.85310547 4.6953125 32.89453125 C5.68273438 32.92933594 6.67015625 32.96414063 7.6875 33 C5.26091108 41.43791146 2.42730832 46.19813531 -5.1171875 50.88671875 C-13.12102772 54.94560569 -22.12363418 55.69149802 -30.6796875 52.90234375 C-38.8930965 49.06190937 -43.81764634 44.59088134 -47.6875 36.4375 C-50.56072154 28.50595985 -50.58878633 19.65692907 -47.8125 11.6875 C-44.30231444 4.21142059 -38.80301384 -2.46152327 -30.921875 -5.41015625 C-19.75656727 -7.93405066 -9.65969816 -5.83227059 0 0 Z " fill="#1E3160" transform="translate(1400.3125,1304)"/>
<path d="M0 0 C5.97517061 3.53168197 9.29037356 8.1776749 11.3125 14.8125 C11.69739248 18.11104696 11.66366527 21.36642976 11.60546875 24.68359375 C11.60122391 25.605923 11.59697906 26.52825226 11.59260559 27.47853088 C11.57591364 30.40266035 11.53827938 33.32608149 11.5 36.25 C11.48494089 38.24152645 11.47125464 40.23306379 11.45898438 42.22460938 C11.42604122 47.08750938 11.37432499 51.9498849 11.3125 56.8125 C6.6925 56.8125 2.0725 56.8125 -2.6875 56.8125 C-3.1825 53.8425 -3.1825 53.8425 -3.6875 50.8125 C-4.409375 51.59625 -5.13125 52.38 -5.875 53.1875 C-10.51482289 57.51800137 -14.3638964 58.10460553 -20.625 58.125 C-21.80964844 58.14175781 -22.99429687 58.15851563 -24.21484375 58.17578125 C-28.70100533 57.70647526 -31.98276553 56.3674122 -35.33203125 53.3125 C-39.99753543 47.32068193 -40.44246137 42.23451457 -39.6875 34.8125 C-37.36053014 29.89006376 -34.49575608 27.30248975 -29.6875 24.8125 C-25.73021751 23.59878283 -21.73037 22.69183723 -17.6875 21.8125 C-16.84058594 21.60496094 -15.99367188 21.39742187 -15.12109375 21.18359375 C-10.88533268 20.15869725 -7.08057112 19.5872143 -2.6875 19.8125 C-3.74876894 15.01688587 -3.74876894 15.01688587 -6.25 10.875 C-10.05265757 9.21743132 -13.61970134 9.01489242 -17.6875 9.8125 C-20.44319447 11.99409145 -22.12338747 13.68427494 -23.6875 16.8125 C-28.3075 16.8125 -32.9275 16.8125 -37.6875 16.8125 C-36.41306182 10.54651228 -35.19922383 6.31682023 -29.75390625 2.43359375 C-20.88768007 -3.27658127 -9.76030945 -4.64707271 0 0 Z " fill="#1C2F5F" transform="translate(1263.6875,1300.1875)"/>
<path d="M0 0 C4.62 0 9.24 0 14 0 C14.33 8.91 14.66 17.82 15 27 C16.65 25.35 18.3 23.7 20 22 C24.96553252 18.64573211 31.27175884 19.55002594 37 20 C42.85191717 21.88097338 46.03327203 25.68420032 49.12643433 30.89910889 C50.13249127 33.3186363 50.24141713 35.06208153 50.22705078 37.67675781 C50.22689972 38.59741028 50.22674866 39.51806274 50.22659302 40.46661377 C50.21627045 41.45216248 50.20594788 42.43771118 50.1953125 43.453125 C50.1924826 44.46848328 50.18965271 45.48384155 50.18673706 46.52996826 C50.17555001 49.77009916 50.15044791 53.00995276 50.125 56.25 C50.1149683 58.44791267 50.10584278 60.64582968 50.09765625 62.84375 C50.07561546 68.22927337 50.04109552 73.61458968 50 79 C45.38 79 40.76 79 36 79 C35.98541748 77.74864258 35.97083496 76.49728516 35.95581055 75.20800781 C35.89782073 70.56351197 35.8205877 65.91950061 35.73754883 61.27539062 C35.70430274 59.26570501 35.67626981 57.25592609 35.65356445 55.24609375 C35.62001278 52.35636653 35.56769663 49.46749407 35.51171875 46.578125 C35.50532883 45.68007141 35.4989389 44.78201782 35.49235535 43.85675049 C35.38743472 38.96644068 35.38743472 38.96644068 33.65551758 34.46386719 C31.12233259 32.22393544 28.95256722 31.99560808 25.625 31.6875 C21.34335673 32.05660718 19.92428304 32.90861508 17 36 C14.61183348 40.50287484 14.65729432 44.82549374 14.5859375 49.80078125 C14.56657135 50.63715622 14.5472052 51.47353119 14.5272522 52.33525085 C14.46769808 54.9942317 14.42116826 57.6532564 14.375 60.3125 C14.33679794 62.12046109 14.29774491 63.92840442 14.2578125 65.73632812 C14.16201655 70.15740698 14.07789669 74.57857101 14 79 C9.38 79 4.76 79 0 79 C0 52.93 0 26.86 0 0 Z " fill="#1C2F5F" transform="translate(647,1278)"/>
<path d="M0 0 C4.95 0 9.9 0 15 0 C17.52282119 6.75755676 19.83021853 13.52597165 21.91796875 20.4296875 C23.17122639 24.56498527 24.45820968 28.68911261 25.75 32.8125 C25.97292725 33.52494873 26.19585449 34.23739746 26.42553711 34.97143555 C26.95008146 36.64771028 27.47499856 38.32386837 28 40 C32.07173604 26.68699396 36.09735168 13.36361396 40 0 C44.95 0 49.9 0 55 0 C52.88918774 8.03727545 50.45028644 15.89250065 47.76171875 23.75390625 C47.35846878 24.93540756 46.95521881 26.11690887 46.53974915 27.33421326 C45.6903723 29.81651428 44.83895692 32.29811863 43.9855957 34.77905273 C42.69123865 38.55160328 41.41294489 42.32936463 40.13476562 46.10742188 C39.30307176 48.53158934 38.47042127 50.95542885 37.63671875 53.37890625 C37.26149582 54.49584366 36.88627289 55.61278107 36.49967957 56.76356506 C30.77283156 73.2342793 30.77283156 73.2342793 24.1171875 78.11328125 C20.39257229 79.17278959 16.95827209 79.33236203 13.125 79.1875 C12.43664063 79.17396484 11.74828125 79.16042969 11.0390625 79.14648438 C9.35902999 79.1114837 7.6794065 79.05768954 6 79 C6 75.04 6 71.08 6 67 C11.94 66.505 11.94 66.505 18 66 C20.6708127 57.095223 19.20777004 51.77865277 15.8203125 43.28125 C15.37356171 42.1015564 14.92681091 40.92186279 14.46652222 39.7064209 C13.28406628 36.59598885 12.08095251 33.49537505 10.86608887 30.39758301 C9.15296982 26.01108397 7.48358324 21.60764415 5.80490112 17.20788574 C4.91011672 14.87045205 4.00885551 12.53548574 3.10061646 10.20324707 C2.69374603 9.15455444 2.28687561 8.10586182 1.86767578 7.02539062 C1.50634552 6.1006897 1.14501526 5.17598877 0.7727356 4.2232666 C0 2 0 2 0 0 Z " fill="#1C2E5F" transform="translate(1508,1299)"/>
<path d="M0 0 C4.27524679 3.12822936 7.51011435 6.93909318 9.5625 11.875 C9.80300903 14.10235596 9.80300903 14.10235596 9.78955078 16.55175781 C9.78939972 17.47241028 9.78924866 18.39306274 9.78909302 19.34161377 C9.77877045 20.32716248 9.76844788 21.31271118 9.7578125 22.328125 C9.7549826 23.34348328 9.75215271 24.35884155 9.74923706 25.40496826 C9.73805001 28.64509916 9.71294791 31.88495276 9.6875 35.125 C9.6774683 37.32291267 9.66834278 39.52082968 9.66015625 41.71875 C9.63811546 47.10427337 9.60359552 52.48958968 9.5625 57.875 C4.9425 57.875 0.3225 57.875 -4.4375 57.875 C-4.45208252 56.62364258 -4.46666504 55.37228516 -4.48168945 54.08300781 C-4.53967927 49.43851197 -4.6169123 44.79450061 -4.69995117 40.15039062 C-4.73319726 38.14070501 -4.76123019 36.13092609 -4.78393555 34.12109375 C-4.81748722 31.23136653 -4.86980337 28.34249407 -4.92578125 25.453125 C-4.93217117 24.55507141 -4.9385611 23.65701782 -4.94514465 22.73175049 C-5.05006528 17.84144068 -5.05006528 17.84144068 -6.78198242 13.33886719 C-9.31516741 11.09893544 -11.48493278 10.87060808 -14.8125 10.5625 C-19.07526957 10.92998014 -20.49041871 11.84371639 -23.4375 14.875 C-26.18486745 18.79014957 -25.78775256 23.19844226 -25.8515625 27.796875 C-25.87092865 28.65686096 -25.8902948 29.51684692 -25.9102478 30.40289307 C-25.96991814 33.14349521 -26.0163786 35.88413964 -26.0625 38.625 C-26.10069134 40.48569517 -26.13974375 42.34637288 -26.1796875 44.20703125 C-26.27560935 48.76287864 -26.35968668 53.31880879 -26.4375 57.875 C-31.0575 57.875 -35.6775 57.875 -40.4375 57.875 C-40.4375 38.735 -40.4375 19.595 -40.4375 -0.125 C-35.8175 -0.125 -31.1975 -0.125 -26.4375 -0.125 C-26.1075 1.525 -25.7775 3.175 -25.4375 4.875 C-24.53 4.070625 -23.6225 3.26625 -22.6875 2.4375 C-16.7689195 -2.80851453 -7.15714038 -2.34233685 0 0 Z " fill="#1C2E5E" transform="translate(912.4375,1299.125)"/>
<path d="M0 0 C4.90366743 3.00831732 7.5858455 6.89313472 10 12 C10 13.32 10 14.64 10 16 C7.89758397 16.13496251 5.7927039 16.23197307 3.6875 16.3125 C2.51574219 16.37050781 1.34398437 16.42851563 0.13671875 16.48828125 C-1.41595703 16.24658203 -1.41595703 16.24658203 -3 16 C-4.66796875 13.60546875 -4.66796875 13.60546875 -6 11 C-8.97845508 8.93560107 -11.48544616 8.72841898 -15.0625 8.75 C-15.91972656 8.74484375 -16.77695312 8.7396875 -17.66015625 8.734375 C-20.27052798 8.85007512 -20.27052798 8.85007512 -23 11 C-22.67 12.98 -22.34 14.96 -22 17 C-20.81664062 17.31453125 -19.63328125 17.6290625 -18.4140625 17.953125 C6.16133149 24.56237717 6.16133149 24.56237717 11.00390625 30.94140625 C13.45195095 36.00069863 12.62406468 41.16247621 10.875 46.3125 C7.10413745 51.71740298 2.23764903 55.00568718 -4 57 C-12.85910664 58.00240656 -22.32526429 58.05513035 -30 53 C-34.86120821 48.73951143 -37.92900179 44.09117119 -40 38 C-40 37.34 -40 36.68 -40 36 C-35.28637435 35.65971152 -30.70227815 35.45575484 -26 36 C-23.25 38.875 -23.25 38.875 -22 42 C-19.38290108 44.61709892 -17.4149545 44.91530202 -13.78125 45.1328125 C-12.65203125 45.12894531 -12.65203125 45.12894531 -11.5 45.125 C-10.7471875 45.12757812 -9.994375 45.13015625 -9.21875 45.1328125 C-7.026465 45.00158417 -5.10680863 44.60331338 -3 44 C-2.58274322 40.62599422 -2.58274322 40.62599422 -3 37 C-6.83047016 33.96508902 -11.13635095 33.08178681 -15.8125 32.0625 C-23.96289763 30.14122933 -31.10546719 28.43968988 -36 21 C-37.84581616 17.30836767 -37.34502398 13.03805842 -37 9 C-34.93606484 3.84016209 -30.66683522 0.31967103 -25.7265625 -2.125 C-17.64954928 -4.71705009 -7.55402132 -3.87825012 0 0 Z " fill="#1D3060" transform="translate(1038,1301)"/>
<path d="M0 0 C3.43961741 2.76742607 6.1740769 5.48401197 8.00390625 9.57421875 C8.00390625 10.89421875 8.00390625 12.21421875 8.00390625 13.57421875 C-5.57517232 14.49657126 -5.57517232 14.49657126 -9 12.2734375 C-10.24609375 10.63671875 -10.24609375 10.63671875 -11.99609375 7.57421875 C-16.07764264 6.21370245 -19.76197424 5.77304884 -23.90234375 7.2578125 C-28.40041573 9.55449756 -30.09623851 11.76573558 -31.99609375 16.57421875 C-32.30597465 19.34360483 -32.46210223 21.81667083 -32.43359375 24.57421875 C-32.45357422 25.26 -32.47355469 25.94578125 -32.49414062 26.65234375 C-32.4884021 32.66631914 -30.24195522 35.96901945 -26.43359375 40.38671875 C-23.03051741 43.19795573 -19.18024561 42.85789006 -14.99609375 42.57421875 C-9.17944014 40.56076173 -8.97436584 39.53076293 -5.99609375 33.57421875 C-1.04609375 33.57421875 3.90390625 33.57421875 9.00390625 33.57421875 C7.66428614 40.27231932 5.00996581 44.47485409 0.31640625 49.38671875 C-7.60960887 54.62087968 -16.64391994 55.81200646 -25.99609375 54.57421875 C-29.64560445 53.32465802 -32.75867209 51.65541839 -35.99609375 49.57421875 C-36.90359375 49.03796875 -37.81109375 48.50171875 -38.74609375 47.94921875 C-46.17337578 40.10930994 -48.38661382 31.41641089 -48.26953125 20.9609375 C-47.56116697 12.18733992 -43.44480949 5.4280844 -36.99609375 -0.42578125 C-26.2016793 -8.36623538 -10.66157928 -7.61541377 0 0 Z " fill="#1E3060" transform="translate(1206.99609375,1303.42578125)"/>
<path d="M0 0 C4.62 0 9.24 0 14 0 C14 6.93 14 13.86 14 21 C17.63 21 21.26 21 25 21 C25 24.63 25 28.26 25 32 C21.37 32 17.74 32 14 32 C14.09343603 36.66344559 14.19950614 41.32636586 14.31738281 45.98925781 C14.35570585 47.57609138 14.39055288 49.16301281 14.421875 50.75 C14.46745431 53.02896566 14.52545838 55.30732468 14.5859375 57.5859375 C14.59748871 58.29744965 14.60903992 59.00896179 14.62094116 59.74203491 C14.63408239 63.82103657 14.63408239 63.82103657 17 67 C19.65537372 67.56520003 22.29144713 67.73788198 25 68 C25 71.63 25 75.26 25 79 C22.29057607 79.10861833 19.585561 79.18758577 16.875 79.25 C16.11445312 79.28351563 15.35390625 79.31703125 14.5703125 79.3515625 C9.24861843 79.44331585 6.12396148 78.68524217 2 75 C-0.4655514 70.50550526 -0.25918148 66.18246378 -0.1953125 61.19921875 C-0.19106766 59.9446563 -0.19106766 59.9446563 -0.18673706 58.66474915 C-0.1755832 56.00551774 -0.15048763 53.34662882 -0.125 50.6875 C-0.11496399 48.87956217 -0.10583923 47.07161904 -0.09765625 45.26367188 C-0.07565959 40.84231688 -0.04116294 36.42121642 0 32 C-2.64 32 -5.28 32 -8 32 C-8 28.37 -8 24.74 -8 21 C-5.36 21 -2.72 21 0 21 C0 14.07 0 7.14 0 0 Z " fill="#1B2D5E" transform="translate(714,1278)"/>
<path d="M0 0 C0 4.29 0 8.58 0 13 C-1.7325 13.2475 -3.465 13.495 -5.25 13.75 C-8.74396803 14.3868979 -10.67251152 14.76037428 -13.5625 16.875 C-16.81245482 21.67928103 -17.32707588 25.49113935 -17.4140625 31.265625 C-17.43342865 32.05902283 -17.4527948 32.85242065 -17.4727478 33.66986084 C-17.53238361 36.19646557 -17.57886443 38.72311625 -17.625 41.25 C-17.66319455 42.96616537 -17.70224715 44.68231187 -17.7421875 46.3984375 C-17.83807186 50.59880456 -17.92216167 54.79926134 -18 59 C-22.62 59 -27.24 59 -32 59 C-32 39.86 -32 20.72 -32 1 C-27.38 1 -22.76 1 -18 1 C-18 2.65 -18 4.3 -18 6 C-17.18208984 5.3503125 -17.18208984 5.3503125 -16.34765625 4.6875 C-10.58262488 0.43024607 -7.14099513 -0.68009477 0 0 Z " fill="#1D3060" transform="translate(546,1298)"/>
<path d="M0 0 C4.68788787 1.71288211 7.25914806 3.83796557 10 8 C11.97050827 13.99087413 12.22293785 21.59475065 10.09375 27.5234375 C7.55775443 31.89640422 4.92798902 34.45396423 0 36 C-4.36721945 36.69140348 -7.23412252 36.36821033 -11.25 34.4375 C-15.7496656 30.44916004 -17.69983755 27.60344985 -18.3828125 21.6796875 C-18.60674827 14.64810444 -18.55303699 9.51157109 -14 4 C-9.50989363 0.02013299 -5.79148979 -0.94980433 0 0 Z " fill="#FBFBFC" transform="translate(1317,1310)"/>
<path d="M0 0 C5.20588572 1.76803666 7.36844831 4.22422101 10 9 C11.952897 15.21021245 12.06967293 22.44199499 9.4375 28.4375 C7.12506773 32.38891936 4.35105954 34.58789143 0 36 C-4.23576965 36.78652589 -7.34853186 36.32573407 -11.25 34.375 C-15.46242927 30.73699291 -17.7636341 27.72408065 -18.53125 22.125 C-18.54174618 20.7500006 -18.53100804 19.37468979 -18.5 18 C-18.51546875 17.31421875 -18.5309375 16.6284375 -18.546875 15.921875 C-18.49857233 9.5942256 -15.96343866 6.1317334 -11.8125 1.625 C-7.82064334 -0.68140607 -4.50478565 -0.64467781 0 0 Z " fill="#FBFBFC" transform="translate(965,1310)"/>
<path d="M0 0 C4.70600353 1.68705787 7.25581658 3.83290666 10 8 C11.98551012 14.08889771 12.37783556 22.20728764 9.4375 28 C6.14989226 32.04628646 3.16255351 34.3400971 -1.984375 35.4140625 C-6.75302592 35.76524222 -9.85745772 34.48634763 -13.5234375 31.46484375 C-17.59504577 27.42554983 -18.20207897 23.60980649 -18.375 18.0625 C-18.17045692 11.1762163 -17.05795746 7.3029524 -12.375 2.0625 C-8.03073804 -0.59232675 -4.96218115 -0.81069746 0 0 Z " fill="#FBFBFC" transform="translate(611,1310)"/>
<path d="M0 0 C4.62 0 9.24 0 14 0 C14 19.14 14 38.28 14 58 C9.38 58 4.76 58 0 58 C0 38.86 0 19.72 0 0 Z " fill="#1D305F" transform="translate(845,1299)"/>
<path d="M0 0 C4.62 0 9.24 0 14 0 C14 19.14 14 38.28 14 58 C9.38 58 4.76 58 0 58 C0 38.86 0 19.72 0 0 Z " fill="#1C2E5F" transform="translate(554,1299)"/>
<path d="M0 0 C3.70877584 -0.08114826 7.41576511 -0.14057594 11.125 -0.1875 C12.17171875 -0.21263672 13.2184375 -0.23777344 14.296875 -0.26367188 C19.91167825 -0.31697697 24.23349467 -0.35218162 29 3 C31.48386059 6.72579089 31.3804212 8.58711402 31 13 C29.66742338 16.25740951 28.50473693 17.65831932 25.59375 19.62890625 C20.55352186 21.55186285 15.96614191 21.32189002 10.625 21.1875 C9.09166016 21.16719727 9.09166016 21.16719727 7.52734375 21.14648438 C5.01800067 21.11130667 2.50893071 21.0575052 0 21 C0 14.07 0 7.14 0 0 Z " fill="#FAFAFB" transform="translate(457,1323)"/>
<path d="M0 0 C3.2296738 -0.08111739 6.45730014 -0.14055592 9.6875 -0.1875 C11.05551758 -0.22520508 11.05551758 -0.22520508 12.45117188 -0.26367188 C17.47061326 -0.31842942 20.93859476 -0.30840308 25 3 C27 5 27 5 27.3125 8.3125 C26.98064203 12.22842406 26.48865133 13.99645529 24 17 C19.29000098 19.65857367 14.42641939 19.22579133 9.1875 19.125 C6.155625 19.08375 3.12375 19.0425 0 19 C0 12.73 0 6.46 0 0 Z " fill="#FCFCFD" transform="translate(457,1292)"/>
<path d="M0 0 C2 1 2 1 2.73022461 2.71484375 C2.95202393 3.44832031 3.17382324 4.18179687 3.40234375 4.9375 C3.77842773 6.15759766 3.77842773 6.15759766 4.16210938 7.40234375 C4.41798828 8.25957031 4.67386719 9.11679688 4.9375 10 C5.44588797 11.66688845 5.95500058 13.33355607 6.46484375 15 C6.71476074 15.82757812 6.96467773 16.65515625 7.22216797 17.5078125 C8.2179122 20.69819451 9.32229715 23.84675905 10.45141602 26.9921875 C11 29 11 29 11 33 C4.07 33 -2.86 33 -10 33 C-7.75 22.875 -7.75 22.875 -6.0546875 17.87109375 C-5.70019531 16.81728516 -5.34570312 15.76347656 -4.98046875 14.67773438 C-4.43326172 13.07381836 -4.43326172 13.07381836 -3.875 11.4375 C-3.50246094 10.33341797 -3.12992188 9.22933594 -2.74609375 8.09179688 C-1.83484757 5.39310627 -0.91940476 2.69591967 0 0 Z " fill="#F4F4F7" transform="translate(1118,1295)"/>
<path d="M0 0 C0.31344001 5.22400016 0.07333261 8.67812602 -3 13 C-8.0696527 16.76436281 -12.80510469 17.72273779 -19 17 C-21.5 15.9375 -21.5 15.9375 -23 14 C-23.73420739 8.12634088 -23.73420739 8.12634088 -21.96875 5.41796875 C-18.97079475 3.25872717 -15.60514811 2.62759451 -12.0625 1.8125 C-10.98838867 1.54663086 -10.98838867 1.54663086 -9.89257812 1.27539062 C-6.47389223 0.45477927 -3.53526493 0 0 0 Z " fill="#F7F8F9" transform="translate(1261,1330)"/>
<path d="M0 0 C4.15400065 1.51054569 6.8564759 3.07020582 9 7 C9 8.32 9 9.64 9 11 C0.09 11 -8.82 11 -18 11 C-16.91910497 5.59552487 -15.98080159 4.49533798 -12 1 C-8.30746735 -0.84626633 -4.03862696 -0.34740877 0 0 Z " fill="#FAFBFC" transform="translate(1385,1309)"/>
<path d="M0 0 C3.0625 2.0625 3.0625 2.0625 5 5 C5 8.50718205 4.87837496 10.84930211 2.71484375 13.68359375 C-0.03168447 15.79197646 -2.48536523 15.47471699 -5.8359375 15.34375 C-8 15 -8 15 -10.5625 13.4375 C-12.56331202 10.04481874 -12.55326548 7.87285839 -12 4 C-9.16483673 -0.60714032 -5.04704965 -1.13708233 0 0 Z " fill="#1E3160" transform="translate(856,1277)"/>
<path d="M0 0 C2.9375 1.5625 2.9375 1.5625 5 4 C5.63210717 7.93311127 5.60020266 10.02467068 3.5 13.4375 C0.02348669 15.61032082 -3.07516031 15.88425242 -7 15 C-10.0625 12.9375 -10.0625 12.9375 -12 10 C-12.06584389 6.18105459 -11.85572029 4.02028188 -9.375 1.0625 C-6.00997209 -0.44290722 -3.64962568 -0.44819965 0 0 Z " fill="#1E3060" transform="translate(564,1277)"/>
<path d="M0 0 C12.47509487 0.51170828 24.66901453 2.08812171 37 4 C37 4.33 37 4.66 37 5 C4.37162954 3.45720985 4.37162954 3.45720985 0 2 C0 1.34 0 0.68 0 0 Z " fill="#BCC2D0" transform="translate(786,1123)"/>
<path d="M0 0 C5.8289112 1.47169673 11.47179717 3.48767134 17.12890625 5.5078125 C18.18529297 5.88035156 19.24167969 6.25289062 20.33007812 6.63671875 C22.91052942 7.54746627 25.48920769 8.46290955 28.06640625 9.3828125 C24.09068088 10.96346983 20.79240579 9.70949627 16.89453125 8.51171875 C15.87090485 8.20994972 15.87090485 8.20994972 14.82659912 7.90208435 C12.65363333 7.25915244 10.48511056 6.60245922 8.31640625 5.9453125 C6.84141776 5.50624691 5.36615989 5.06808521 3.890625 4.63085938 C0.27934565 3.55862968 -3.3280123 2.47404191 -6.93359375 1.3828125 C-3.93359375 -0.6171875 -3.93359375 -0.6171875 0 0 Z " fill="#CBCFDA" transform="translate(780.93359375,1074.6171875)"/>
<path d="M0 0 C-3.60759039 4.10748575 -8.4381309 5.36725172 -13.4375 7.25 C-14.39205078 7.62640625 -15.34660156 8.0028125 -16.33007812 8.390625 C-17.25111328 8.74125 -18.17214844 9.091875 -19.12109375 9.453125 C-19.9608374 9.77442383 -20.80058105 10.09572266 -21.66577148 10.42675781 C-24.20599115 11.05058751 -25.56091737 10.85857957 -28 10 C-23.90281468 8.13011673 -19.79624404 6.28182961 -15.6875 4.4375 C-14.52025391 3.90447266 -13.35300781 3.37144531 -12.15039062 2.82226562 C-11.03212891 2.32275391 -9.91386719 1.82324219 -8.76171875 1.30859375 C-7.73006592 0.84251709 -6.69841309 0.37644043 -5.63549805 -0.10375977 C-3 -1 -3 -1 0 0 Z " fill="#E3E5EB" transform="translate(1235,1054)"/>
<path d="M0 0 C0.33 0.66 0.66 1.32 1 2 C-3.39494155 2.67263581 -7.79108538 3.33706636 -12.1875 4 C-13.43337891 4.19078125 -14.67925781 4.3815625 -15.96289062 4.578125 C-17.7659668 4.84882812 -17.7659668 4.84882812 -19.60546875 5.125 C-20.71043701 5.29257813 -21.81540527 5.46015625 -22.95385742 5.6328125 C-25.67689233 5.96105202 -28.26184109 6.07129462 -31 6 C-25.85162531 3.11737053 -20.10450001 2.4397727 -14.375 1.3125 C-12.63863281 0.95575195 -12.63863281 0.95575195 -10.8671875 0.59179688 C-9.76375 0.37201172 -8.6603125 0.15222656 -7.5234375 -0.07421875 C-6.51200684 -0.27619873 -5.50057617 -0.47817871 -4.45849609 -0.6862793 C-2 -1 -2 -1 0 0 Z " fill="#C7CCD7" transform="translate(1215,1108)"/>
<path d="M0 0 C0 0.66 0 1.32 0 2 C0.66 2.33 1.32 2.66 2 3 C-2.39388136 4.00871032 -6.7903952 5.00544344 -11.1875 6 C-12.43337891 6.28617188 -13.67925781 6.57234375 -14.96289062 6.8671875 C-16.16494141 7.13789062 -17.36699219 7.40859375 -18.60546875 7.6875 C-19.71043701 7.93886719 -20.81540527 8.19023438 -21.95385742 8.44921875 C-24.7228135 8.94988116 -27.19631111 9.10950127 -30 9 C-26.98816838 6.99211225 -24.76772984 6.2334729 -21.30859375 5.2734375 C-20.19935547 4.9640625 -19.09011719 4.6546875 -17.94726562 4.3359375 C-16.78904297 4.01882813 -15.63082031 3.70171875 -14.4375 3.375 C-12.69436523 2.88773438 -12.69436523 2.88773438 -10.91601562 2.390625 C-2.28264509 0 -2.28264509 0 0 0 Z " fill="#C0C5D2" transform="translate(1217,1091)"/>
<path d="M0 0 C4.22922552 0.81219387 8.45837007 1.62480854 12.6875 2.4375 C14.48477539 2.78264648 14.48477539 2.78264648 16.31835938 3.13476562 C17.47529297 3.35712891 18.63222656 3.57949219 19.82421875 3.80859375 C21.41882935 4.11494751 21.41882935 4.11494751 23.0456543 4.42749023 C25.69919587 4.94170848 28.35025152 5.46662298 31 6 C31 6.33 31 6.66 31 7 C24.06100976 7.32606122 17.39704858 6.1036696 10.5625 5 C9.35400391 4.80921875 8.14550781 4.6184375 6.90039062 4.421875 C3.93280089 3.95269085 0.9660839 3.47859566 -2 3 C-1.34 2.01 -0.68 1.02 0 0 Z " fill="#BFC4D2" transform="translate(788,1107)"/>
<path d="M0 0 C5.72439171 0.42265586 11.21595656 1.97059358 16.75 3.4375 C18.02423828 3.76331055 18.02423828 3.76331055 19.32421875 4.09570312 C20.14019531 4.31033203 20.95617187 4.52496094 21.796875 4.74609375 C22.53260742 4.93872803 23.26833984 5.1313623 24.02636719 5.32983398 C26 6 26 6 29 8 C22.21304565 7.29030646 15.65576279 5.92442573 9 4.4375 C7.93910156 4.20353516 6.87820313 3.96957031 5.78515625 3.72851562 C3.18937106 3.15557205 0.59436646 2.57932765 -2 2 C-1.34 1.34 -0.68 0.68 0 0 Z " fill="#BFC5D2" transform="translate(784,1092)"/>
<path d="M0 0 C0 0.66 0 1.32 0 2 C-3.59952042 3.20191984 -7.20524257 4.38402448 -10.8125 5.5625 C-11.83666016 5.90474609 -12.86082031 6.24699219 -13.91601562 6.59960938 C-15.39038086 7.07817383 -15.39038086 7.07817383 -16.89453125 7.56640625 C-17.80050049 7.86490479 -18.70646973 8.16340332 -19.63989258 8.47094727 C-22 9 -22 9 -25 8 C-21.39870379 6.65882147 -17.79352141 5.3284161 -14.1875 4 C-13.16333984 3.6184375 -12.13917969 3.236875 -11.08398438 2.84375 C-10.10107422 2.4828125 -9.11816406 2.121875 -8.10546875 1.75 C-7.19949951 1.41484375 -6.29353027 1.0796875 -5.36010742 0.734375 C-3 0 -3 0 0 0 Z " fill="#C8CCD8" transform="translate(1217,1076)"/>
<path d="M0 0 C0 0.66 0 1.32 0 2 C-7.68483539 2.67453101 -15.28410183 3.1567564 -23 3 C-23 2.67 -23 2.34 -23 2 C-19.91879316 1.4660256 -16.83482141 0.95014449 -13.75 0.4375 C-12.44095703 0.21030273 -12.44095703 0.21030273 -11.10546875 -0.02148438 C-10.26113281 -0.16005859 -9.41679688 -0.29863281 -8.546875 -0.44140625 C-7.77182617 -0.57232666 -6.99677734 -0.70324707 -6.19824219 -0.83813477 C-3.88826153 -1.00822774 -2.19914787 -0.68559092 0 0 Z " fill="#D2D6DF" transform="translate(1211,1124)"/>
<path d="M0 0 C0.66 0.66 1.32 1.32 2 2 C-1.63 2.33 -5.26 2.66 -9 3 C-9 2.34 -9 1.68 -9 1 C-5.60805912 -0.60174986 -3.55768883 -1.4721471 0 0 Z " fill="#E1E4EA" transform="translate(1226,1090)"/>
<path d="M0 0 C0 0.66 0 1.32 0 2 C-2.64 2.66 -5.28 3.32 -8 4 C-8 3.01 -8 2.02 -8 1 C-2.25 -1.125 -2.25 -1.125 0 0 Z " fill="#EAECF0" transform="translate(1225,1074)"/>
<path d="M0 0 C0.81210937 0.29003906 1.62421875 0.58007812 2.4609375 0.87890625 C3.27820313 1.16636719 4.09546875 1.45382812 4.9375 1.75 C5.56398438 1.97816406 6.19046875 2.20632813 6.8359375 2.44140625 C6.8359375 2.77140625 6.8359375 3.10140625 6.8359375 3.44140625 C5.5778125 3.31765625 4.3196875 3.19390625 3.0234375 3.06640625 C1.96189453 2.96199219 1.96189453 2.96199219 0.87890625 2.85546875 C-1.1640625 2.44140625 -1.1640625 2.44140625 -4.1640625 0.44140625 C-2.1640625 -0.55859375 -2.1640625 -0.55859375 0 0 Z " fill="#E7E9EE" transform="translate(777.1640625,1057.55859375)"/>
<path d="M0 0 C-2.39509338 2.89932357 -4.31245243 3.50168276 -8 4 C-7 1 -7 1 -5.125 -0.25 C-3 -1 -3 -1 0 0 Z " fill="#EFF1F4" transform="translate(1235,1054)"/>
<path d="M0 0 C0.928125 0.20625 1.85625 0.4125 2.8125 0.625 C2.8125 1.285 2.8125 1.945 2.8125 2.625 C-0.1575 2.295 -3.1275 1.965 -6.1875 1.625 C-3.1875 -0.375 -3.1875 -0.375 0 0 Z " fill="#E4E6EC" transform="translate(780.1875,1074.375)"/>
</svg>
