<?xml version="1.0" encoding="UTF-8"?>
<svg version="1.1" xmlns="http://www.w3.org/2000/svg" width="2000" height="2000">
<path d="M0 0 C660 0 1320 0 2000 0 C2000 660 2000 1320 2000 2000 C1340 2000 680 2000 0 2000 C0 1340 0 680 0 0 Z " fill="#FEFEFE" transform="translate(0,0)"/>
<path d="M0 0 C1.14662109 -0.04253906 1.14662109 -0.04253906 2.31640625 -0.0859375 C10.64946292 -0.11423311 16.2352046 4.29247556 21.99111205 9.96954393 C22.53773236 10.52353853 23.08435267 11.07753312 23.64753723 11.64831543 C24.25253813 12.24934192 24.85753903 12.85036841 25.48087329 13.46960783 C27.48765797 15.46683881 29.4836326 17.47452037 31.47973633 19.48242188 C32.92367822 20.92393359 34.36826535 22.36479922 35.81344604 23.80506897 C39.72287622 27.70511968 43.62286859 31.61448222 47.52093339 35.52588844 C51.60532709 39.62162225 55.69745534 43.70961554 59.78849792 47.79870605 C66.65385054 54.66317676 73.51320746 61.53359368 80.36889648 68.40771484 C88.29470136 76.35470678 96.22932092 84.29281167 104.16884214 92.22609854 C111.81098248 99.8625453 119.44744121 107.5046482 127.08112144 115.14955139 C130.32850752 118.40158137 133.57776933 121.65172004 136.82853127 124.90037537 C140.65399145 128.72395251 144.47442053 132.55248706 148.29101181 136.38491631 C149.69255766 137.79070544 151.09580397 139.19480158 152.50086403 140.59707832 C154.41770254 142.51069516 156.32827928 144.43035356 158.23738098 146.35168457 C159.07404186 147.18267646 159.07404186 147.18267646 159.92760497 148.03045607 C164.50045547 152.65528437 167.55307595 156.29354736 167.5625 162.9375 C167.59150391 164.29681641 167.59150391 164.29681641 167.62109375 165.68359375 C166.5087271 171.99868315 161.44734291 176.46792752 157.05897522 180.82672119 C156.15259179 181.73884294 156.15259179 181.73884294 155.22789758 182.66939139 C153.21142345 184.69614567 151.18791451 186.71572181 149.16430664 188.73535156 C147.71331229 190.19069501 146.26273587 191.64645524 144.81254578 193.1026001 C140.8793317 197.0491908 136.93975019 200.98936605 132.9985764 204.92800617 C129.70878645 208.21672599 126.42197872 211.50841835 123.13512033 214.80006766 C115.38319983 222.5630777 107.6259694 230.32075361 99.86547852 238.07519531 C91.85648657 246.07814046 83.85673052 254.09023379 75.86140925 262.10683465 C68.99622231 268.98962134 62.12525966 275.86660435 55.2496385 282.73896766 C51.14318229 286.84360903 47.03899413 290.9504558 42.94038582 295.06293488 C39.08850261 298.92736604 35.22947148 302.78451206 31.36477852 306.63613129 C29.94681427 308.051724 28.5314115 309.46988776 27.11875534 310.89077759 C25.19202098 312.82793132 23.25630201 314.75563582 21.31800842 316.68121338 C20.75944076 317.24715533 20.2008731 317.81309727 19.62537915 318.39618897 C13.32443439 324.61031664 8.11726043 324.86334864 -0.3125 324.875 C-1.24126953 324.89949219 -2.17003906 324.92398437 -3.12695312 324.94921875 C-4.03251953 324.95308594 -4.93808594 324.95695312 -5.87109375 324.9609375 C-6.68763428 324.96915527 -7.5041748 324.97737305 -8.34545898 324.98583984 C-14.48340139 323.80694732 -18.95063963 318.71237669 -23.20172119 314.42724609 C-23.80980236 313.82228491 -24.41788352 313.21732372 -25.04439139 312.59403038 C-27.07114898 310.57522017 -29.09071804 308.54937277 -31.11035156 306.5234375 C-32.56568712 305.07081318 -34.02144756 303.61861443 -35.4776001 302.16680908 C-39.42409141 298.22942646 -43.36424103 294.28575454 -47.30300617 290.34064484 C-51.42571475 286.21287037 -55.55330343 282.08998049 -59.68011475 277.96630859 C-66.60707777 271.04298266 -73.52981622 264.1154535 -80.45019531 257.18554688 C-88.45469533 249.17015424 -96.46638651 241.16200364 -104.48183465 233.15756035 C-111.36289571 226.28556919 -118.24005913 219.40969572 -125.11396766 212.53055 C-129.2198887 208.42150874 -133.3271543 204.31383596 -137.43793488 200.20965576 C-141.30019497 196.35316445 -145.15754593 192.49182977 -149.01113129 188.62667084 C-150.42760092 187.20755249 -151.84578306 185.79014114 -153.26577759 184.37454987 C-155.20057792 182.44519773 -157.12913897 180.50981838 -159.05621338 178.57275391 C-159.62215533 178.0112734 -160.18809727 177.4497929 -160.77118897 176.87129784 C-165.13521714 172.46314503 -167.16200149 169.46245658 -167.375 163.25 C-167.45234375 161.91195312 -167.45234375 161.91195312 -167.53125 160.546875 C-165.41338487 150.71392974 -153.78236053 142.1188657 -146.88671875 135.23706055 C-145.45675746 133.80274741 -144.0272132 132.36801843 -142.59805298 130.9329071 C-138.73098808 127.05249675 -134.85758917 123.17846931 -130.98257828 119.3059957 C-127.74497315 116.06946259 -124.51035454 112.82995277 -121.27567959 109.59049159 C-113.64641526 101.95014903 -106.01185553 94.31512648 -98.37402344 86.68334961 C-90.49679295 78.81216805 -82.6288052 70.9318329 -74.76524258 63.04699868 C-68.00700919 56.27115741 -61.24299159 49.50112877 -54.47432041 42.73571426 C-50.43437343 38.69758043 -46.39668512 34.65725163 -42.36459351 30.61127281 C-38.57588685 26.8100046 -34.78001329 23.01604271 -30.97849655 19.22758675 C-29.58514059 17.83659915 -28.19433719 16.44304922 -26.80629349 15.04676056 C-24.91068165 13.14070285 -23.0060506 11.24413413 -21.09887695 9.34965515 C-20.55236827 8.79577218 -20.00585958 8.24188921 -19.44279003 7.67122191 C-13.3425733 1.65606635 -8.25538714 -0.0275639 0 0 Z " fill="#134B70" transform="translate(999.875,409.5)"/>
<path d="M0 0 C1.14662109 -0.04253906 1.14662109 -0.04253906 2.31640625 -0.0859375 C10.667932 -0.11429582 16.25508706 4.31189726 22.02194726 10.00037915 C22.57314064 10.55894681 23.12433402 11.11751447 23.69223022 11.69300842 C24.30202024 12.29882403 24.91181026 12.90463964 25.54007876 13.5288133 C27.56301697 15.54219677 29.57514528 17.56603362 31.58740234 19.59008789 C33.04281881 21.04307424 34.49888052 22.4954145 35.95553589 23.94715881 C39.89588949 27.87813295 43.82680601 31.81841919 47.75579405 35.7607491 C51.87135321 39.88764626 55.99464472 44.00680514 60.11685181 48.12705994 C67.03347895 55.0428052 73.94411052 61.96449691 80.85107422 68.88989258 C88.83937892 76.89939251 96.83650764 84.89999663 104.83853185 92.89578825 C112.53833907 100.58990508 120.23247011 108.2896728 127.92381668 115.99224663 C131.19714734 119.27022458 134.47235791 122.54630717 137.7490654 125.8209095 C141.60324846 129.67321167 145.45241113 133.53046094 149.29771805 137.39162254 C150.71096914 138.80912233 152.1259279 140.22492188 153.54269409 141.63890839 C155.47301549 143.56601602 157.39709314 145.49914732 159.31967163 147.43397522 C159.88424934 147.9947736 160.44882704 148.55557199 161.03051317 149.13336426 C165.03748306 153.18574774 167.40716263 156.11089983 167.4375 161.875 C167.45425781 162.60460937 167.47101563 163.33421875 167.48828125 164.0859375 C166.53004521 170.45357057 162.51538472 174.54068472 158.13453674 178.86468506 C157.52634643 179.47684978 156.91815612 180.0890145 156.29153579 180.71972966 C154.25814474 182.76272109 152.21423687 184.79484671 150.17016602 186.82714844 C148.70762185 188.29212126 147.2457238 189.75773935 145.78442383 191.22395325 C141.81821952 195.19955867 137.84267108 199.16569656 133.86510968 203.12993526 C129.70484502 207.27888196 125.55229795 211.4355402 121.39866638 215.59112549 C114.42389047 222.56678411 107.44315915 229.5364387 100.45874023 236.50244141 C92.37998937 244.56001262 84.31011639 252.62639056 76.24506813 260.69767547 C68.48901911 268.45941531 60.72731787 276.21547783 52.96281242 283.96875763 C49.65692305 287.26999857 46.35293038 290.57312088 43.05041695 293.87773895 C39.16366891 297.76636803 35.27197266 301.64997628 31.37636566 305.52972984 C29.94596701 306.95587962 28.51726887 308.38373727 27.09038353 309.81340218 C25.14565293 311.76134642 23.1948979 313.7030481 21.2424469 315.64324951 C20.67639333 316.21308241 20.11033976 316.7829153 19.52713305 317.37001586 C13.15630327 323.67009134 8.89342657 323.86373086 0.25 323.875 C-0.73097656 323.89949219 -1.71195313 323.92398437 -2.72265625 323.94921875 C-3.67785156 323.95308594 -4.63304687 323.95695312 -5.6171875 323.9609375 C-6.4819873 323.96915527 -7.34678711 323.97737305 -8.23779297 323.98583984 C-14.43983215 322.84326829 -18.91207665 317.75272461 -23.20172119 313.43397522 C-24.11384294 312.52759179 -24.11384294 312.52759179 -25.04439139 311.60289758 C-27.07114567 309.58642345 -29.09072181 307.56291451 -31.11035156 305.53930664 C-32.56569501 304.08831229 -34.02145524 302.63773587 -35.4776001 301.18754578 C-39.4241908 297.2543317 -43.36436605 293.31475019 -47.30300617 289.3735764 C-50.59172599 286.08378645 -53.88341835 282.79697872 -57.17506766 279.51012033 C-64.9380777 271.75819983 -72.69575361 264.0009694 -80.45019531 256.24047852 C-88.45314046 248.23148657 -96.46523379 240.23173052 -104.48183465 232.23640925 C-111.36462134 225.37122231 -118.24160435 218.50025966 -125.11396766 211.6246385 C-129.21860903 207.51818229 -133.3254558 203.41399413 -137.43793488 199.31538582 C-141.30236604 195.46350261 -145.15951206 191.60447148 -149.01113129 187.73977852 C-150.426724 186.32181427 -151.84488776 184.9064115 -153.26577759 183.49375534 C-155.20293132 181.56702098 -157.13063582 179.63130201 -159.05621338 177.69300842 C-159.62215533 177.13444076 -160.18809727 176.5758731 -160.77118897 176.00037915 C-164.97381113 171.73904249 -167.14284274 168.07402207 -167.25 162.0625 C-167.27835938 161.34191406 -167.30671875 160.62132812 -167.3359375 159.87890625 C-166.17059898 153.86457442 -161.00626427 149.34229251 -156.81570435 145.18000793 C-156.21215429 144.57263233 -155.60860424 143.96525673 -154.98676479 143.33947581 C-152.9726246 141.31505549 -150.95144969 139.2978134 -148.93017578 137.28051758 C-147.48080397 135.82679662 -146.03185008 134.3726589 -144.58328247 132.9181366 C-140.65413369 128.9756105 -136.71861673 125.03950065 -132.78150797 121.10492539 C-129.49429754 117.81878522 -126.21006968 114.52967218 -122.92579067 111.24060267 C-115.17862424 103.48234609 -107.42614723 95.72942432 -99.67041016 87.97973633 C-91.66939178 79.98476239 -83.67760396 71.98064576 -75.69025815 63.97201425 C-68.83015549 57.09430301 -61.96426757 50.22240503 -55.09372699 43.35512084 C-50.99115186 39.2543594 -46.89083794 35.15139947 -42.79611588 31.04279518 C-38.94669892 27.1808162 -35.09011325 23.32614314 -31.2278862 19.47697639 C-29.81195602 18.06341481 -28.39857913 16.64729032 -26.98796082 15.22842789 C-25.06158902 13.29161177 -23.12619644 11.36427888 -21.18826294 9.43904114 C-20.35478071 8.59449748 -20.35478071 8.59449748 -19.50446045 7.73289233 C-13.54126635 1.85155006 -8.24019692 -0.02751318 0 0 Z " fill="#508C9B" transform="translate(999.875,798.5)"/>
<path d="M0 0 C0.70640625 -0.03996094 1.4128125 -0.07992187 2.140625 -0.12109375 C9.03469541 1.3547327 14.46787706 6.7163272 19.27926636 11.59254456 C19.88497282 12.19427661 20.49067929 12.79600867 21.11474049 13.41597503 C23.12385911 15.4155399 25.12216785 17.42555558 27.12060547 19.43579102 C28.56616986 20.87892526 30.0123795 22.32141342 31.45918274 23.76330566 C35.37267762 27.66742154 39.27673564 31.58084842 43.17886496 35.49632001 C47.26639667 39.59519018 51.36166119 43.68632158 55.45584106 47.77854919 C62.32538982 54.64721608 69.18894302 61.52182907 76.04882812 68.40014648 C83.98260123 76.35511499 91.92519832 84.30118726 99.87269104 92.24244744 C107.52017259 99.88423855 115.1619778 107.53168054 122.80099869 115.18192863 C126.05200072 118.43757787 129.30488249 121.69133178 132.55926132 124.94360542 C136.38717967 128.76964285 140.21007721 132.60062732 144.02911949 136.43552399 C145.43269528 137.84334837 146.83797862 139.24947267 148.2450695 140.6537838 C150.16225407 142.56775444 152.07319379 144.48774836 153.9826355 146.40943909 C154.54332226 146.96634652 155.10400902 147.52325396 155.68168628 148.09703737 C160.11466165 152.58059694 162.03660859 155.5013531 162.125 161.8125 C162.15335938 162.72773437 162.18171875 163.64296875 162.2109375 164.5859375 C161.18627966 170.92492242 156.07251787 175.40525374 151.68397522 179.76422119 C150.77759179 180.67634294 150.77759179 180.67634294 149.85289758 181.60689139 C147.83642345 183.63364567 145.81291451 185.65322181 143.78930664 187.67285156 C142.33831229 189.12819501 140.88773587 190.58395524 139.43754578 192.0401001 C135.5043317 195.9866908 131.56475019 199.92686605 127.6235764 203.86550617 C124.33378645 207.15422599 121.04697872 210.44591835 117.76012033 213.73756766 C110.00819983 221.5005777 102.2509694 229.25825361 94.49047852 237.01269531 C86.48148657 245.01564046 78.48173052 253.02773379 70.48640925 261.04433465 C63.62122231 267.92712134 56.75025966 274.80410435 49.8746385 281.67646766 C45.76818229 285.78110903 41.66399413 289.8879558 37.56538582 294.00043488 C33.71350261 297.86486604 29.85447148 301.72201206 25.98977852 305.57363129 C24.57181427 306.989224 23.1564115 308.40738776 21.74375534 309.82827759 C19.81702098 311.76543132 17.88130201 313.69313582 15.94300842 315.61871338 C15.38444076 316.18465533 14.8258731 316.75059727 14.25037915 317.33368897 C9.89519789 321.6288627 6.10713571 323.69065162 0 324 C-11.35782295 323.51882782 -20.85564204 310.12203206 -28.44287109 302.51928711 C-29.85762828 301.10888322 -31.27280083 299.69889588 -32.68835449 298.28929138 C-36.5108478 294.48012644 -40.3269759 290.66464599 -44.14154005 286.84754252 C-47.33090165 283.65710795 -50.52324202 280.46966207 -53.71553099 277.282157 C-61.24417864 269.76458119 -68.76751414 262.24171821 -76.28759766 254.71557617 C-84.04235152 246.95477103 -91.8062644 239.20321531 -99.57466829 231.45607561 C-106.25286597 224.7954857 -112.92525098 218.12911194 -119.59302199 211.45808417 C-123.57189645 207.47739688 -127.55296357 203.49896688 -131.5396843 199.5261364 C-135.28433267 195.79404975 -139.02167343 192.05479701 -142.75350952 188.30990028 C-144.12353483 186.93750682 -145.49612196 185.56766525 -146.87144852 184.20058441 C-148.74899083 182.33348958 -150.61703845 180.45737683 -152.48300171 178.57872009 C-153.02842066 178.04067542 -153.57383961 177.50263076 -154.13578641 176.94828171 C-158.39081036 172.63217794 -161.67620305 168.17341367 -161.6875 161.9375 C-161.70683594 161.2259375 -161.72617188 160.514375 -161.74609375 159.78125 C-160.47178948 153.76091486 -155.35722746 149.25747564 -151.13928223 145.07281494 C-150.53023749 144.46065022 -149.92119275 143.8484855 -149.29369211 143.21777034 C-147.26106285 141.17719308 -145.22139513 139.14380457 -143.18164062 137.11035156 C-141.71916421 135.64516393 -140.25711336 134.17955141 -138.79545593 132.71354675 C-134.83121489 128.74019668 -130.86068396 124.77318854 -126.88871574 120.80756474 C-122.73291415 116.65682887 -118.58199694 112.50121306 -114.43029785 108.34637451 C-107.45989353 101.37233304 -100.48528577 94.40251618 -93.50830078 87.43505859 C-85.43837665 79.37602704 -77.37569431 71.30980422 -69.31671953 63.23982453 C-62.3980196 56.31205479 -55.47543742 49.38818252 -48.54958296 42.4675653 C-44.41259602 38.33369863 -40.27697761 34.19848721 -36.14485168 30.05976105 C-32.26209556 26.17123627 -28.37449609 22.28762017 -24.48307228 18.40777016 C-23.05427856 16.98162521 -21.62719196 15.55376765 -20.20192528 14.12409782 C-18.25943608 12.17616069 -16.31091939 10.23446171 -14.36071777 8.29425049 C-13.5126606 7.43950115 -13.5126606 7.43950115 -12.64747095 6.56748414 C-8.6704326 2.62999069 -5.66529513 0.17321946 0 0 Z " fill="#134B70" transform="translate(1393.25,798.5625)"/>
<path d="M0 0 C0.70640625 -0.03996094 1.4128125 -0.07992187 2.140625 -0.12109375 C9.03469541 1.3547327 14.46787706 6.7163272 19.27926636 11.59254456 C19.88497282 12.19427661 20.49067929 12.79600867 21.11474049 13.41597503 C23.12385911 15.4155399 25.12216785 17.42555558 27.12060547 19.43579102 C28.56616986 20.87892526 30.0123795 22.32141342 31.45918274 23.76330566 C35.37267762 27.66742154 39.27673564 31.58084842 43.17886496 35.49632001 C47.26639667 39.59519018 51.36166119 43.68632158 55.45584106 47.77854919 C62.32538982 54.64721608 69.18894302 61.52182907 76.04882812 68.40014648 C83.98260123 76.35511499 91.92519832 84.30118726 99.87269104 92.24244744 C107.52017259 99.88423855 115.1619778 107.53168054 122.80099869 115.18192863 C126.05200072 118.43757787 129.30488249 121.69133178 132.55926132 124.94360542 C136.38717967 128.76964285 140.21007721 132.60062732 144.02911949 136.43552399 C145.43269528 137.84334837 146.83797862 139.24947267 148.2450695 140.6537838 C150.16225407 142.56775444 152.07319379 144.48774836 153.9826355 146.40943909 C154.54332226 146.96634652 155.10400902 147.52325396 155.68168628 148.09703737 C160.11466165 152.58059694 162.03660859 155.5013531 162.125 161.8125 C162.15335938 162.72773437 162.18171875 163.64296875 162.2109375 164.5859375 C161.18627966 170.92492242 156.07251787 175.40525374 151.68397522 179.76422119 C150.77759179 180.67634294 150.77759179 180.67634294 149.85289758 181.60689139 C147.83642345 183.63364567 145.81291451 185.65322181 143.78930664 187.67285156 C142.33831229 189.12819501 140.88773587 190.58395524 139.43754578 192.0401001 C135.5043317 195.9866908 131.56475019 199.92686605 127.6235764 203.86550617 C124.33378645 207.15422599 121.04697872 210.44591835 117.76012033 213.73756766 C110.00819983 221.5005777 102.2509694 229.25825361 94.49047852 237.01269531 C86.48148657 245.01564046 78.48173052 253.02773379 70.48640925 261.04433465 C63.62122231 267.92712134 56.75025966 274.80410435 49.8746385 281.67646766 C45.76818229 285.78110903 41.66399413 289.8879558 37.56538582 294.00043488 C33.71350261 297.86486604 29.85447148 301.72201206 25.98977852 305.57363129 C24.57181427 306.989224 23.1564115 308.40738776 21.74375534 309.82827759 C19.81702098 311.76543132 17.88130201 313.69313582 15.94300842 315.61871338 C15.38444076 316.18465533 14.8258731 316.75059727 14.25037915 317.33368897 C9.89519789 321.6288627 6.10713571 323.69065162 0 324 C-11.35094057 323.51939771 -20.85412079 310.13036086 -28.44287109 302.53515625 C-29.85763697 301.12638314 -31.27280927 299.71801809 -32.68835449 298.31002808 C-36.5109394 294.50502426 -40.32709663 290.6936377 -44.14154005 286.88047409 C-46.52700559 284.49643404 -48.9138912 282.11382534 -51.3012886 279.73171997 C-59.63511266 271.41636295 -67.96379067 263.09589181 -76.28759766 254.77050781 C-84.0408004 247.01610133 -91.80511394 239.27294428 -99.57466829 231.53492451 C-106.25459554 224.88114326 -112.9267945 218.21967911 -119.59302199 211.55217266 C-123.5706201 207.57406486 -127.55125555 203.59911803 -131.5396843 199.63186646 C-135.28651536 195.90439177 -139.02363116 192.16744387 -142.75350952 188.42300797 C-144.12265832 187.05176748 -145.49522337 185.68392817 -146.87144852 184.31978989 C-148.75137468 182.45530873 -150.61851207 180.57887441 -152.48300171 178.69897461 C-153.02842066 178.16384278 -153.57383961 177.62871096 -154.13578641 177.07736301 C-158.39855707 172.73649527 -161.67406645 167.70220355 -161.6875 161.375 C-160.89992054 154.28678483 -155.9929746 149.888206 -151.13928223 145.07281494 C-150.53023749 144.46065022 -149.92119275 143.8484855 -149.29369211 143.21777034 C-147.26106285 141.17719308 -145.22139513 139.14380457 -143.18164062 137.11035156 C-141.71916421 135.64516393 -140.25711336 134.17955141 -138.79545593 132.71354675 C-134.83121489 128.74019668 -130.86068396 124.77318854 -126.88871574 120.80756474 C-122.73291415 116.65682887 -118.58199694 112.50121306 -114.43029785 108.34637451 C-107.45989353 101.37233304 -100.48528577 94.40251618 -93.50830078 87.43505859 C-85.43837665 79.37602704 -77.37569431 71.30980422 -69.31671953 63.23982453 C-62.3980196 56.31205479 -55.47543742 49.38818252 -48.54958296 42.4675653 C-44.41259602 38.33369863 -40.27697761 34.19848721 -36.14485168 30.05976105 C-32.26209556 26.17123627 -28.37449609 22.28762017 -24.48307228 18.40777016 C-23.05427856 16.98162521 -21.62719196 15.55376765 -20.20192528 14.12409782 C-18.25943608 12.17616069 -16.31091939 10.23446171 -14.36071777 8.29425049 C-13.5126606 7.43950115 -13.5126606 7.43950115 -12.64747095 6.56748414 C-8.6704326 2.62999069 -5.66529513 0.17321946 0 0 Z " fill="#201E43" transform="translate(1199.25,604.5625)"/>
<path d="M0 0 C0.928125 -0.01160156 0.928125 -0.01160156 1.875 -0.0234375 C8.10049591 1.14384298 12.13504851 5.08010708 16.40264893 9.40342712 C17.0188972 10.01570099 17.63514547 10.62797485 18.27006793 11.25880247 C20.32687882 13.30601232 22.37282422 15.36374105 24.41894531 17.42163086 C25.89377021 18.89402712 27.36924038 20.36577728 28.8453064 21.83692932 C32.84777048 25.82999197 36.84076699 29.83239962 40.83186436 33.83681941 C45.00883843 38.02511113 49.19352373 42.20568561 53.37713623 46.38734436 C60.39987324 53.40919864 67.41660625 60.43700864 74.4296875 67.46850586 C82.54179025 75.6017882 90.66269989 83.72619297 98.78851628 91.84577268 C106.60258179 99.65414742 114.41097015 107.46817439 122.21657562 115.28500557 C125.5401452 118.61322366 128.8655963 121.939545 132.19254303 125.26438713 C136.10743682 129.17739992 140.0173102 133.09536097 143.9233284 137.01723289 C145.35915348 138.45730696 146.79668655 139.89568034 148.23602676 141.33224106 C150.19710785 143.29010865 152.15194744 145.25400105 154.10528564 147.21958923 C154.67900949 147.78953375 155.25273333 148.35947827 155.84384274 148.94669384 C160.52841369 153.68352527 162.18377098 156.38491722 162.36328125 163.08203125 C161.28794959 169.86933966 157.83651385 174.12012554 153.09892273 178.77055359 C152.50031065 179.3739945 151.90169858 179.9774354 151.28494674 180.5991624 C149.28617762 182.60916029 147.27349295 184.60459879 145.26049805 186.6003418 C143.82068826 188.04229849 142.38174506 189.48512092 140.94360352 190.92874146 C137.04146237 194.8405655 133.12695409 198.73979346 129.209831 202.63660789 C125.11010008 206.71875266 121.02093595 210.81145732 116.93037415 214.90278625 C110.05974896 221.77153915 103.18142709 228.63250695 96.2980957 235.48852539 C88.34289819 243.41227298 80.39820095 251.34642403 72.45944756 259.28664464 C64.00369933 267.74374452 55.54035051 276.19320654 47.07475305 284.64044595 C44.63761272 287.07332634 42.20189434 289.50762266 39.76648521 291.94223595 C35.93728129 295.76942858 32.10300875 299.59147156 28.26477814 303.40961075 C26.85780963 304.8107452 25.45251853 306.21356639 24.04904366 307.6182003 C22.13129078 309.53693733 20.20748812 311.44939887 18.2820282 313.36039734 C17.72958221 313.91594053 17.17713621 314.47148373 16.60794944 315.04386157 C8.69356548 322.86049873 8.69356548 322.86049873 3.21875 323.90625 C2.3215625 323.8959375 1.424375 323.885625 0.5 323.875 C-0.84578125 323.89046875 -0.84578125 323.89046875 -2.21875 323.90625 C-8.51260581 322.70405282 -12.96835136 317.69552428 -17.32672119 313.30224609 C-17.93480236 312.69728491 -18.54288352 312.09232372 -19.16939139 311.46903038 C-21.19614898 309.45022017 -23.21571804 307.42437277 -25.23535156 305.3984375 C-26.69068712 303.94581318 -28.14644756 302.49361443 -29.6026001 301.04180908 C-33.54909141 297.10442646 -37.48924103 293.16075454 -41.42800617 289.21564484 C-45.55071475 285.08787037 -49.67830343 280.96498049 -53.80511475 276.84130859 C-60.73207777 269.91798266 -67.65481622 262.9904535 -74.57519531 256.06054688 C-82.57969533 248.04515424 -90.59138651 240.03700364 -98.60683465 232.03256035 C-105.48789571 225.16056919 -112.36505913 218.28469572 -119.23896766 211.40555 C-123.3448887 207.29650874 -127.4521543 203.18883596 -131.56293488 199.08465576 C-135.42519497 195.22816445 -139.28254593 191.36682977 -143.13613129 187.50167084 C-144.55260092 186.08255249 -145.97078306 184.66514114 -147.39077759 183.24954987 C-149.32557792 181.32019773 -151.25413897 179.38481838 -153.18121338 177.44775391 C-153.74715533 176.8862734 -154.31309727 176.3247929 -154.89618897 175.74629784 C-159.34787642 171.24959944 -161.28629555 168.33349803 -161.375 162 C-161.41753906 160.62714844 -161.41753906 160.62714844 -161.4609375 159.2265625 C-160.43944124 152.9071365 -155.35447401 148.43904579 -150.97866821 144.0929718 C-150.37920171 143.48967975 -149.77973521 142.8863877 -149.16210306 142.26481408 C-147.16178184 140.25421355 -145.1544273 138.25079085 -143.14697266 136.24731445 C-141.70745296 134.80344556 -140.26835116 133.35915993 -138.82963562 131.91448975 C-134.9273452 127.99882251 -131.01868728 124.08957114 -127.10843706 120.18185449 C-123.84359455 116.91808227 -120.58173473 113.65133715 -117.31982362 110.38463563 C-109.62539479 102.67911682 -101.92565569 94.97893268 -94.22265625 87.28198242 C-86.27616933 79.34153994 -78.33891329 71.39195505 -70.40609896 63.43785506 C-63.59270516 56.60685242 -56.77352591 49.78166341 -49.94969404 42.96108788 C-45.87506452 38.88827202 -41.80269618 34.81325813 -37.73591995 30.73259926 C-33.91276787 26.89688474 -30.08244694 23.06847722 -26.24648476 19.24557495 C-24.84022996 17.84168866 -23.43652817 16.43523969 -22.0355854 15.02605247 C-20.12235064 13.10237262 -18.20009557 11.18817862 -16.27529907 9.27607727 C-15.7235352 8.71693911 -15.17177133 8.15780096 -14.60328734 7.58171922 C-10.50709186 3.54212436 -6.04248299 -0.07553104 0 0 Z " fill="#201E43" transform="translate(800,604.625)"/>
<path d="M0 0 C0.928125 -0.01160156 0.928125 -0.01160156 1.875 -0.0234375 C8.09719586 1.14322422 12.13438769 5.07786336 16.40264893 9.396698 C17.0188972 10.0082663 17.63514547 10.6198346 18.27006793 11.24993527 C20.32687579 13.29480622 22.37282803 15.35019789 24.41894531 17.40576172 C25.89377808 18.87652827 27.36924805 20.34665608 28.8453064 21.81619263 C32.84787034 25.80508448 36.84089186 29.80340253 40.83186436 33.80388784 C45.00913234 37.98875146 49.1937153 42.16629016 53.37713623 46.34500122 C60.4000613 53.36246908 67.41663857 60.38623741 74.4296875 67.41357422 C82.54023681 75.54045626 90.66154575 83.6564657 98.78851628 91.76692379 C105.7648398 98.72963909 112.73530707 105.69817662 119.70090175 112.67162526 C123.86168369 116.83708653 128.02447139 121.00048891 132.19254303 125.15865707 C136.10960781 129.06706402 140.01927635 132.98272132 143.9233284 136.90412521 C145.35827653 138.34304419 146.79579132 139.77940877 148.23602676 141.21303558 C150.19946034 143.16828781 152.15344499 145.13251958 154.10528564 147.09933472 C154.67900949 147.66636639 155.25273333 148.23339807 155.84384274 148.81761253 C159.88215064 152.91635116 161.73051341 155.99453511 162.375 161.6875 C161.59703383 169.33750063 157.35397201 174.61491129 152.01663208 179.85284424 C151.42124913 180.45305602 150.82586618 181.0532678 150.21244133 181.67166781 C148.23058233 183.66472792 146.23485085 185.6432622 144.23876953 187.62207031 C142.80866466 189.05432275 141.37942654 190.48744109 139.95098877 191.9213562 C136.07989139 195.80212495 132.19644711 199.67031552 128.31036615 203.53607273 C124.24132955 207.58750704 120.18287599 211.64951758 116.12301636 215.71014404 C109.30544627 222.52584276 102.480185 229.33376111 95.64990234 236.13671875 C87.75659412 243.99856542 79.87379843 251.87082703 71.99693978 259.74915242 C63.60450393 268.14293987 55.20446858 276.52909027 46.80218267 284.91301632 C44.38397898 287.32696057 41.96719681 289.74232027 39.55072403 292.15799713 C35.75187542 295.95483447 31.94795865 299.74652194 28.14008331 303.53430557 C26.74440204 304.92415311 25.35039778 306.31568707 23.95820999 307.70903397 C22.05583705 309.61239114 20.14741475 311.50947151 18.23733521 313.40509033 C17.68946228 313.95606046 17.14158936 314.50703059 16.57711422 315.07469678 C8.69307616 322.86059219 8.69307616 322.86059219 3.21875 323.90625 C2.3215625 323.8959375 1.424375 323.885625 0.5 323.875 C-0.84578125 323.89046875 -0.84578125 323.89046875 -2.21875 323.90625 C-8.51260581 322.70405282 -12.96835136 317.69552428 -17.32672119 313.30224609 C-17.93480236 312.69728491 -18.54288352 312.09232372 -19.16939139 311.46903038 C-21.19614898 309.45022017 -23.21571804 307.42437277 -25.23535156 305.3984375 C-26.69068712 303.94581318 -28.14644756 302.49361443 -29.6026001 301.04180908 C-33.54909141 297.10442646 -37.48924103 293.16075454 -41.42800617 289.21564484 C-45.55071475 285.08787037 -49.67830343 280.96498049 -53.80511475 276.84130859 C-60.73207777 269.91798266 -67.65481622 262.9904535 -74.57519531 256.06054688 C-82.57969533 248.04515424 -90.59138651 240.03700364 -98.60683465 232.03256035 C-105.48789571 225.16056919 -112.36505913 218.28469572 -119.23896766 211.40555 C-123.3448887 207.29650874 -127.4521543 203.18883596 -131.56293488 199.08465576 C-135.42519497 195.22816445 -139.28254593 191.36682977 -143.13613129 187.50167084 C-144.55260092 186.08255249 -145.97078306 184.66514114 -147.39077759 183.24954987 C-149.32557792 181.32019773 -151.25413897 179.38481838 -153.18121338 177.44775391 C-153.74715533 176.8862734 -154.31309727 176.3247929 -154.89618897 175.74629784 C-159.34787642 171.24959944 -161.28629555 168.33349803 -161.375 162 C-161.41753906 160.62714844 -161.41753906 160.62714844 -161.4609375 159.2265625 C-160.43944124 152.9071365 -155.35447401 148.43904579 -150.97866821 144.0929718 C-150.37920171 143.48967975 -149.77973521 142.8863877 -149.16210306 142.26481408 C-147.16178184 140.25421355 -145.1544273 138.25079085 -143.14697266 136.24731445 C-141.70745296 134.80344556 -140.26835116 133.35915993 -138.82963562 131.91448975 C-134.9273452 127.99882251 -131.01868728 124.08957114 -127.10843706 120.18185449 C-123.84359455 116.91808227 -120.58173473 113.65133715 -117.31982362 110.38463563 C-109.62539479 102.67911682 -101.92565569 94.97893268 -94.22265625 87.28198242 C-86.27616933 79.34153994 -78.33891329 71.39195505 -70.40609896 63.43785506 C-63.59270516 56.60685242 -56.77352591 49.78166341 -49.94969404 42.96108788 C-45.87506452 38.88827202 -41.80269618 34.81325813 -37.73591995 30.73259926 C-33.91276787 26.89688474 -30.08244694 23.06847722 -26.24648476 19.24557495 C-24.84022996 17.84168866 -23.43652817 16.43523969 -22.0355854 15.02605247 C-20.12235064 13.10237262 -18.20009557 11.18817862 -16.27529907 9.27607727 C-15.7235352 8.71693911 -15.17177133 8.15780096 -14.60328734 7.58171922 C-10.50709186 3.54212436 -6.04248299 -0.07553104 0 0 Z " fill="#134B70" transform="translate(606,798.625)"/>
<path d="M0 0 C5.0457762 2.45150777 8.74720246 5.34813462 12.66177267 9.33619171 C13.2681847 9.93777491 13.87459673 10.53935811 14.49938488 11.1591711 C16.51326584 13.16184976 18.51262293 15.17840591 20.51225179 17.19530731 C21.95922382 18.64013187 23.40706173 20.0840897 24.85569662 21.52724701 C28.77551795 25.437398 32.68276495 29.35989431 36.58757371 33.28503019 C40.676451 37.39150143 44.77589607 41.48739809 48.87396139 45.58469635 C55.74932703 52.46193309 62.61691255 59.34686149 69.47953695 66.23681122 C77.41981377 74.20858672 85.37054376 82.1698124 93.32731712 90.12512028 C100.98030952 97.77689342 108.6275786 105.43435835 116.27165312 113.0950399 C119.52645561 116.35691269 122.78295924 119.61707317 126.04076856 122.87594277 C129.87125176 126.70843036 133.69660988 130.54596143 137.51800436 134.38751084 C138.92361395 135.79897634 140.33093438 137.2087404 141.74005216 138.61670357 C143.65759257 140.53326691 145.56889709 142.45583543 147.4786672 144.38013703 C148.0422668 144.94063942 148.6058664 145.50114182 149.18654478 146.07862914 C151.55064625 148.47267628 153.04642491 150.05661573 154.12577718 153.29467255 C48.85577718 153.29467255 -56.41422282 153.29467255 -164.87422282 153.29467255 C-160.92176378 148.68347034 -157.00648438 144.27960797 -152.7262736 140.00628144 C-151.84288656 139.11843771 -151.84288656 139.11843771 -150.94165331 138.21265775 C-148.98663156 136.24903094 -147.02811426 134.28893051 -145.06953532 132.32885224 C-143.65949322 130.91417648 -142.2496473 129.49930516 -140.83998209 128.08425385 C-137.02440561 124.25561179 -133.20554617 120.43026144 -129.38565928 116.60592037 C-126.99811759 114.21544097 -124.61116119 111.82437864 -122.22438151 109.43313843 C-114.75264732 101.94775017 -107.2789284 94.46435208 -99.80229861 86.98385364 C-91.17730817 78.35437518 -82.55890877 69.71838461 -73.94614702 61.07670146 C-67.28121731 54.39016954 -60.6105479 47.70939957 -53.93547732 41.03299123 C-49.95116509 37.04763075 -45.96932269 33.05987485 -41.99342448 29.06611878 C-38.25715375 25.31339085 -34.51381487 21.56786167 -30.76491648 17.82774979 C-29.3909023 16.454507 -28.01944887 15.07869648 -26.65076548 13.70014054 C-24.78143198 11.81811642 -22.90306919 9.94558628 -21.02217203 8.07512909 C-20.48344525 7.5283459 -19.94471846 6.98156271 -19.38966662 6.41821033 C-13.92206606 1.02127816 -7.81292795 -2.94024409 0 0 Z " fill="#134B70" transform="translate(1204.8742228150368,993.7053274512291)"/>
<path d="M0 0 C5.658738 2.82945022 10.17387512 6.74213019 14.58068848 11.2131958 C15.19188962 11.82112811 15.80309077 12.42906042 16.43281317 13.05541492 C18.46042802 15.07579955 20.47721471 17.10664434 22.49414062 19.13769531 C23.95279375 20.59555689 25.41210069 22.05276454 26.87200928 23.5093689 C30.82039769 27.45263882 34.75941826 31.40514543 38.69665718 35.3595438 C42.81819569 39.49614414 46.94786404 43.62461312 51.07653809 47.75408936 C58.00137192 54.68261077 64.92055117 61.61673706 71.8359375 68.5546875 C80.72479884 77.47249215 89.62296842 86.38094871 98.524086 95.2865181 C106.16931304 102.93571724 113.81027304 110.58917469 121.45054436 118.24332333 C123.91178454 120.70866877 126.37361607 123.17342257 128.83552551 125.63809967 C132.69246869 129.49991993 136.54675005 133.36437756 140.39893341 137.23094559 C141.81712155 138.65367216 143.23616712 140.07554459 144.65610504 141.49652481 C146.58479858 143.42695269 148.51040207 145.36040857 150.43518066 147.29473877 C151.00558405 147.86427568 151.57598744 148.43381258 152.16367579 149.02060819 C156 152.88579182 156 152.88579182 156 154 C50.73 154 -54.54 154 -163 154 C-160.38532766 149.64221277 -157.73119189 146.4438151 -154.18830872 142.92088318 C-153.59927488 142.32731823 -153.01024104 141.73375327 -152.40335768 141.1222015 C-150.43225339 139.13845706 -148.45408976 137.16190973 -146.47583008 135.18530273 C-145.05941375 133.76290094 -143.6434083 132.34008989 -142.2277832 130.91690063 C-138.38326254 127.05471481 -134.53227672 123.19903855 -130.67955232 119.34503818 C-128.27207287 116.93613687 -125.86602327 114.52581701 -123.46048546 112.11497688 C-115.06620522 103.70219468 -106.66677407 95.2945951 -98.26245117 86.8918457 C-90.43203238 79.06262836 -82.61283462 71.22232782 -74.79882699 63.3767342 C-68.08652086 56.63826543 -61.36651458 49.90754182 -54.64047545 43.1827808 C-50.62482932 39.1676443 -46.61234134 35.14947213 -42.60755348 31.12350273 C-38.83992386 27.33649125 -35.06278541 23.55922793 -31.27819061 19.78917313 C-29.89286179 18.40593352 -28.51092441 17.01928751 -27.13270378 15.62896538 C-25.24648352 13.72726367 -23.34825477 11.83839272 -21.4466095 9.95213318 C-20.90777108 9.40300764 -20.36893267 8.8538821 -19.81376582 8.2881164 C-14.30961397 2.88147572 -7.96201198 -1.27960907 0 0 Z " fill="#134B70" transform="translate(804,993)"/>
<path d="M0 0 C11.55 0 23.1 0 35 0 C36.12277344 3.42375 37.24554687 6.8475 38.40234375 10.375 C42.42906501 22.52227058 46.79778088 34.5269738 51.26556396 46.51776123 C53.55577062 52.6669052 55.83175647 58.82130496 58.10546875 64.9765625 C58.34259834 65.61827015 58.57972794 66.2599778 58.82404327 66.92113113 C65.52454001 85.06304611 72.04186872 103.27102876 78.56068134 121.47883224 C79.49043077 124.07569659 80.42046945 126.6724573 81.3505497 129.26920319 C82.0128399 131.11884062 82.67453848 132.96868986 83.33622742 134.81854248 C86.18184232 142.76094307 89.07090838 150.68601267 92.05258179 158.57846069 C94 163.78539808 94 163.78539808 94 166 C81.79 166 69.58 166 57 166 C53.04 154.45 49.08 142.9 45 131 C26.19 130.67 7.38 130.34 -12 130 C-12.66 132.97 -13.32 135.94 -14 139 C-14.76067253 141.6209567 -15.54041129 144.21629525 -16.375 146.8125 C-16.66890625 147.74545898 -16.66890625 147.74545898 -16.96875 148.69726562 C-18.90995449 154.82188866 -20.96794491 160.90383472 -23 167 C-40.325 166.505 -40.325 166.505 -58 166 C-55.98062197 158.5956139 -53.86763369 151.4810538 -51.25390625 144.30078125 C-50.89083878 143.29230133 -50.5277713 142.28382141 -50.15370178 141.24478149 C-48.96043846 137.93263512 -47.76141572 134.62260404 -46.5625 131.3125 C-45.71679365 128.96770651 -44.87158847 126.62273221 -44.02685547 124.27758789 C-42.70509472 120.60813138 -41.38307427 116.93877142 -40.05957031 113.26994324 C-35.21488687 99.83762785 -30.42024787 86.3875265 -25.625 72.9375 C-16.5352941 47.44794463 -16.5352941 47.44794463 -11.95703125 34.82421875 C-11.4974704 33.55634773 -11.4974704 33.55634773 -11.02862549 32.26286316 C-9.64580964 28.44966725 -8.25978544 24.63769354 -6.86767578 20.82788086 C-6.38958473 19.51288123 -5.91155336 18.19785991 -5.43359375 16.8828125 C-5.03197021 15.78340332 -4.63034668 14.68399414 -4.21655273 13.55126953 C-2.68342602 9.07588097 -1.3593584 4.53119466 0 0 Z " fill="#211F44" transform="translate(757,1279)"/>
<path d="M0 0 C11.22 0 22.44 0 34 0 C35.41667969 3.95871094 36.83335938 7.91742187 38.29296875 11.99609375 C40.256389 17.47707327 42.22151392 22.95744041 44.1875 28.4375 C44.44490967 29.155037 44.70231934 29.87257401 44.9675293 30.61185455 C52.54720355 51.73633991 60.21470414 72.82534876 68 93.875 C73.99578972 110.09550952 79.97490888 126.32109168 85.81567383 142.59820557 C86.47324543 144.4299604 87.13239114 146.26115102 87.79321289 148.09173584 C88.68608288 150.56723697 89.57263628 153.04489814 90.45703125 155.5234375 C90.71837357 156.24543335 90.97971588 156.9674292 91.24897766 157.71130371 C92.27757219 160.61564371 93 162.89306914 93 166 C80.79 166 68.58 166 56 166 C50.21527106 149.80275895 50.21527106 149.80275895 48.25 142.9375 C48.04246094 142.23173828 47.83492187 141.52597656 47.62109375 140.79882812 C46.57683812 137.20456762 45.73553914 133.67769572 45 130 C16.785 130.495 16.785 130.495 -12 131 C-14.59510453 139.43408971 -17.18354546 147.8697192 -19.75 156.3125 C-21.35875 161.6028125 -21.35875 161.6028125 -23 167 C-40.325 166.505 -40.325 166.505 -58 166 C-57.33048078 161.9828847 -56.75759373 158.91780069 -55.44384766 155.20288086 C-55.12408966 154.29115112 -54.80433167 153.37942139 -54.47488403 152.44006348 C-54.12481293 151.45824097 -53.77474182 150.47641846 -53.4140625 149.46484375 C-53.04570282 148.41961548 -52.67734314 147.37438721 -52.29782104 146.29748535 C-51.07853484 142.84237127 -49.85191958 139.38991012 -48.625 135.9375 C-47.76337815 133.5021384 -46.90205473 131.06667121 -46.04101562 128.63110352 C-38.30831543 106.78137443 -30.49009931 84.96209325 -22.64833069 63.15130615 C-18.29133499 51.03237992 -13.94673775 38.90901804 -9.60205078 26.78567505 C-7.56452644 21.1004633 -5.52638451 15.41547298 -3.48828125 9.73046875 C-2.33714844 6.51941406 -1.18601562 3.30835938 0 0 Z " fill="#211F44" transform="translate(1249,1279)"/>
<path d="M0 0 C0.80693298 -0.0066568 1.61386597 -0.0133136 2.44525146 -0.02017212 C4.1322608 -0.03017383 5.8193087 -0.03499309 7.50634766 -0.03466797 C10.02966319 -0.03903273 12.55121137 -0.07546315 15.07421875 -0.11328125 C35.01537868 -0.2523216 52.80060128 3.82126733 67.64453125 18.015625 C79.95528321 31.28710715 83.56690941 48.02621813 83.0859375 65.671875 C82.39288749 79.92307979 78.25740506 92.5926237 68.796875 103.3359375 C68.2503125 103.965 67.70375 104.5940625 67.140625 105.2421875 C62.65972916 110.06126416 57.57919663 113.25714973 51.796875 116.3359375 C50.96414063 116.79097656 50.13140625 117.24601562 49.2734375 117.71484375 C36.48865951 124.14562547 24.02825501 124.3359375 9.796875 124.3359375 C9.796875 139.1859375 9.796875 154.0359375 9.796875 169.3359375 C-0.763125 169.3359375 -11.323125 169.3359375 -22.203125 169.3359375 C-22.203125 114.2259375 -22.203125 59.1159375 -22.203125 2.3359375 C-7.16092883 0.02175347 -7.16092883 0.02175347 0 0 Z " fill="#211F44" transform="translate(891.203125,1275.6640625)"/>
<path d="M0 0 C0.67687866 0.00398804 1.35375732 0.00797607 2.05114746 0.01208496 C35.4929357 0.2429357 35.4929357 0.2429357 43.625 8.375 C43.71361992 11.1866338 43.74022355 13.97358255 43.72265625 16.78515625 C43.72053383 18.04820839 43.72053383 18.04820839 43.71836853 19.33677673 C43.71275263 22.03705335 43.70019748 24.73724828 43.6875 27.4375 C43.68248705 29.26367068 43.67792379 31.08984266 43.67382812 32.91601562 C43.66277804 37.40237542 43.64550279 41.88867384 43.625 46.375 C43.09535645 45.96797852 42.56571289 45.56095703 42.02001953 45.14160156 C41.31474121 44.6050293 40.60946289 44.06845703 39.8828125 43.515625 C38.84084717 42.71946777 38.84084717 42.71946777 37.77783203 41.90722656 C23.20854102 31.53788313 3.85978134 30.63785664 -13.35546875 32.8046875 C-24.13926537 34.74361653 -33.9819941 39.44236577 -40.9140625 48.1328125 C-51.5938659 64.52374072 -52.25517479 84.32612016 -49.125 103.12890625 C-46.05015842 116.43720497 -38.97949923 127.07478398 -27.375 134.375 C-12.6725975 141.88600997 7.17586992 141.27814388 22.625 136.375 C23.96111328 135.95734375 23.96111328 135.95734375 25.32421875 135.53125 C31.71498182 133.26071856 36.46663809 129.70039685 41.625 125.375 C42.95498948 124.37055699 44.28787287 123.36992151 45.625 122.375 C45.89827613 127.23090664 46.09706867 132.08229404 46.22924805 136.9440918 C46.28435738 138.59462443 46.35927938 140.2446249 46.45483398 141.89331055 C47.22715797 155.56798823 47.22715797 155.56798823 43.33178711 159.96142578 C40.48142661 161.80091243 37.77471689 163.12653168 34.625 164.375 C33.60921875 164.85694824 32.5934375 165.33889648 31.546875 165.83544922 C11.0736739 175.49075709 -15.32150551 175.18263813 -36.5625 168.125 C-55.6697115 160.86722199 -69.25850202 147.54112678 -78.375 129.375 C-89.12468388 104.93330683 -90.00599661 75.05386503 -80.83203125 49.96484375 C-72.8837653 29.88611517 -58.53356656 15.72503681 -39.0859375 6.87890625 C-26.30523474 1.63912909 -13.74936946 -0.14681472 0 0 Z " fill="#222044" transform="translate(644.375,1275.625)"/>
<path d="M0 0 C0 10.56 0 21.12 0 32 C-20.295 31.505 -20.295 31.505 -41 31 C-41 76.54 -41 122.08 -41 169 C-52.55 169 -64.1 169 -76 169 C-76 123.46 -76 77.92 -76 31 C-97.22084179 29.62098144 -97.22084179 29.62098144 -117 34 C-117 23.44 -117 12.88 -117 2 C-113.62813477 2.01047363 -110.25626953 2.02094727 -106.78222656 2.03173828 C-95.65426006 2.06484532 -84.5262914 2.08695661 -73.39828873 2.10362434 C-66.64994039 2.11393741 -59.90163871 2.1279983 -53.15332031 2.15087891 C-46.64351323 2.17294031 -40.13373645 2.18456176 -33.62389374 2.18975449 C-31.13754258 2.19345611 -28.65119415 2.20068425 -26.16486359 2.21146011 C-22.68830074 2.22593141 -19.21193958 2.22797975 -15.73535156 2.22705078 C-14.70244995 2.23424133 -13.66954834 2.24143188 -12.60534668 2.24884033 C-11.65746277 2.246091 -10.70957886 2.24334167 -9.73297119 2.24050903 C-8.91073185 2.24235262 -8.08849251 2.24419621 -7.24133682 2.24609566 C-4.63536756 1.95996387 -2.44032511 0 0 0 Z " fill="#211F43" transform="translate(1186,1276)"/>
<path d="M0 0 C11.22 0.33 22.44 0.66 34 1 C34 45.88 34 90.76 34 137 C48.52 137 63.04 137 78 137 C78 154 78 154 77 167 C51.59 167 26.18 167 0 167 C0 111.89 0 56.78 0 0 Z " fill="#201E43" transform="translate(1363,1278)"/>
<path d="M0 0 C11.55 0 23.1 0 35 0 C35 55.11 35 110.22 35 167 C23.45 167 11.9 167 0 167 C0 111.89 0 56.78 0 0 Z " fill="#232145" transform="translate(1003,1278)"/>
<path d="M0 0 C24.66358418 0 24.66358418 0 33.46484375 8.15625 C41.12218513 17.35285339 41.65145237 27.56468421 41 39 C39.21943513 49.04186219 34.22342811 56.08314319 26 62 C17.44231145 67.22969856 10.55686143 66 0 66 C0 44.22 0 22.44 0 0 Z " fill="#FDFDFD" transform="translate(901,1306)"/>
<path d="M0 0 C30.4375 0 30.4375 0 37.5625 6 C40.57934848 9.93866329 40.68229387 13.63751084 40.390625 18.4765625 C39.89597246 21.67201788 39.18210047 23.592165 37 26 C34.3125 27.8125 34.3125 27.8125 32 29 C33.36125 29.7734375 33.36125 29.7734375 34.75 30.5625 C38.41612442 33.02974961 40.45047365 35.8737332 42 40 C42.73994141 45.08709719 41.74883204 48.77090239 39.34375 53.203125 C36.48669552 57.02360483 32.44499984 58.51833339 28 60 C18.76 60 9.52 60 0 60 C0 40.2 0 20.4 0 0 Z " fill="#2A284C" transform="translate(1111,1509)"/>
<path d="M0 0 C3.3 0 6.6 0 10 0 C10.28085449 0.76739502 10.56170898 1.53479004 10.85107422 2.32543945 C11.94413837 5.31130051 13.03764379 8.29699953 14.13143921 11.28259277 C14.62623275 12.63337001 15.12088254 13.9841999 15.61538696 15.33508301 C18.37588675 22.87546547 21.14696139 30.41152665 23.95703125 37.93359375 C24.41674316 39.1661792 24.87645508 40.39876465 25.35009766 41.66870117 C26.23114203 44.02796365 27.11486576 46.38622754 28.00146484 48.7434082 C28.39672363 49.80261475 28.79198242 50.86182129 29.19921875 51.953125 C29.54815186 52.88286133 29.89708496 53.81259766 30.2565918 54.77050781 C31 57 31 57 31 59 C28.36 59 25.72 59 23 59 C20.525 53.06 20.525 53.06 18 47 C9.42 47 0.84 47 -8 47 C-9.65 50.96 -11.3 54.92 -13 59 C-15.64 59 -18.28 59 -21 59 C-18.89852576 51.64480857 -16.42811126 44.47542464 -13.76953125 37.3046875 C-13.37424728 36.23123077 -12.97896332 35.15777405 -12.57170105 34.05178833 C-11.32144205 30.65848221 -10.06704274 27.26672439 -8.8125 23.875 C-7.95870913 21.55999733 -7.10519083 19.24489411 -6.25195312 16.9296875 C-4.17111762 11.28529123 -2.08657016 5.64227872 0 0 Z " fill="#2A284B" transform="translate(1192,1510)"/>
<path d="M0 0 C3.3 0 6.6 0 10 0 C14.69824019 11.90232892 19.19586223 23.86361212 23.50952148 35.91064453 C24.45728882 38.55521712 25.41111558 41.19755688 26.36523438 43.83984375 C26.97171322 45.52851692 27.57784696 47.21731409 28.18359375 48.90625 C28.46786728 49.69253784 28.75214081 50.47882568 29.04502869 51.28894043 C31 56.77051543 31 56.77051543 31 59 C28.36 59 25.72 59 23 59 C22.32694982 57.39850114 21.66177773 55.79368971 21 54.1875 C20.62875 53.29417969 20.2575 52.40085937 19.875 51.48046875 C19 49 19 49 19 46 C5.635 46.495 5.635 46.495 -8 47 C-9.32 50.96 -10.64 54.92 -12 59 C-14.64 59 -17.28 59 -20 59 C-19.41458964 54.95385318 -18.53049457 51.29633596 -17.14233398 47.45361328 C-16.76201523 46.39296661 -16.38169647 45.33231995 -15.98985291 44.23953247 C-15.57941238 43.11118988 -15.16897186 41.98284729 -14.74609375 40.8203125 C-14.32578384 39.6524118 -13.90547394 38.48451111 -13.47242737 37.28121948 C-12.35983051 34.19254861 -11.24283618 31.1055165 -10.12365723 28.01922607 C-8.98040153 24.86312036 -7.84299352 21.70490915 -6.70507812 18.546875 C-4.47541446 12.36263677 -2.23993663 6.18052426 0 0 Z " fill="#29274B" transform="translate(822,1510)"/>
<path d="M0 0 C2.64 0 5.28 0 8 0 C8 19.8 8 39.6 8 60 C5.03 60 2.06 60 -1 60 C-3.11263812 57.7856297 -4.10217457 56.33866181 -5.4375 53.6875 C-6.25123454 52.23717506 -7.07216582 50.79087538 -7.8984375 49.34765625 C-8.36604492 48.52023926 -8.83365234 47.69282227 -9.31542969 46.84033203 C-12.8132324 40.9427325 -16.72855933 35.30730503 -20.5625 29.625 C-21.77362149 27.82349887 -22.98339101 26.021109 -24.19161987 24.21766663 C-25.25693211 22.62782027 -26.32480213 21.03968868 -27.39282227 19.45166016 C-29 17 -29 17 -30 15 C-30.33 29.85 -30.66 44.7 -31 60 C-33.64 60 -36.28 60 -39 60 C-39 40.53 -39 21.06 -39 1 C-31 1 -31 1 -28.890625 2.73828125 C-28.07851563 4.01251953 -28.07851563 4.01251953 -27.25 5.3125 C-26.59257813 6.31410156 -25.93515625 7.31570313 -25.2578125 8.34765625 C-24.50405801 9.56439231 -23.75155717 10.78190547 -23 12 C-22.06162717 13.4789645 -21.12140947 14.95675953 -20.1796875 16.43359375 C-18.68938123 18.776898 -17.20420649 21.12244071 -15.73925781 23.48168945 C-10.99511477 31.11786601 -5.99856242 38.50215636 -1 46 C-0.67 30.82 -0.34 15.64 0 0 Z " fill="#2A284C" transform="translate(913,1509)"/>
<path d="M0 0 C2.64 0 5.28 0 8 0 C8 19.8 8 39.6 8 60 C5.03 60 2.06 60 -1 60 C-3.11263812 57.7856297 -4.10217457 56.33866181 -5.4375 53.6875 C-6.25123454 52.23717506 -7.07216582 50.79087538 -7.8984375 49.34765625 C-8.36604492 48.52023926 -8.83365234 47.69282227 -9.31542969 46.84033203 C-12.8132324 40.9427325 -16.72855933 35.30730503 -20.5625 29.625 C-21.77362149 27.82349887 -22.98339101 26.021109 -24.19161987 24.21766663 C-25.25693211 22.62782027 -26.32480213 21.03968868 -27.39282227 19.45166016 C-29 17 -29 17 -30 15 C-30.33 29.85 -30.66 44.7 -31 60 C-33.64 60 -36.28 60 -39 60 C-39 40.53 -39 21.06 -39 1 C-31 1 -31 1 -28.890625 2.73828125 C-28.07851563 4.01251953 -28.07851563 4.01251953 -27.25 5.3125 C-26.59257813 6.31410156 -25.93515625 7.31570313 -25.2578125 8.34765625 C-24.50405801 9.56439231 -23.75155717 10.78190547 -23 12 C-22.06162717 13.4789645 -21.12140947 14.95675953 -20.1796875 16.43359375 C-18.68938123 18.776898 -17.20420649 21.12244071 -15.73925781 23.48168945 C-10.99511477 31.11786601 -5.99856242 38.50215636 -1 46 C-0.67 30.82 -0.34 15.64 0 0 Z " fill="#2A284C" transform="translate(773,1509)"/>
<path d="M0 0 C2.64 0 5.28 0 8 0 C10.28102287 2.31204097 11.66735363 4.08353372 13.3125 6.796875 C13.77052002 7.5008844 14.22854004 8.2048938 14.70043945 8.93023682 C16.16058575 11.18746571 17.58037634 13.46711776 19 15.75 C19.95312686 17.23994916 20.908834 18.72825104 21.8671875 20.21484375 C23.66085482 23.00279342 25.43712334 25.80041247 27.19921875 28.60839844 C30.71767047 34.1253013 34.37039016 39.55558524 38 45 C38.33 30.15 38.66 15.3 39 0 C41.31 0 43.62 0 46 0 C46 19.47 46 38.94 46 59 C38 59 38 59 36.12251282 57.61120605 C35.71123642 56.96026978 35.29996002 56.3093335 34.8762207 55.63867188 C34.39244461 54.90370483 33.90866852 54.16873779 33.41023254 53.41149902 C32.92036362 52.60539185 32.43049469 51.79928467 31.92578125 50.96875 C31.39405807 50.14427368 30.8623349 49.31979736 30.3144989 48.47033691 C28.6201928 45.82965926 26.96642425 43.16611337 25.3125 40.5 C24.18942831 38.73533496 23.06380251 36.97229264 21.93554688 35.2109375 C19.43218447 31.29001343 16.95372985 27.35466768 14.49653625 23.40466309 C12.33612026 19.93326533 10.16704115 16.46726583 8 13 C7.67 28.18 7.34 43.36 7 59 C4.69 59 2.38 59 0 59 C0 39.53 0 20.06 0 0 Z " fill="#222045" transform="translate(1244,1510)"/>
<path d="M0 0 C2 1 2 1 3.0078125 3.75390625 C3.37648438 5.01074219 3.74515625 6.26757812 4.125 7.5625 C6.29936276 14.81963564 8.64638253 22.00734896 11.0625 29.1875 C19 52.89268648 19 52.89268648 19 57 C6.79 57 -5.42 57 -18 57 C-16.0478157 49.84199089 -14.0250959 42.87126617 -11.625 35.875 C-9.13383411 28.52342447 -6.78661801 21.15413499 -4.68603516 13.68115234 C-3.35874977 9.01010592 -1.74799247 4.52569316 0 0 Z " fill="#FAFAFA" transform="translate(773,1322)"/>
<path d="M0 0 C0.66 0 1.32 0 2 0 C8.85191727 20.36798847 8.85191727 20.36798847 11.890625 30.45703125 C13.73375413 36.34336266 15.72574514 42.1810839 17.71484375 48.01953125 C18.15763672 49.33050781 18.15763672 49.33050781 18.609375 50.66796875 C18.87717773 51.45453857 19.14498047 52.2411084 19.42089844 53.05151367 C20 55 20 55 20 57 C7.79 57 -4.42 57 -17 57 C-14.77309783 45.86548913 -14.77309783 45.86548913 -12.6875 40.4375 C-10.49937972 34.51481666 -8.6340877 28.56180124 -6.88671875 22.49609375 C-4.71350388 14.95861432 -2.36549558 7.4789924 0 0 Z " fill="#FAFAFA" transform="translate(1264,1322)"/>
<path d="M0 0 C2.64 0 5.28 0 8 0 C8.33 8.58 8.66 17.16 9 26 C16.53156014 17.83800547 16.53156014 17.83800547 23.9375 9.5625 C24.48664063 8.94503906 25.03578125 8.32757812 25.6015625 7.69140625 C27.1830871 5.86285517 27.1830871 5.86285517 28.8125 3 C31.52701901 0.51815405 32.64956722 0.70264909 36.25 0.6875 C37.83473048 0.76765255 39.41906283 0.8642325 41 1 C37.58932331 5.80992867 34.02141638 10.11164855 29.79296875 14.21875 C24.58856304 19.38913998 20.21507629 25.01545483 16 31 C16.43755615 31.4626123 16.8751123 31.92522461 17.32592773 32.40185547 C40.4140625 56.828125 40.4140625 56.828125 42 60 C38.51512536 60.5893003 35.47617093 60.70397316 32 60 C28.44277457 57.46977998 25.78664187 54.33876157 23 51 C21.79190431 49.64562132 20.58358691 48.29144035 19.375 46.9375 C18.26125 45.638125 17.1475 44.33875 16 43 C13.69 40.36 11.38 37.72 9 35 C8.67 43.25 8.34 51.5 8 60 C5.36 60 2.72 60 0 60 C0 40.2 0 20.4 0 0 Z " fill="#29274B" transform="translate(1315,1509)"/>
<path d="M0 0 C5.76257466 3.22256602 9.0428878 7.28840469 12.01171875 13.125 C12.01171875 13.785 12.01171875 14.445 12.01171875 15.125 C8.94010385 15.4794171 6.06984134 15.64802969 3.01171875 15.125 C0.94921875 12.375 0.94921875 12.375 -0.98828125 9.125 C-6.22421102 4.78365119 -12.28029942 4.45841716 -18.859375 4.671875 C-24.77918349 5.52917561 -28.23878833 8.37550708 -32.36328125 12.5 C-36.29996016 18.85925055 -36.8188389 25.82429576 -35.98828125 33.125 C-33.92707122 40.34480596 -30.36278311 45.24306627 -23.73828125 48.9375 C-16.50459617 51.22816694 -10.81096366 50.69173398 -3.97265625 47.4140625 C-1.91205918 46.07548566 -0.87460608 44.87852425 0.51171875 42.875 C3.01171875 40.125 3.01171875 40.125 5.3125 39.7421875 C7.57568093 39.74922694 9.7649923 39.86067924 12.01171875 40.125 C9.52177809 47.75044326 4.87382527 52.10691998 -2.1953125 55.80078125 C-6.41367208 57.51001226 -10.42079966 57.60431839 -14.92578125 57.5625 C-15.68568359 57.58248047 -16.44558594 57.60246094 -17.22851562 57.62304688 C-24.6082944 57.61674476 -30.96191538 54.75318004 -36.5390625 49.87890625 C-43.45007412 41.51490566 -45.97255903 31.71301665 -44.98828125 21.125 C-42.77880115 12.06080754 -37.53882313 5.20623099 -29.73828125 0.1875 C-20.96467013 -4.98893056 -9.02864299 -4.29793253 0 0 Z " fill="#28264A" transform="translate(986.98828125,1511.875)"/>
<path d="M0 0 C10.56 0 21.12 0 32 0 C32 2.31 32 4.62 32 7 C24.08 7 16.16 7 8 7 C8 13.6 8 20.2 8 27 C14.93 27 21.86 27 29 27 C29 28.98 29 30.96 29 33 C22.07 33 15.14 33 8 33 C8 39.93 8 46.86 8 54 C15.92 54 23.84 54 32 54 C32 55.98 32 57.96 32 60 C21.44 60 10.88 60 0 60 C0 40.2 0 20.4 0 0 Z " fill="#272549" transform="translate(1022,1509)"/>
<path d="M0 0 C11.22 0 22.44 0 34 0 C34 2.31 34 4.62 34 7 C25.42 7 16.84 7 8 7 C8 13.6 8 20.2 8 27 C14.93 27 21.86 27 29 27 C29 28.98 29 30.96 29 33 C22.07 33 15.14 33 8 33 C8 41.91 8 50.82 8 60 C5.36 60 2.72 60 0 60 C0 40.2 0 20.4 0 0 Z " fill="#2C2A4D" transform="translate(647,1509)"/>
<path d="M0 0 C3.031875 -0.061875 6.06375 -0.12375 9.1875 -0.1875 C10.60712036 -0.22846802 10.60712036 -0.22846802 12.05541992 -0.27026367 C16.84936401 -0.3175874 20.15522761 -0.20273273 24 3 C26.48386059 6.72579089 26.3804212 8.58711402 26 13 C24.62912108 16.35103737 23.49456016 17.68562258 20.4375 19.62890625 C16.14536359 21.34088338 12.68084078 21.3368935 8.125 21.1875 C5.44375 21.125625 2.7625 21.06375 0 21 C0 14.07 0 7.14 0 0 Z " fill="#F9F9FA" transform="translate(1119,1542)"/>
<path d="M0 0 C2.866875 -0.061875 5.73375 -0.12375 8.6875 -0.1875 C10.02880981 -0.22846802 10.02880981 -0.22846802 11.3972168 -0.27026367 C16.08604008 -0.31916583 19.21011422 -0.08722451 23 3 C24.13624119 5.27248238 24.26446843 6.78302764 24.375 9.3125 C24.42398437 10.07175781 24.47296875 10.83101562 24.5234375 11.61328125 C23.68950913 15.4157457 22.13555749 16.74049587 19 19 C15.6972265 19.59398432 12.52916178 19.4732252 9.1875 19.3125 C6.155625 19.209375 3.12375 19.10625 0 19 C0 12.73 0 6.46 0 0 Z " fill="#FCFBFC" transform="translate(1119,1516)"/>
<path d="M0 0 C2.31 0 4.62 0 7 0 C7 19.47 7 38.94 7 59 C4.69 59 2.38 59 0 59 C0 39.53 0 20.06 0 0 Z " fill="#201E43" transform="translate(702,1510)"/>
<path d="M0 0 C3.546166 3.546166 4.51930553 8.69976238 6.125 13.375 C6.68380859 14.95667969 6.68380859 14.95667969 7.25390625 16.5703125 C7.60582031 17.58609375 7.95773437 18.601875 8.3203125 19.6484375 C8.64273926 20.57833496 8.96516602 21.50823242 9.29736328 22.46630859 C10 25 10 25 10 29 C3.4 29 -3.2 29 -10 29 C-9.29267649 24.75605895 -8.62496927 21.56362995 -7.1875 17.63671875 C-6.83429687 16.66798828 -6.48109375 15.69925781 -6.1171875 14.70117188 C-5.56417969 13.2094043 -5.56417969 13.2094043 -5 11.6875 C-4.44699219 10.16672852 -4.44699219 10.16672852 -3.8828125 8.61523438 C-1.1385086 1.1385086 -1.1385086 1.1385086 0 0 Z " fill="#F6F5F7" transform="translate(827,1520)"/>
<path d="M0 0 C0.66 0 1.32 0 2 0 C3.51041757 4.07955572 5.0065145 8.16421836 6.5 12.25 C7.14388672 13.98830078 7.14388672 13.98830078 7.80078125 15.76171875 C8.40986328 17.43427734 8.40986328 17.43427734 9.03125 19.140625 C9.40830078 20.16704102 9.78535156 21.19345703 10.17382812 22.25097656 C11 25 11 25 11 29 C4.4 29 -2.2 29 -9 29 C-8.2858214 24.71492839 -7.56809961 21.38288463 -6.15234375 17.3828125 C-5.79462891 16.36445312 -5.43691406 15.34609375 -5.06835938 14.296875 C-4.50858398 12.72679687 -4.50858398 12.72679687 -3.9375 11.125 C-3.37192383 9.52011719 -3.37192383 9.52011719 -2.79492188 7.8828125 C-1.86766315 5.2536232 -0.93590193 2.62612238 0 0 Z " fill="#F5F5F7" transform="translate(1196,1520)"/>
</svg>
