<?xml version="1.0" encoding="UTF-8"?>
<svg version="1.1" xmlns="http://www.w3.org/2000/svg" width="2000" height="2000">
<path d="M0 0 C660 0 1320 0 2000 0 C2000 660 2000 1320 2000 2000 C1340 2000 680 2000 0 2000 C0 1340 0 680 0 0 Z " fill="#003194" transform="translate(0,0)"/>
<path d="M0 0 C0.66 0 1.32 0 2 0 C1.9939037 1.43952561 1.9939037 1.43952561 1.98768425 2.90813255 C1.89100647 26.27828525 1.85195057 49.64799566 1.87302971 73.01834679 C1.8818948 84.32024521 1.87215737 95.62155165 1.81835938 106.92333984 C1.77150657 116.77607024 1.75982982 126.62811308 1.7900821 136.48091948 C1.80487558 141.69639555 1.80226584 146.91053274 1.75750351 152.12586594 C1.71588434 157.03982196 1.72147147 161.9515127 1.76252174 166.86545181 C1.7693631 168.664109 1.75928286 170.4629268 1.73056984 172.2613678 C1.42890417 182.25260074 1.42890417 182.25260074 5.17180252 191.22809601 C7.65813942 193.74502288 10.17458169 195.87866854 13 198 C14.30433322 199.19441273 15.59981003 200.39871645 16.87890625 201.62011719 C19.96122752 204.27082873 23.20330172 206.53147451 26.58984375 208.77832031 C33.73890438 213.53797402 40.45610268 218.69345856 47 224.25 C47.59462162 224.75441746 48.18924324 225.25883492 48.8018837 225.77853775 C65.11918161 239.90210191 73.32718612 254.21725039 75.00338745 275.92422485 C76.63226702 304.91618784 74.59322046 334.1209895 72 363 C84.87 363 97.74 363 111 363 C111 339.9 111 316.8 111 293 C121.085625 292.87625 121.085625 292.87625 131.375 292.75 C134.52748291 292.69537598 134.52748291 292.69537598 137.74365234 292.63964844 C139.4410704 292.62794756 141.13849982 292.61775906 142.8359375 292.609375 C143.6916333 292.58891113 144.5473291 292.56844727 145.42895508 292.54736328 C152.49578001 292.54335146 159.64620813 293.88899252 164.98178101 298.83831787 C169.8734035 304.3673047 170.40047665 308.28227225 170.3515625 315.66015625 C169.65854936 322.24378107 165.84326626 326.69487443 161 331 C162.19625 331.515625 163.3925 332.03125 164.625 332.5625 C169.46833317 334.97986522 173.77350731 338.55983758 175.640625 343.796875 C176.85699159 351.25373106 177.37377506 359.68863 173.32421875 366.32421875 C168.90058463 371.92226901 163.93960378 375.16225547 157 377 C152.61653042 377.51329784 148.24623031 377.60320035 143.8359375 377.68359375 C142.53490082 377.71682236 141.23386414 377.75005096 139.8934021 377.7842865 C123.94180965 378.16631136 107.98206765 378.11417386 92.02716064 378.06866455 C87.94259183 378.05818252 83.85801606 378.05381537 79.7734375 378.04882812 C71.84894034 378.03830399 63.92447529 378.021385 56 378 C56.03171799 377.43903877 56.06343597 376.87807755 56.09611511 376.30011749 C56.86526713 362.43709291 57.39492923 348.58052352 57.68133545 334.6989212 C57.82529391 327.98150998 58.0454052 321.2867024 58.44482422 314.578125 C60.85867186 279.81758914 60.85867186 279.81758914 46.16796875 249.5390625 C37.42484327 239.92761537 27.53482805 231.62448659 17.2315979 223.74739075 C12.184768 219.79561079 7.53078652 215.53078652 3 211 C2.67 266.11 2.34 321.22 2 378 C-3.28 378 -8.56 378 -14 378 C-14 265.8 -14 153.6 -14 38 C-20.72266479 43.87584096 -20.72266479 43.87584096 -27.13085938 50.01733398 C-28.05120972 50.93775986 -28.97156006 51.85818573 -29.9197998 52.8065033 C-30.89450489 53.78631205 -31.8691537 54.76617679 -32.84375 55.74609375 C-33.86342709 56.76764047 -34.88332856 57.78896326 -35.90344238 58.81007385 C-38.56225061 61.47266437 -41.21803958 64.13824599 -43.87316895 66.80450439 C-46.59328393 69.53492671 -49.31630185 72.26245074 -52.0390625 74.99023438 C-57.36218863 80.324022 -62.68212218 85.66097916 -68 91 C-67.06615354 92.10677442 -66.12978062 93.21141738 -65.19238281 94.31518555 C-64.67121887 94.93056686 -64.15005493 95.54594818 -63.61309814 96.17997742 C-61.17448805 98.93140669 -58.48920114 101.3660636 -55.75 103.8125 C-54.15045939 105.24803708 -52.56763177 106.68514418 -51.02699852 108.18406105 C-49.00772948 110.0836118 -49.00772948 110.0836118 -46.49993324 111.64264488 C-42.49396969 114.68479874 -39.6187829 117.43556389 -38.4282527 122.36950541 C-37.48654097 129.81664103 -37.74864389 137.32967868 -37.86474609 144.81884766 C-37.86756868 147.36216113 -37.86597989 149.90548276 -37.86032104 152.4487915 C-37.85804867 157.91242644 -37.88628318 163.37452897 -37.94269943 168.83784866 C-38.0242092 176.73638102 -38.05003767 184.63433698 -38.06257935 192.5332443 C-38.08442878 205.3504536 -38.15087629 218.16702402 -38.24560547 230.98388672 C-38.33749224 243.42916686 -38.40822863 255.87427304 -38.45068359 268.31982422 C-38.45331083 269.08784184 -38.45593806 269.85585947 -38.45864491 270.64715035 C-38.47169594 274.5003333 -38.48433286 278.35351748 -38.49676394 282.20670247 C-38.60031618 314.13827015 -38.77709228 346.0690355 -39 378 C-43.95 378 -48.9 378 -54 378 C-53.99317042 376.71747471 -53.98634085 375.43494942 -53.97930431 374.11355972 C-53.81992632 343.63730731 -53.72791254 313.16167366 -53.71833299 282.68503411 C-53.71709415 278.93015916 -53.71528942 275.17528469 -53.71313477 271.42041016 C-53.71271534 270.67291357 -53.71229592 269.92541699 -53.71186379 269.155269 C-53.70373322 257.06745688 -53.64980774 244.98026389 -53.57881906 232.89267614 C-53.50694824 220.48041999 -53.48461265 208.06877962 -53.50781661 195.65633368 C-53.5205763 188.00274908 -53.49516071 180.35127815 -53.42018137 172.69804195 C-53.36673942 166.81961816 -53.38237354 160.94261863 -53.4231987 155.06405449 C-53.42922391 152.65988357 -53.41317032 150.25553618 -53.37295341 147.85169411 C-53.32117036 144.55512436 -53.35035527 141.26839702 -53.39872742 137.97198486 C-53.36475143 137.03031094 -53.33077544 136.08863701 -53.29576987 135.11842752 C-53.28528998 131.89302036 -53.28528998 131.89302036 -55 127 C-61.435 121.06 -61.435 121.06 -68 115 C-82.85 100.15 -82.85 100.15 -98 85 C-98.33 181.69 -98.66 278.38 -99 378 C-104.28 378 -109.56 378 -115 378 C-115.33 308.7 -115.66 239.4 -116 168 C-129.2 181.2 -142.4 194.4 -156 208 C-164 215 -164 215 -166.96004772 217.52502728 C-169.58726616 220.71250085 -169.62946962 222.50075169 -169.63923645 226.5995636 C-169.65176996 227.57377369 -169.65176996 227.57377369 -169.66455668 228.5676648 C-169.68644204 230.73617236 -169.67289563 232.90297896 -169.65942383 235.0715332 C-169.66787873 236.62891422 -169.67852362 238.18628465 -169.69119263 239.74363708 C-169.71934456 243.96649424 -169.71686648 248.18884355 -169.70889878 252.41176629 C-169.70577445 256.82676711 -169.7308059 261.24160597 -169.75285339 265.65653992 C-169.79031269 274.0145707 -169.8024425 282.37243878 -169.8054778 290.73054522 C-169.81104338 302.02641757 -169.85572483 313.32213074 -169.89821911 324.61791325 C-169.96412813 342.41198169 -169.9777647 360.20569931 -170 378 C-193.1 378 -216.2 378 -240 378 C-240 373.05 -240 368.1 -240 363 C-221.85 363 -203.7 363 -185 363 C-185.15186768 358.60792236 -185.30373535 354.21584473 -185.46020508 349.69067383 C-185.94376452 335.07249199 -186.26371253 320.45396448 -186.50255299 305.82983875 C-186.65108424 296.97389883 -186.85359895 288.12569201 -187.18774414 279.2746582 C-189.57460413 214.80091134 -189.57460413 214.80091134 -176.82358456 199.76531124 C-171.63028555 194.30601221 -165.72148399 189.89154089 -159.28585815 186.00704956 C-155.89959633 183.93867199 -153.16899762 181.69724012 -150.28205872 179.00666809 C-148.37928537 177.33351458 -146.46052517 175.81289812 -144.4382782 174.29179382 C-131.39979145 164.40525581 -116.79541743 153.10175378 -113.69532776 136.2024231 C-112.01779615 123.16389173 -112.63996429 109.99878803 -113.33917236 96.91009521 C-113.61072159 91.15232407 -113.69269293 85.39175326 -113.79296875 79.62890625 C-114.01500081 68.40912534 -114.43894407 57.20760391 -115 46 C-113.90039988 46.93284913 -112.80220242 47.86735176 -111.70457458 48.80252075 C-110.78700457 49.58284762 -110.78700457 49.58284762 -109.85089779 50.37893867 C-106.90866998 52.95581339 -104.1618157 55.7149139 -101.41015625 58.4921875 C-100.82076767 59.08299103 -100.23137909 59.67379456 -99.62413025 60.28250122 C-97.76786273 62.14430404 -95.91512915 64.00957745 -94.0625 65.875 C-92.79385328 67.14867011 -91.5249751 68.42210971 -90.25585938 69.6953125 C-87.16789446 72.79422043 -84.08309071 75.89624301 -81 79 C-76.67538168 77.34110847 -73.79618463 74.05460245 -70.61425781 70.82543945 C-69.66705368 69.87626396 -69.66705368 69.87626396 -68.70071411 68.90791321 C-66.61355171 66.8142592 -64.53345646 64.71372095 -62.453125 62.61328125 C-60.9987816 61.1526639 -59.54391948 59.69256287 -58.08856201 58.23295593 C-54.25363673 54.38472086 -50.42430717 50.5309694 -46.59655762 46.67559814 C-40.48567301 40.52163885 -34.36818996 34.37425874 -28.24727631 28.23027611 C-26.11791813 26.09076413 -23.99204936 23.94783071 -21.86651611 21.80451965 C-20.54557098 20.47673797 -19.22451154 19.14907 -17.90332031 17.8215332 C-17.03016678 16.93827362 -17.03016678 16.93827362 -16.13937378 16.03717041 C-12.50683046 12.39480517 -8.74097011 8.98972788 -4.8002739 5.68205547 C-2.90918633 4.02090585 -2.90918633 4.02090585 -1.39024734 1.79227161 C-0.70207491 0.90509717 -0.70207491 0.90509717 0 0 Z " fill="#FBFBFD" transform="translate(1023,750)"/>
<path d="M0 0 C50.37410287 0 50.37410287 0 62.75 11.125 C72.93167184 21.8986295 72.51126056 35.62606638 72.13183594 49.42822266 C71.64686517 58.88874505 67.94039353 68.05960647 61.18359375 74.81640625 C43.80336159 88.82592672 21.12795245 84 0 84 C0 56.28 0 28.56 0 0 Z " fill="#FAFAFC" transform="translate(1410,1043)"/>
<path d="M0 0 C46.82489562 0 46.82489562 0 55.3359375 8.12109375 C59.65607368 12.99899399 60.56308572 18.13026227 60.3515625 24.4375 C59.59279367 29.96808167 57.56913079 34.43086921 53.625 38.375 C50.82336539 40.10934524 47.98720044 41.61060445 45 43 C45.721875 43.66 46.44375 44.32 47.1875 45 C54.27985755 52.22149011 56.91070385 60.99142511 59.8125 70.5 C60.222271 71.81282391 60.63307081 73.12532715 61.04492188 74.4375 C62.04003594 77.62186501 63.02140908 80.81051848 64 84 C58.06 84 52.12 84 46 84 C45.02160156 80.82117187 45.02160156 80.82117187 44.0234375 77.578125 C43.37313153 75.51785121 42.71550118 73.46005207 42.05712891 71.40234375 C41.60541266 69.97702865 41.16128497 68.54928444 40.72509766 67.11914062 C40.09463496 65.05685263 39.43687679 63.00500748 38.7734375 60.953125 C38.38591309 59.71723633 37.99838867 58.48134766 37.59912109 57.20800781 C35.51592749 53.02889881 34.30711771 51.89420003 30 50 C23.07 49.505 23.07 49.505 16 49 C16 60.55 16 72.1 16 84 C10.72 84 5.44 84 0 84 C0 56.28 0 28.56 0 0 Z " fill="#FCFCFD" transform="translate(1572,1043)"/>
<path d="M0 0 C5.28 0 10.56 0 16 0 C16.01458252 1.68480469 16.02916504 3.36960937 16.04418945 5.10546875 C16.09601923 10.69753021 16.16135222 16.28932711 16.23571491 21.88113403 C16.28027556 25.26855042 16.31956199 28.6558505 16.34643555 32.04345703 C16.38008992 35.94593252 16.43241401 39.84778692 16.48828125 43.75 C16.49467117 44.95551514 16.5010611 46.16103027 16.50764465 47.40307617 C16.6391317 54.97961993 16.77795453 61.85850567 22.5 67.4375 C27.73518481 70.70949051 33.00334152 70.56525879 39 70 C43.86771325 68.73471692 46.40372384 66.90467648 49.18457031 62.68554688 C51.90433558 56.86870027 51.60305981 50.84001776 51.609375 44.53125 C51.62591125 43.25519897 51.64244751 41.97914795 51.65948486 40.66442871 C51.69966009 37.29744566 51.72309808 33.93121464 51.73822021 30.56408691 C51.75788658 27.11809118 51.79984524 23.6723716 51.83984375 20.2265625 C51.91362522 13.48440585 51.96325982 6.74245613 52 0 C57.28 0 62.56 0 68 0 C68.09083683 7.76340441 68.16402205 15.52651155 68.20724869 23.29030323 C68.22800899 26.89645653 68.25611051 30.50222335 68.30175781 34.1081543 C68.34563443 37.59655674 68.36922369 41.08459054 68.37950897 44.57324791 C68.39035587 46.53339691 68.42151319 48.49340026 68.45318604 50.45332336 C68.45577018 60.89200942 66.71002955 70.58152534 59.12890625 78.2734375 C51.45060442 84.50061072 43.46393184 85.45332505 33.875 85.5625 C32.95710693 85.57732422 32.03921387 85.59214844 31.09350586 85.60742188 C21.61038413 85.46475469 13.63585131 82.50954042 6.69140625 76 C1.58971562 69.96751593 -0.12947646 62.6666069 -0.11352539 54.94628906 C-0.11344986 53.72532532 -0.11337433 52.50436157 -0.11329651 51.24639893 C-0.10813522 49.93274353 -0.10297394 48.61908813 -0.09765625 47.265625 C-0.09579021 45.9037074 -0.09436718 44.54178912 -0.09336853 43.17987061 C-0.08955803 39.60258111 -0.07974032 36.02533248 -0.06866455 32.44805908 C-0.05841884 28.79480543 -0.05386415 25.14154514 -0.04882812 21.48828125 C-0.03811669 14.32550008 -0.02053182 7.16276098 0 0 Z " fill="#FCFCFD" transform="translate(1215,1043)"/>
<path d="M0 0 C2.27471236 1.54430014 4.04857332 3.04857332 6 5 C3.33333333 9 0.66666667 13 -2 17 C-4.01507538 15.99471631 -6.02795722 14.98577992 -8.03515625 13.96484375 C-8.70417969 13.62582031 -9.37320312 13.28679687 -10.0625 12.9375 C-10.73410156 12.59589844 -11.40570312 12.25429687 -12.09765625 11.90234375 C-17.28265988 9.44292725 -22.36572966 9.52578894 -28 10 C-31.83390469 11.49806147 -31.83390469 11.49806147 -35 14 C-35.63619824 19.36971699 -35.63619824 19.36971699 -33.58203125 24.10546875 C-29.8145995 26.86977192 -25.89272874 27.52816541 -21.375 28.5 C0.18443585 33.52042593 0.18443585 33.52042593 5.40625 41.01953125 C9.37051689 47.83586792 10.18039326 54.23225082 9 62 C6.5902129 69.51526823 2.78720765 74.02151146 -3.90234375 78.18359375 C-13.13313448 82.87199185 -25.60223664 82.38866181 -35.52734375 80.234375 C-43.49773878 77.47917672 -49.24188877 73.032307 -55 67 C-53.49087042 62.01987239 -50.44338151 58.75740058 -47 55 C-43.4477628 55.58027716 -41.83807035 56.86531374 -39.3125 59.375 C-33.38471686 64.7209822 -27.02118757 66.59456491 -19.078125 66.2890625 C-15.11565397 65.73789172 -12.11039634 64.41323171 -9.625 61.25 C-8.70839616 57.95022617 -8.57413388 55.40692896 -9 52 C-13.99032092 46.2047886 -22.35970568 45.11812229 -29.5 43.625 C-38.27738807 41.6459861 -44.84240668 38.50195392 -50 31 C-53.10146129 24.68670512 -52.79864465 17.83126405 -52 11 C-49.7182138 4.97675555 -45.68290287 1.20706985 -40.22265625 -2.02734375 C-27.43488103 -7.62340004 -12.15767464 -6.60549136 0 0 Z " fill="#FAFBFC" transform="translate(1698,1047)"/>
<path d="M0 0 C18.48 0 36.96 0 56 0 C56 4.62 56 9.24 56 14 C42.8 14 29.6 14 16 14 C16 20.6 16 27.2 16 34 C27.22 34 38.44 34 50 34 C50 38.29 50 42.58 50 47 C38.78 47 27.56 47 16 47 C16 54.59 16 62.18 16 70 C29.53 70 43.06 70 57 70 C57 74.62 57 79.24 57 84 C38.19 84 19.38 84 0 84 C0 56.28 0 28.56 0 0 Z " fill="#FCFCFD" transform="translate(1500,1043)"/>
<path d="M0 0 C4.12216664 3.23511812 6.5303325 6.8799666 8.7890625 11.578125 C8.7890625 12.238125 8.7890625 12.898125 8.7890625 13.578125 C6.234375 15.3046875 6.234375 15.3046875 2.9140625 17.203125 C1.27824219 18.15058594 1.27824219 18.15058594 -0.390625 19.1171875 C-3.2109375 20.578125 -3.2109375 20.578125 -5.2109375 20.578125 C-6.25390625 18.93359375 -6.25390625 18.93359375 -7.3984375 16.765625 C-9.40965051 13.50964979 -11.06693891 11.26003843 -14.85546875 9.98046875 C-21.76294543 8.80058467 -29.31878549 7.93516541 -35.5390625 11.46875 C-41.13059665 15.88311906 -43.8797262 20.64027923 -45.2109375 27.578125 C-45.93659564 37.87130658 -45.91408792 48.61603149 -40.2109375 57.578125 C-35.70900689 62.14346309 -31.48096577 64.85994277 -25.0234375 64.953125 C-19.4171243 64.83320386 -14.88579105 63.74339043 -10.2109375 60.578125 C-7.3804399 57.16701251 -5.68126242 53.74404562 -4.2109375 49.578125 C-0.450639 50.15920132 2.31941282 51.23011996 5.6015625 53.140625 C6.39175781 53.59566406 7.18195313 54.05070312 7.99609375 54.51953125 C8.58777344 54.86886719 9.17945313 55.21820312 9.7890625 55.578125 C7.58526331 64.68716166 3.02714164 71.00597929 -4.765625 76.3203125 C-14.68257917 81.29283626 -27.19449452 81.22107298 -37.84765625 78.7265625 C-47.62122179 75.04739698 -54.75357472 68.83606019 -59.140625 59.36328125 C-59.49382813 58.44417969 -59.84703125 57.52507812 -60.2109375 56.578125 C-60.46915283 55.93770264 -60.72736816 55.29728027 -60.9934082 54.63745117 C-63.24301436 48.62404236 -63.71900317 43.1554299 -63.6484375 36.765625 C-63.64013916 35.79657227 -63.63184082 34.82751953 -63.62329102 33.82910156 C-63.3462538 22.07325913 -60.21901299 12.41146018 -52.2109375 3.578125 C-37.53802571 -9.29711216 -16.5076713 -10.61624091 0 0 Z " fill="#F9FAFC" transform="translate(605.2109375,1047.421875)"/>
<path d="M0 0 C5.94 0 11.88 0 18 0 C20.24508127 3.89437218 22.48809186 7.78979603 24.72607422 11.68823242 C25.48726886 13.01280167 26.24962449 14.33670447 27.01318359 15.65991211 C28.11344844 17.56708566 29.20945152 19.47665387 30.3046875 21.38671875 C30.6443454 21.97337814 30.9840033 22.56003754 31.33395386 23.16447449 C33.16359992 26.36570767 34.72463421 29.5395075 36 33 C38.97352201 30.23904334 40.96943335 27.61826127 42.875 24.04296875 C43.64070312 22.62081055 43.64070312 22.62081055 44.421875 21.16992188 C44.94265625 20.18572266 45.4634375 19.20152344 46 18.1875 C47.04109267 16.24318213 48.08274718 14.29916497 49.125 12.35546875 C49.80949219 11.06612427 49.80949219 11.06612427 50.5078125 9.75073242 C52.28655871 6.47175115 54.14921846 3.2388677 56 0 C61.94 0 67.88 0 74 0 C72.41312186 3.96719535 70.76789329 7.33679995 68.65625 11.015625 C68.33060562 11.58328583 68.00496124 12.15094666 67.66944885 12.73580933 C66.97427004 13.94697089 66.27787219 15.15743343 65.58035278 16.36724854 C64.48535149 18.27552823 63.40437531 20.19121008 62.32592773 22.10888672 C56.26288908 32.83680146 56.26288908 32.83680146 52.75390625 37.4296875 C42.66989523 50.9867681 44.68606044 67.83211285 45 84 C39.39 84 33.78 84 28 84 C28.06703125 81.71707031 28.1340625 79.43414063 28.203125 77.08203125 C28.51086916 59.02883478 27.71930747 45.7783148 16.87207031 30.71972656 C13.53077234 25.86551954 10.67844433 20.7152871 7.76861572 15.5954895 C6.76569469 13.83997206 5.74840566 12.09363761 4.72607422 10.34936523 C4.11006348 9.29177002 3.49405273 8.2341748 2.859375 7.14453125 C2.30733398 6.19940674 1.75529297 5.25428223 1.18652344 4.28051758 C0 2 0 2 0 0 Z " fill="#F9FAFC" transform="translate(726,1042)"/>
<path d="M0 0 C21.45 0 42.9 0 65 0 C65 4.62 65 9.24 65 14 C57.08 14 49.16 14 41 14 C41 37.1 41 60.2 41 84 C35.39 84 29.78 84 24 84 C24 60.9 24 37.8 24 14 C16.08 14 8.16 14 0 14 C0 9.38 0 4.76 0 0 Z " fill="#F8FAFC" transform="translate(658,1042)"/>
<path d="M0 0 C24.47234043 0 24.47234043 0 31.078125 5.8359375 C37.25749548 12.39209886 38.34708308 18.56297958 38.3125 27.3125 C38.32861328 28.11623047 38.34472656 28.91996094 38.36132812 29.74804688 C38.36694477 36.72953999 36.92045142 42.79924763 33.3125 48.8125 C23.86992951 57.74466128 12.69302817 56 0 56 C0 37.52 0 19.04 0 0 Z " fill="#01288C" transform="translate(1427,1057)"/>
<path d="M0 0 C5.28 0 10.56 0 16 0 C16 23.1 16 46.2 16 70 C28.54 70 41.08 70 54 70 C54 74.62 54 79.24 54 84 C36.18 84 18.36 84 0 84 C0 56.28 0 28.56 0 0 Z " fill="#FDFDFE" transform="translate(1343,1043)"/>
<path d="M0 0 C5.61 0 11.22 0 17 0 C17 27.72 17 55.44 17 84 C11.39 84 5.78 84 0 84 C0 56.28 0 28.56 0 0 Z " fill="#F8F9FC" transform="translate(1304,1043)"/>
<path d="M0 0 C5.61 0 11.22 0 17 0 C17 27.72 17 55.44 17 84 C11.39 84 5.78 84 0 84 C0 56.28 0 28.56 0 0 Z " fill="#F8F9FC" transform="translate(628,1042)"/>
<path d="M0 0 C5.4759375 -0.0928125 5.4759375 -0.0928125 11.0625 -0.1875 C12.76805054 -0.22846802 12.76805054 -0.22846802 14.50805664 -0.27026367 C20.45216167 -0.31886163 24.81605934 -0.0175177 30 3 C33.11266915 7.66900373 32.59836278 12.53347583 32 18 C29.7127718 22.23560777 27.46738941 23.51935182 23 25 C20.32104492 25.22705078 20.32104492 25.22705078 17.48046875 25.1953125 C16.55903076 25.19031738 15.63759277 25.18532227 14.68823242 25.18017578 C13.53299072 25.16196777 12.37774902 25.14375977 11.1875 25.125 C5.6496875 25.063125 5.6496875 25.063125 0 25 C0 16.75 0 8.5 0 0 Z " fill="#043092" transform="translate(1150,1089)"/>
<path d="M0 0 C3.01125 -0.061875 6.0225 -0.12375 9.125 -0.1875 C10.06230957 -0.21481201 10.99961914 -0.24212402 11.96533203 -0.27026367 C17.05682897 -0.32069064 20.63185792 0.08110132 25 3 C27.96517497 7.44776246 27.76239491 11.78521883 27 17 C24.47429367 20.41311667 23.00086696 21.66637768 19 23 C17.51876453 23.0806622 16.03417796 23.10761193 14.55078125 23.09765625 C13.78677002 23.09515869 13.02275879 23.09266113 12.2355957 23.09008789 C11.27097412 23.08098389 10.30635254 23.07187988 9.3125 23.0625 C4.7028125 23.0315625 4.7028125 23.0315625 0 23 C0 15.41 0 7.82 0 0 Z " fill="#092C8C" transform="translate(1588,1056)"/>
<path d="M0 0 C5.0428125 -0.0928125 5.0428125 -0.0928125 10.1875 -0.1875 C11.76374146 -0.22846802 11.76374146 -0.22846802 13.37182617 -0.27026367 C22.08459005 -0.34795924 22.08459005 -0.34795924 26 3 C27.85855282 6.71710563 27.57908439 10.95277281 27 15 C24.47323961 18.34625024 22.96066458 19.67977847 19 21 C17.51876453 21.0806622 16.03417796 21.10761193 14.55078125 21.09765625 C13.78677002 21.09515869 13.02275879 21.09266113 12.2355957 21.09008789 C11.27097412 21.08098389 10.30635254 21.07187988 9.3125 21.0625 C4.7028125 21.0315625 4.7028125 21.0315625 0 21 C0 14.07 0 7.14 0 0 Z " fill="#073394" transform="translate(1150,1056)"/>
</svg>
