<?xml version="1.0" standalone="no"?>
<!DOCTYPE svg PUBLIC "-//W3C//DTD SVG 20010904//EN"
 "http://www.w3.org/TR/2001/REC-SVG-20010904/DTD/svg10.dtd">
<svg version="1.0" xmlns="http://www.w3.org/2000/svg"
 width="2000.000000pt" height="2000.000000pt" viewBox="0 0 2000.000000 2000.000000"
 preserveAspectRatio="xMidYMid meet">

<g transform="translate(0.000000,2000.000000) scale(0.100000,-0.100000)"
fill="#000000" stroke="none">
<path d="M0 10000 l0 -10000 10000 0 10000 0 0 10000 0 10000 -10000 0 -10000
0 0 -10000z m8942 5487 c649 -144 964 -218 978 -230 11 -9 20 -27 20 -40 0
-13 -59 -158 -132 -323 -114 -258 -136 -317 -162 -433 -45 -195 -13 -186 -374
-106 -161 36 -294 65 -296 65 -2 0 -11 -39 -21 -87 -23 -113 -38 -142 -75
-150 -17 -3 -30 -7 -30 -10 0 -2 -52 -238 -115 -524 -63 -286 -115 -522 -115
-525 0 -2 123 -4 273 -3 215 0 268 3 252 12 -11 7 -36 28 -56 47 -49 47 -62
99 -57 225 3 85 7 105 28 136 28 42 73 76 121 89 21 6 396 10 977 10 l942 0
-2 513 -3 512 -480 2 c-363 2 -486 6 -504 15 -48 26 -51 50 -51 439 0 393 3
413 56 438 36 16 2312 16 2348 0 53 -25 56 -45 56 -444 0 -381 -1 -393 -44
-427 -19 -16 -61 -18 -503 -18 l-483 0 0 -515 0 -515 275 0 c248 0 275 2 275
16 0 33 40 82 80 98 35 14 102 16 502 16 445 0 463 -1 504 -20 39 -19 74 -66
74 -99 0 -8 83 -11 278 -11 164 0 293 -4 315 -11 45 -12 110 -67 127 -108 8
-19 10 -73 8 -158 -3 -123 -4 -131 -30 -165 -52 -68 -90 -78 -296 -78 l-182 0
0 -1773 c0 -1942 4 -1820 -59 -1918 l-29 -47 107 -4 c98 -3 112 -6 150 -31 31
-20 50 -44 68 -83 23 -51 25 -65 21 -164 -3 -102 -5 -111 -33 -151 -17 -23
-50 -53 -74 -66 l-44 -23 -855 0 c-809 0 -854 -1 -847 -17 18 -48 36 -148 41
-233 6 -88 5 -96 -14 -114 -12 -10 -41 -21 -66 -23 -44 -5 -45 -6 -51 -47 -30
-197 -115 -357 -262 -496 -120 -114 -237 -176 -398 -211 -77 -17 -23 -17 1653
-18 l1732 -1 0 -25 0 -25 -4460 0 -4460 0 0 25 0 25 523 0 522 0 -59 25 c-152
62 -235 229 -191 380 9 33 23 68 31 79 8 11 14 24 14 27 0 4 -45 9 -99 11 -93
3 -102 5 -137 33 -64 53 -74 83 -74 225 0 141 8 165 76 216 l37 29 194 3 193
3 0 62 c0 34 -14 291 -29 570 l-29 509 -29 36 c-91 115 -195 304 -248 452 -59
166 -105 419 -105 579 0 102 12 114 116 119 l74 4 0 38 c0 54 26 81 83 87 46
6 47 6 47 42 0 20 7 47 16 59 l15 22 669 0 670 0 5 23 c16 71 305 1387 305
1391 0 3 -216 7 -481 8 l-481 3 -34 37 -34 38 0 115 0 115 34 38 34 37 526 3
c289 1 526 4 526 6 0 2 56 259 124 570 l125 566 -25 25 c-29 29 -29 31 -3 145
12 51 17 95 13 99 -5 4 -135 36 -289 70 -164 36 -287 69 -297 78 -24 22 -23
54 8 185 23 102 26 140 34 449 5 203 13 345 19 357 11 20 26 30 46 31 6 0 441
-95 967 -212z m4482 -355 c34 -103 110 -138 322 -150 l129 -7 -140 -12 c-145
-12 -236 -36 -268 -71 -43 -47 -74 -178 -78 -327 -1 -30 -5 -8 -11 55 -17 200
-45 266 -132 306 -48 21 -174 42 -276 45 -25 1 7 6 70 10 190 15 268 50 303
137 19 46 37 169 38 260 1 54 4 42 14 -64 7 -71 20 -153 29 -182z m-6984
-2680 c0 -81 18 -178 40 -222 40 -78 117 -109 295 -119 120 -7 106 -13 -60
-27 -101 -8 -175 -35 -213 -79 -35 -39 -56 -122 -68 -265 l-8 -95 -7 111 c-16
261 -64 311 -318 333 -68 6 -126 13 -129 16 -3 3 31 5 75 5 108 0 228 24 274
54 62 42 99 152 99 299 0 36 4 56 10 52 6 -3 10 -32 10 -63z m-371 -657 c2
-99 44 -166 113 -183 24 -6 79 -14 123 -19 l80 -8 -95 -6 c-169 -11 -203 -44
-223 -206 l-12 -98 -6 92 c-12 162 -52 200 -224 211 l-90 6 103 12 c61 8 116
20 135 31 45 26 69 82 75 172 5 79 20 76 21 -4z m81 -4670 c250 -61 419 -264
420 -502 l0 -53 -204 0 -203 0 -6 49 c-10 87 -66 166 -136 193 -39 15 -161 11
-201 -6 -47 -19 -94 -71 -117 -126 -15 -38 -18 -74 -18 -225 0 -173 1 -182 26
-236 53 -113 173 -156 315 -114 81 24 144 107 144 190 l0 35 200 0 200 0 0
-53 c0 -65 -22 -155 -55 -223 -55 -113 -169 -206 -308 -249 -143 -45 -382 -50
-531 -10 -208 55 -353 200 -412 411 -24 86 -31 357 -11 449 59 275 216 427
498 480 93 18 308 13 399 -10z m1565 -4 c174 -45 321 -152 392 -286 59 -112
77 -200 77 -375 0 -248 -41 -367 -174 -501 -117 -118 -240 -170 -445 -188
-322 -28 -580 69 -711 266 -21 31 -52 96 -68 143 -30 83 -31 89 -31 270 0 166
2 193 23 260 63 200 187 328 382 394 108 36 186 45 340 41 93 -3 160 -10 215
-24z m2218 0 c247 -65 397 -245 409 -491 l3 -55 -205 0 -205 0 -8 55 c-17 124
-97 192 -224 192 -116 0 -182 -40 -224 -136 -19 -43 -23 -74 -27 -196 -7 -231
28 -328 135 -377 48 -22 65 -25 132 -21 137 8 204 67 226 201 l6 37 200 0 199
0 -6 -57 c-3 -32 -12 -84 -20 -117 -45 -187 -203 -327 -419 -371 -105 -22
-304 -22 -410 0 -187 38 -335 145 -408 295 -53 108 -68 176 -74 335 -16 425
161 666 532 725 95 14 298 5 388 -19z m-4883 -156 l0 -165 -365 0 -365 0 0
-90 0 -90 310 0 310 0 0 -155 0 -155 -310 0 -310 0 0 -100 0 -100 370 0 370 0
0 -160 0 -160 -585 0 -585 0 0 663 c0 365 3 667 7 670 3 4 264 7 580 7 l573 0
0 -165z m5952 -332 l3 -498 343 -3 342 -2 0 -170 0 -170 -560 0 -560 0 0 663
c0 365 3 667 7 670 3 4 100 7 215 7 l208 0 2 -497z m2018 332 l0 -165 -360 0
-360 0 0 -90 0 -90 310 0 310 0 0 -155 0 -155 -310 0 -310 0 0 -100 0 -100
370 0 370 0 0 -160 0 -160 -585 0 -585 0 0 670 0 670 575 0 575 0 0 -165z
m1336 -455 c123 -338 233 -639 244 -667 l19 -53 -229 0 -229 0 -28 93 -29 92
-231 3 -231 2 -20 -67 c-12 -38 -24 -80 -27 -95 l-7 -28 -223 0 -223 0 229
628 c126 345 236 646 245 670 l16 42 250 -2 250 -3 224 -615z m1070 293 l279
-326 3 327 2 326 198 -2 197 -3 3 -667 2 -668 -192 1 -193 0 -275 319 -275
319 -3 -319 -2 -320 -200 0 -200 0 0 663 c0 365 3 667 7 670 3 4 88 7 188 7
l183 0 278 -327z m-8183 -1647 c47 -27 83 -74 89 -116 3 -23 0 -25 -45 -28
-41 -3 -48 0 -56 20 -5 13 -21 34 -36 48 -23 21 -36 25 -90 25 -53 0 -68 -4
-89 -24 -50 -47 -42 -127 17 -158 17 -8 73 -29 125 -45 73 -23 104 -38 136
-68 41 -38 41 -39 41 -113 0 -65 -3 -78 -28 -110 -56 -74 -165 -103 -270 -73
-86 25 -147 87 -147 151 0 23 3 25 45 25 39 0 45 -3 51 -24 23 -92 183 -117
244 -38 32 40 23 107 -19 139 -9 7 -61 27 -116 44 -55 17 -116 41 -136 54 -90
58 -93 201 -5 271 49 40 100 54 178 50 49 -2 78 -10 111 -30z m4069 6 c58 -25
124 -85 149 -133 10 -21 19 -41 19 -44 0 -3 -21 -5 -46 -5 -42 0 -50 4 -97 54
-45 46 -60 56 -109 67 -129 28 -244 -36 -286 -160 -15 -43 -14 -157 1 -196 49
-124 157 -184 285 -156 49 11 64 21 109 67 47 50 55 54 97 54 25 0 46 -2 46
-5 0 -22 -47 -89 -85 -123 -62 -55 -129 -77 -230 -76 -97 0 -152 22 -223 88
-72 68 -105 147 -105 252 0 70 4 91 30 145 65 137 174 203 324 195 47 -2 94
-12 121 -24z m1693 1 c22 -12 48 -29 57 -40 23 -25 50 -91 43 -103 -4 -6 -25
-10 -49 -10 -39 0 -44 3 -59 36 -28 58 -122 83 -187 49 -37 -19 -50 -43 -50
-93 0 -54 29 -78 137 -112 171 -53 216 -94 216 -194 0 -79 -34 -131 -113 -172
-53 -28 -171 -26 -233 5 -56 27 -96 75 -104 125 l-6 36 50 0 c46 0 49 -2 58
-32 6 -19 24 -42 45 -56 29 -20 44 -23 94 -20 51 4 63 9 87 36 22 24 29 42 29
73 0 60 -28 81 -163 124 -100 31 -120 41 -151 75 -54 59 -60 136 -16 207 52
86 210 119 315 66z m-4885 -18 l0 -35 -135 0 -135 0 0 -110 0 -110 120 0 120
0 0 -40 0 -40 -120 0 -120 0 0 -115 0 -115 135 0 135 0 0 -35 0 -35 -185 0
-185 0 0 335 0 335 185 0 185 0 0 -35z m773 2 c61 -36 91 -91 91 -167 -1 -83
-46 -151 -122 -182 l-32 -13 80 -133 c44 -73 80 -135 80 -138 0 -2 -24 -4 -52
-4 l-53 0 -76 133 -77 132 -51 3 -51 3 0 -135 0 -136 -50 0 -50 0 0 336 0 336
158 -4 c151 -3 159 -4 205 -31z m661 -249 c55 -153 103 -278 106 -278 3 0 50
125 106 278 l100 277 47 3 c26 2 47 -1 47 -5 -1 -4 -56 -154 -124 -333 l-123
-325 -54 -3 -54 -2 -123 327 c-67 181 -122 332 -122 336 0 4 21 7 46 5 l47 -3
101 -277z m886 -53 l0 -335 -50 0 -50 0 0 335 0 335 50 0 50 0 0 -335z m1820
300 l0 -35 -135 0 -135 0 0 -110 0 -110 120 0 120 0 0 -40 0 -40 -120 0 -120
0 0 -115 0 -115 135 0 135 0 0 -35 0 -35 -180 0 -180 0 0 335 0 335 180 0 180
0 0 -35z"/>
<path d="M8038 15283 c-2 -142 -3 -259 -3 -260 2 -6 1511 -333 1523 -331 13 3
211 437 212 464 0 5 -51 21 -114 35 l-114 25 -22 -100 c-12 -56 -29 -109 -38
-118 -24 -28 -78 -23 -98 8 -16 24 -16 31 5 130 13 58 21 107 19 108 -4 4
-242 55 -244 53 -1 -1 -18 -78 -38 -171 -21 -100 -43 -177 -53 -188 -24 -26
-71 -20 -96 13 l-19 26 39 177 c22 97 38 176 36 176 -2 0 -85 18 -184 41 -99
23 -182 39 -185 37 -2 -2 -17 -62 -33 -133 -30 -134 -48 -165 -92 -165 -27 0
-59 35 -59 64 0 14 11 77 25 142 14 64 22 121 18 125 -5 5 -31 10 -58 11 l-49
3 -43 -190 c-45 -200 -57 -225 -108 -225 -22 0 -47 22 -57 50 -3 9 14 103 38
210 23 107 42 195 41 196 -5 3 -223 44 -234 44 -9 0 -13 -67 -15 -257z"/>
<path d="M10200 15120 l0 -320 450 0 450 0 0 59 0 60 -166 3 -166 3 -29 33
c-29 32 -29 33 -29 163 l0 131 29 29 29 29 522 0 522 0 29 -29 29 -29 0 -131
c0 -130 0 -131 -29 -163 l-29 -33 -161 -3 -161 -3 0 -60 0 -59 450 0 450 0 0
320 0 320 -1095 0 -1095 0 0 -320z"/>
<path d="M10840 15121 l0 -60 176 -3 c171 -3 176 -4 195 -27 18 -22 19 -49 19
-707 l0 -684 60 0 60 0 2 690 c3 646 4 690 21 707 15 16 41 18 192 21 l175 3
0 60 0 59 -450 0 -450 0 0 -59z"/>
<path d="M8015 14878 c-7 -19 -24 -102 -22 -104 1 -1 132 -30 291 -65 356 -79
337 -66 305 -217 -13 -56 -20 -104 -18 -107 10 -10 234 -54 240 -47 3 4 14 45
24 92 20 93 35 125 63 134 10 4 148 -23 307 -59 159 -36 290 -63 292 -61 6 6
27 115 22 119 -5 5 -1471 327 -1487 327 -7 0 -15 -6 -17 -12z"/>
<path d="M8600 14239 c0 -2 -56 -255 -124 -562 l-123 -558 66 3 65 3 118 535
c65 294 118 540 118 546 0 6 -17 14 -37 18 -21 3 -48 9 -60 12 -13 4 -23 5
-23 3z"/>
<path d="M12170 13461 l0 -169 -210 -216 c-194 -199 -210 -218 -210 -251 0
-48 13 -71 50 -84 47 -16 75 0 181 105 103 101 130 113 169 74 19 -19 20 -33
20 -405 0 -372 1 -386 20 -405 27 -27 56 -25 85 5 l25 24 0 278 c0 153 4 283
8 290 4 6 20 17 35 22 32 13 60 2 77 -29 6 -11 10 -125 10 -292 0 -231 2 -277
16 -296 19 -27 54 -28 85 -3 l24 19 5 293 5 294 27 12 c35 17 75 2 88 -32 6
-15 10 -145 10 -299 0 -252 1 -274 18 -289 25 -23 58 -21 82 3 19 19 20 33 20
296 0 175 4 283 11 295 28 53 102 41 119 -20 5 -20 10 -153 10 -297 0 -240 1
-262 18 -277 25 -23 58 -21 82 3 20 20 20 33 20 770 l0 750 -450 0 -450 0 0
-169z"/>
<path d="M9176 13478 c-11 -16 -16 -46 -16 -99 0 -62 4 -81 21 -103 l20 -26
1373 0 1372 0 47 48 47 48 0 77 0 77 -1424 0 -1425 0 -15 -22z"/>
<path d="M13200 13375 l0 -125 283 0 c340 0 317 -9 317 128 0 69 -4 94 -16
106 -13 14 -55 16 -300 16 l-284 0 0 -125z"/>
<path d="M9290 10925 l0 -2195 65 0 65 0 0 2195 0 2195 -65 0 -65 0 0 -2195z"/>
<path d="M9550 12155 l0 -965 95 0 94 0 3 603 3 602 30 54 c16 29 45 66 64 82
42 34 113 69 141 69 19 0 20 6 20 148 0 128 3 151 20 179 30 51 65 63 177 63
170 0 193 -30 193 -249 l0 -141 124 0 c83 0 137 -5 165 -15 62 -21 127 -70
161 -120 64 -93 62 -77 66 -680 2 -302 3 -560 4 -572 0 -22 3 -23 95 -23 l95
0 0 965 0 965 -775 0 -775 0 0 -965z"/>
<path d="M11232 11284 l3 -1835 58 -23 57 -24 0 1859 0 1859 -60 0 -60 0 2
-1836z"/>
<path d="M11490 11250 l0 -1870 105 0 104 0 -29 48 c-63 102 -60 -8 -60 1929
l0 1763 -60 0 -60 0 0 -1870z"/>
<path d="M11740 13085 c0 -43 7 -43 43 1 l29 34 -36 0 c-34 0 -36 -1 -36 -35z"/>
<path d="M13200 12615 c0 -478 -1 -508 -19 -543 -52 -101 -167 -140 -267 -92
l-42 21 -34 -21 c-45 -27 -125 -27 -180 1 l-41 21 -37 -21 c-51 -28 -133 -28
-179 0 l-34 21 -48 -22 c-91 -43 -193 -15 -250 68 -24 35 -24 36 -27 349 -2
172 -6 313 -11 313 -4 0 -20 -14 -37 -31 -57 -61 -148 -90 -217 -71 l-37 10 2
-1526 3 -1527 30 -54 c16 -29 43 -64 60 -77 71 -54 73 -54 679 -54 637 0 625
-1 702 76 80 79 74 -69 74 1906 l0 1758 -45 0 -45 0 0 -505z"/>
<path d="M7230 12925 l0 -65 965 0 965 0 0 65 0 65 -965 0 -965 0 0 -65z"/>
<path d="M10130 12730 l0 -131 63 3 62 3 3 128 3 127 -66 0 -65 0 0 -130z"/>
<path d="M8265 12718 c-8 -24 -305 -1384 -305 -1397 0 -8 18 -11 62 -9 l63 3
117 530 c64 292 135 610 156 708 l39 177 -64 0 c-42 0 -65 -4 -68 -12z"/>
<path d="M8530 12725 c0 -5 -297 -1354 -306 -1391 l-6 -24 194 0 c222 0 227
-2 235 -72 l5 -46 45 -5 c57 -6 74 -23 80 -80 l5 -45 75 -4 c118 -6 126 -26
102 -259 -29 -292 -125 -567 -276 -791 -37 -56 -75 -113 -84 -127 -13 -21 -21
-119 -43 -531 -15 -278 -29 -531 -33 -562 l-6 -58 322 0 321 0 0 2000 0 2000
-315 0 c-173 0 -315 -2 -315 -5z"/>
<path d="M9954 12451 c-55 -34 -77 -75 -82 -156 l-4 -72 88 -6 c112 -7 165
-29 226 -94 74 -80 78 -103 78 -464 l0 -308 -26 -20 c-25 -19 -40 -21 -195
-21 l-169 0 0 -60 0 -60 450 0 450 0 -2 578 -3 579 -27 36 c-16 19 -43 46 -60
59 -33 23 -36 23 -363 26 -311 2 -332 1 -361 -17z m654 -55 c36 -19 78 -65 91
-99 7 -17 11 -110 11 -225 0 -163 -3 -201 -16 -220 -15 -21 -21 -22 -175 -22
-146 0 -161 2 -179 20 -19 19 -20 33 -20 270 0 310 -10 290 150 290 76 0 120
-4 138 -14z"/>
<path d="M10450 12120 l0 -160 65 0 65 0 0 144 c0 169 -3 176 -81 176 l-49 0
0 -160z"/>
<path d="M9875 12079 c-3 -8 -4 -154 -3 -324 l3 -310 128 -3 128 -3 -3 273
c-3 267 -3 274 -26 306 -32 45 -75 64 -154 70 -52 4 -69 1 -73 -9z"/>
<path d="M6580 11137 c0 -55 -23 -78 -85 -84 l-45 -6 0 -58 0 -59 1095 0 1095
0 0 60 0 60 -31 0 c-32 0 -69 15 -81 34 -4 6 -8 30 -8 54 l0 42 -970 0 -970 0
0 -43z"/>
<path d="M9550 10990 l0 -60 775 0 775 0 0 60 0 60 -775 0 -775 0 0 -60z"/>
<path d="M6265 10863 c20 -207 55 -363 115 -516 36 -93 109 -232 117 -223 4 3
-25 546 -33 624 l-5 52 -49 0 c-62 0 -90 26 -90 82 0 36 -2 38 -30 38 l-30 0
5 -57z"/>
<path d="M8780 10886 c0 -19 -9 -45 -21 -60 -17 -22 -28 -26 -70 -26 -42 0
-49 -3 -53 -22 -7 -36 -38 -649 -33 -655 9 -8 116 221 146 312 38 115 69 269
79 390 l8 95 -28 0 c-25 0 -28 -4 -28 -34z"/>
<path d="M6599 10796 c-5 -6 39 -842 46 -873 6 -28 151 -155 248 -219 179
-118 377 -180 607 -190 317 -14 608 89 852 302 113 99 102 55 127 504 12 217
21 414 21 438 l0 42 -948 0 c-522 0 -951 -2 -953 -4z"/>
<path d="M9550 9765 l0 -1036 128 3 127 3 5 525 c6 593 1 559 88 652 53 57
122 96 187 105 l45 6 0 146 c0 127 3 150 20 178 30 50 66 63 175 63 169 0 195
-33 195 -248 l0 -139 45 -6 c96 -14 188 -85 237 -185 31 -63 33 -74 36 -193
l4 -126 106 -6 c59 -4 117 -10 130 -13 l22 -6 -2 653 -3 654 -772 3 -773 2 0
-1035z"/>
<path d="M10260 10150 l0 -131 63 3 62 3 3 128 3 127 -66 0 -65 0 0 -130z"/>
<path d="M10060 9874 c-75 -32 -120 -102 -120 -184 l0 -50 226 0 c221 0 257
-4 276 -34 4 -6 8 -55 8 -108 0 -54 2 -98 5 -98 3 0 22 9 43 19 20 10 76 31
125 46 l87 26 0 107 c0 130 -11 172 -57 223 -59 66 -76 69 -332 69 -179 -1
-233 -4 -261 -16z"/>
<path d="M6677 9298 c12 -233 25 -456 29 -495 l6 -73 839 0 c664 0 839 3 839
13 0 6 11 210 25 452 14 242 25 459 25 483 l0 42 -57 -47 c-174 -142 -389
-239 -608 -277 -116 -21 -336 -21 -451 -1 -218 38 -451 145 -611 281 -28 24
-53 44 -55 44 -2 0 7 -190 19 -422z"/>
<path d="M9940 9315 l0 -195 90 0 89 0 101 100 100 101 0 94 0 95 -190 0 -190
0 0 -195z"/>
<path d="M10814 9369 c-319 -30 -601 -256 -703 -564 -16 -49 -33 -114 -37
-142 l-7 -53 129 0 129 0 11 58 c19 99 70 188 159 278 88 88 164 132 276 159
308 72 619 -119 696 -429 l16 -66 123 0 124 0 0 28 c0 48 -37 177 -74 256
-115 250 -376 444 -636 471 -109 11 -126 12 -206 4z"/>
<path d="M11626 9183 c32 -38 75 -96 97 -130 l39 -63 870 0 869 0 24 25 c22
22 25 32 25 105 0 73 -3 83 -25 105 l-24 25 -966 0 -966 0 57 -67z"/>
<path d="M9940 8858 c0 -136 7 -151 30 -63 7 28 26 79 42 114 15 35 28 68 28
72 0 5 -22 9 -50 9 l-50 0 0 -132z"/>
<path d="M10790 8972 c-220 -58 -363 -269 -331 -490 28 -189 153 -329 338
-377 204 -53 423 54 515 252 99 211 1 481 -214 585 -102 49 -197 59 -308 30z"/>
<path d="M6216 8584 c-25 -24 -23 -195 2 -217 17 -16 166 -17 1942 -17 l1923
0 -7 38 c-3 20 -6 47 -6 60 0 18 -5 22 -35 22 -70 0 -115 47 -101 105 l6 25
-1854 0 c-1673 0 -1856 -2 -1870 -16z"/>
<path d="M10205 8428 c51 -319 325 -569 648 -594 259 -20 529 122 660 346 37
65 79 182 90 253 l6 37 -62 0 -62 0 -23 -82 c-46 -166 -152 -294 -302 -366
-134 -64 -255 -78 -389 -47 -212 50 -390 230 -433 437 l-12 58 -64 0 -64 0 7
-42z"/>
<path d="M6585 8205 c-53 -19 -111 -82 -125 -135 -33 -124 73 -250 200 -238
139 14 217 160 152 285 -40 77 -146 118 -227 88z"/>
<path d="M6912 8213 c48 -94 53 -110 53 -188 0 -62 -6 -92 -23 -131 -31 -69
-105 -139 -178 -169 l-59 -25 2060 1 c1718 1 2048 3 1989 14 -133 24 -243 73
-360 160 -99 74 -212 214 -254 314 l-12 31 -1610 0 c-885 0 -1608 -3 -1606 -7z"/>
<path d="M7410 6820 c-96 -17 -154 -59 -191 -142 -22 -49 -24 -65 -24 -223 0
-193 10 -230 80 -298 99 -96 312 -88 399 15 58 68 71 121 71 293 -1 135 -3
155 -24 202 -53 119 -170 176 -311 153z"/>
<path d="M13854 6694 c-9 -33 -40 -138 -69 -234 l-52 -175 135 -3 c74 -1 137
-1 139 2 4 4 -125 456 -132 465 -2 2 -11 -23 -21 -55z"/>
<path d="M8630 4980 l0 -120 95 0 c89 0 96 2 126 28 57 51 50 165 -12 197 -18
10 -59 15 -119 15 l-90 0 0 -120z"/>
</g>
</svg>
