<?xml version="1.0" standalone="no"?>
<!DOCTYPE svg PUBLIC "-//W3C//DTD SVG 20010904//EN"
 "http://www.w3.org/TR/2001/REC-SVG-20010904/DTD/svg10.dtd">
<svg version="1.0" xmlns="http://www.w3.org/2000/svg"
 width="2000.000000pt" height="2000.000000pt" viewBox="0 0 2000.000000 2000.000000"
 preserveAspectRatio="xMidYMid meet">

<g transform="translate(0.000000,2000.000000) scale(0.100000,-0.100000)"
fill="#000000" stroke="none">
<path d="M3695 11795 c-131 -28 -276 -118 -353 -218 -121 -156 -144 -363 -61
-530 21 -41 58 -89 109 -139 74 -73 90 -83 282 -178 227 -112 287 -152 311
-203 23 -47 21 -84 -5 -137 -34 -67 -88 -93 -204 -98 -66 -3 -107 0 -149 13
-77 22 -204 86 -284 143 -36 25 -66 41 -68 36 -2 -5 -48 -83 -103 -174 -75
-126 -95 -168 -87 -178 42 -52 267 -165 395 -199 87 -24 116 -26 277 -27 206
-1 266 10 402 75 187 89 284 238 300 459 10 150 -30 254 -143 365 -83 83 -166
134 -346 216 -189 87 -243 118 -288 164 -31 32 -35 42 -34 86 1 60 23 94 85
129 38 22 56 25 134 24 102 -1 204 -30 311 -88 l60 -34 83 166 83 166 -23 19
c-37 30 -126 72 -214 101 -159 53 -341 69 -470 41z"/>
<path d="M4740 10855 l0 -925 210 0 210 0 0 925 0 925 -210 0 -210 0 0 -925z"/>
<path d="M5510 10855 l0 -925 530 0 530 0 0 185 0 185 -320 0 -320 0 0 740 0
740 -210 0 -210 0 0 -925z"/>
<path d="M6670 11768 c1 -7 173 -422 383 -923 l382 -910 166 -3 166 -2 36 82
c95 223 737 1758 737 1763 0 3 -106 4 -236 3 l-236 -3 -231 -602 c-127 -332
-234 -599 -238 -595 -3 4 -109 276 -234 605 l-229 597 -233 0 c-180 0 -233 -3
-233 -12z"/>
<path d="M8700 10855 l0 -925 525 0 525 0 0 185 0 185 -315 0 -315 0 0 185 0
185 305 0 305 0 0 185 0 185 -305 0 -305 0 0 185 0 185 315 0 315 0 0 185 0
185 -525 0 -525 0 0 -925z"/>
<path d="M10080 10856 l0 -926 210 0 210 0 2 362 3 362 280 -362 279 -362 268
0 268 0 -315 378 c-173 207 -315 379 -314 382 0 3 35 22 78 42 127 61 216 161
263 297 20 57 23 85 22 206 0 122 -3 148 -23 200 -63 161 -178 262 -361 316
-71 21 -97 23 -472 27 l-398 4 0 -926z m685 560 c111 -48 160 -169 120 -302
-31 -105 -103 -145 -272 -152 l-113 -5 0 243 0 243 113 -5 c74 -3 125 -11 152
-22z"/>
<path d="M8492 9151 c-66 -23 -117 -63 -159 -125 -40 -59 -53 -103 -53 -183 0
-127 71 -236 188 -291 49 -23 70 -27 147 -27 97 1 153 19 223 71 l34 26 -37
38 -37 38 -40 -28 c-110 -80 -274 -46 -335 69 -29 56 -31 147 -4 207 56 123
238 164 341 78 l30 -26 34 29 c19 15 35 33 35 40 1 19 -56 60 -114 82 -71 27
-179 28 -253 2z"/>
<path d="M10673 9156 c-60 -20 -107 -51 -152 -102 -51 -58 -71 -118 -71 -214
0 -66 4 -86 30 -138 52 -103 149 -167 272 -178 152 -15 291 63 352 195 31 70
29 188 -5 262 -32 68 -83 120 -152 156 -43 22 -68 27 -142 30 -57 2 -105 -2
-132 -11z m207 -107 c56 -25 77 -44 102 -92 80 -157 -23 -329 -197 -329 -116
0 -198 69 -219 184 -8 46 9 124 36 164 58 85 181 117 278 73z"/>
<path d="M12750 9154 c-147 -53 -230 -181 -217 -335 10 -118 76 -213 186 -267
48 -23 69 -27 141 -27 100 0 168 20 224 66 l37 32 -37 38 c-37 38 -38 39 -58
20 -51 -46 -125 -64 -201 -50 -70 13 -120 51 -151 116 -23 47 -26 62 -21 120
7 86 41 137 116 176 86 43 174 34 258 -28 20 -15 23 -14 57 16 l37 32 -23 24
c-13 14 -45 37 -73 51 -65 33 -205 41 -275 16z"/>
<path d="M13422 9154 c-140 -52 -173 -223 -59 -301 18 -12 81 -35 142 -52 117
-33 158 -55 163 -89 8 -53 -49 -92 -136 -92 -53 0 -145 24 -177 46 -30 21 -39
17 -57 -28 -17 -39 -17 -42 0 -54 9 -8 42 -23 72 -35 66 -26 222 -32 283 -11
81 29 129 93 129 172 0 98 -50 141 -217 184 -115 30 -149 51 -153 92 -8 84
137 116 272 59 21 -9 39 -15 40 -13 2 2 10 22 19 46 l17 43 -47 21 c-65 28
-229 35 -291 12z"/>
<path d="M6270 8845 l0 -315 235 0 235 0 0 50 0 50 -175 0 -175 0 0 85 0 85
150 0 150 0 0 50 0 50 -150 0 -150 0 0 85 0 85 170 0 170 0 0 45 0 45 -230 0
-230 0 0 -315z"/>
<path d="M6970 8845 l0 -315 225 0 225 0 0 50 0 50 -165 0 -165 0 0 265 0 265
-60 0 -60 0 0 -315z"/>
<path d="M7620 8845 l0 -315 235 0 235 0 0 50 0 50 -180 0 -180 0 0 85 0 85
155 0 155 0 0 50 0 50 -155 0 -156 0 3 83 3 82 173 3 172 2 0 45 0 45 -230 0
-230 0 0 -315z"/>
<path d="M9002 9113 l3 -48 103 -3 102 -3 0 -264 0 -265 60 0 60 0 0 265 0
264 103 3 102 3 3 48 3 47 -271 0 -271 0 3 -47z"/>
<path d="M9730 8845 l0 -315 60 0 60 0 0 90 0 90 64 0 c35 0 71 3 79 6 11 4
35 -23 83 -90 l67 -96 64 0 65 0 -34 48 c-19 26 -51 70 -71 98 -20 29 -37 54
-37 57 0 2 18 16 40 31 111 73 115 266 8 346 -57 42 -101 50 -279 50 l-169 0
0 -315z m350 200 c87 -45 74 -187 -20 -221 -19 -7 -74 -13 -122 -13 l-88 -1 0
125 0 125 100 0 c71 0 110 -5 130 -15z"/>
<path d="M11350 8845 l0 -315 60 0 60 0 2 211 3 212 170 -209 171 -209 52 -3
52 -3 0 315 0 316 -60 0 -60 0 -2 -210 -3 -211 -170 210 -170 211 -52 0 -53 0
0 -315z"/>
<path d="M12190 8845 l0 -315 55 0 55 0 0 315 0 315 -55 0 -55 0 0 -315z"/>
</g>
</svg>
