<?xml version="1.0" standalone="no"?>
<!DOCTYPE svg PUBLIC "-//W3C//DTD SVG 20010904//EN"
 "http://www.w3.org/TR/2001/REC-SVG-20010904/DTD/svg10.dtd">
<svg version="1.0" xmlns="http://www.w3.org/2000/svg"
 width="2000.000000pt" height="2000.000000pt" viewBox="0 0 2000.000000 2000.000000"
 preserveAspectRatio="xMidYMid meet">

<g transform="translate(0.000000,2000.000000) scale(0.100000,-0.100000)"
fill="#000000" stroke="none">
<path d="M9835 15704 c-16 -2 -79 -9 -140 -15 -415 -40 -770 -144 -1156 -340
-426 -215 -826 -551 -1115 -935 -345 -459 -577 -1047 -626 -1587 -10 -116 -15
-137 -29 -137 -32 0 -316 102 -417 150 -200 95 -325 201 -382 322 -37 78 -41
177 -11 263 58 164 276 378 498 490 l68 34 -60 -5 c-689 -63 -1231 -445 -1165
-823 18 -103 63 -184 160 -284 384 -401 1312 -649 2645 -708 433 -20 1133 1
1605 46 1223 117 2368 406 3148 794 162 80 322 177 322 195 0 22 -67 256 -103
361 -197 575 -568 1099 -1047 1480 -454 361 -964 580 -1557 669 -177 27 -522
43 -638 30z"/>
<path d="M13776 15007 c-61 -23 -83 -44 -74 -69 3 -8 209 -179 457 -382 276
-224 451 -374 451 -384 0 -9 -4 -22 -8 -28 -20 -30 -673 -544 -692 -544 -11 0
-43 11 -70 25 -114 58 -277 105 -364 105 -40 0 -125 -24 -150 -43 -13 -10 -17
-21 -13 -38 5 -19 47 -46 206 -129 169 -89 198 -107 190 -122 -16 -29 -10 -84
10 -102 11 -10 36 -18 55 -19 23 -1 38 -7 41 -16 2 -9 11 -88 20 -176 28 -297
27 -296 81 -269 44 23 73 54 100 106 44 86 55 151 52 303 l-2 140 364 182
c221 110 377 182 396 182 22 1 34 -5 42 -21 7 -13 73 -256 146 -542 78 -303
141 -525 150 -534 14 -15 19 -13 58 14 51 35 103 109 119 167 7 27 12 182 13
442 2 407 6 459 47 600 34 119 61 147 327 332 324 226 404 307 438 444 13 52
14 73 5 107 -34 126 -177 176 -361 128 -36 -9 -202 -84 -369 -167 -167 -82
-321 -152 -342 -155 -47 -8 -153 10 -239 40 -141 50 -285 123 -685 345 -60 34
-134 70 -163 81 -70 27 -159 25 -236 -3z"/>
<path d="M13150 12938 c-242 -156 -641 -360 -987 -507 -909 -386 -1913 -606
-3108 -682 -286 -19 -1110 -16 -1375 4 -308 23 -525 45 -678 67 -164 24 -162
24 -162 0 0 -33 66 -278 108 -400 267 -781 824 -1433 1553 -1819 470 -248 971
-371 1519 -371 298 0 525 28 805 100 883 225 1650 835 2066 1643 219 427 329
830 359 1321 12 187 1 461 -23 613 l-12 72 -65 -41z"/>
<path d="M4266 7594 c-146 -26 -274 -92 -360 -185 -87 -94 -126 -201 -126
-344 0 -99 19 -177 66 -265 67 -128 154 -207 429 -390 347 -230 450 -342 477
-517 34 -222 -101 -384 -332 -400 -318 -22 -517 206 -572 654 l-11 93 -34 0
-33 0 0 -369 c0 -203 -3 -383 -6 -400 -6 -30 -5 -31 29 -31 33 0 36 2 42 40 8
45 39 90 62 90 9 0 53 -18 99 -40 187 -91 302 -115 521 -107 174 6 266 26 390
87 93 46 184 124 233 200 97 151 102 383 12 555 -71 134 -172 222 -567 491
-208 141 -316 238 -356 319 -21 44 -24 64 -24 160 0 109 1 111 34 164 40 61
113 114 184 132 27 6 84 9 135 7 115 -6 183 -38 274 -129 101 -101 175 -266
196 -437 7 -55 8 -57 38 -60 l31 -3 7 318 c4 175 8 327 9 338 2 16 -5 21 -30
23 -26 3 -33 -1 -33 -14 0 -37 -25 -97 -47 -111 -22 -14 -31 -11 -163 52 -101
48 -162 71 -218 81 -98 17 -254 16 -356 -2z"/>
<path d="M13485 7604 c-11 -2 -47 -10 -80 -16 -127 -25 -237 -80 -319 -162
-102 -102 -140 -201 -140 -361 0 -110 12 -161 55 -248 67 -136 155 -218 439
-409 220 -149 263 -182 353 -277 91 -97 117 -156 125 -277 7 -120 -14 -182
-86 -254 -41 -41 -74 -63 -117 -79 -118 -45 -269 -38 -385 17 -157 74 -275
290 -311 571 -17 136 -16 131 -49 131 l-30 0 0 -212 c0 -117 -3 -297 -7 -400
l-6 -188 31 0 c26 0 33 5 37 28 10 50 39 97 62 100 11 2 59 -16 105 -39 180
-91 300 -115 527 -106 168 6 261 27 373 82 215 107 317 263 317 490 1 142 -33
242 -123 362 -67 89 -180 177 -556 433 -255 174 -327 262 -337 418 -10 136 42
233 158 297 51 28 60 30 169 30 104 0 120 -3 174 -27 74 -35 190 -151 233
-233 41 -78 78 -192 93 -288 l13 -77 33 0 34 0 0 263 c0 145 3 299 7 341 l6
77 -33 -3 c-30 -3 -34 -7 -45 -51 -12 -47 -39 -87 -59 -87 -5 0 -54 23 -108
50 -164 84 -230 102 -393 106 -77 2 -149 1 -160 -2z"/>
<path d="M5400 7544 c0 -19 9 -23 67 -34 86 -15 118 -34 140 -84 16 -37 18
-104 24 -731 6 -645 7 -696 26 -780 12 -49 32 -115 46 -145 111 -246 366 -364
749 -347 216 9 350 60 469 177 79 77 124 162 157 295 37 148 42 235 42 754 1
278 5 553 10 610 15 164 51 217 169 247 37 9 47 16 49 35 l3 24 -291 0 -291 1
3 -25 c3 -22 10 -27 47 -33 131 -22 187 -65 218 -166 16 -52 18 -110 18 -652
0 -650 -2 -676 -62 -843 -52 -147 -120 -229 -233 -281 -80 -37 -150 -49 -270
-44 -99 3 -113 6 -176 38 -115 59 -176 167 -203 364 -15 106 -15 1426 0 1480
19 70 59 94 182 111 40 5 47 10 47 28 l0 22 -470 0 -470 0 0 -21z"/>
<path d="M7510 7544 c0 -19 9 -23 67 -34 86 -15 118 -34 140 -84 17 -38 18
-98 21 -781 3 -787 -3 -947 -38 -1020 -24 -49 -70 -81 -138 -97 -46 -11 -52
-16 -52 -38 l0 -25 290 -1 290 0 0 26 c0 24 -4 26 -69 37 -137 21 -190 77
-210 218 -14 91 -15 1348 -2 1340 6 -3 299 -372 652 -820 l642 -815 73 0 74 0
0 888 c0 504 5 919 10 961 16 124 61 179 169 207 37 9 47 16 49 35 l3 24 -291
0 -291 1 3 -25 c3 -22 10 -26 69 -37 78 -14 113 -31 152 -72 58 -60 59 -82 64
-712 l4 -575 -24 25 c-14 14 -274 333 -580 710 l-554 685 -262 0 -261 0 0 -21z"/>
<path d="M9670 7543 c0 -13 3 -23 8 -23 42 -1 150 -34 168 -51 44 -41 45 -75
42 -984 -3 -800 -4 -862 -21 -892 -22 -42 -66 -64 -139 -70 -55 -5 -58 -7 -58
-32 l0 -26 460 0 460 0 0 26 c0 25 -3 26 -66 32 -77 6 -110 25 -139 83 -18 37
-20 64 -23 447 l-4 407 130 0 c141 0 172 -7 215 -48 66 -62 98 -162 157 -482
50 -271 70 -336 124 -397 63 -72 144 -104 277 -111 176 -8 290 28 391 126 36
34 37 37 21 54 -16 18 -17 18 -37 -1 -32 -30 -94 -53 -126 -46 -31 7 -60 35
-83 80 -8 17 -38 134 -67 260 -54 239 -76 306 -119 365 -79 110 -182 162 -389
199 l-97 18 75 12 c302 49 488 181 561 398 33 98 33 233 0 325 -61 170 -213
277 -469 330 -103 21 -130 22 -679 23 l-573 1 0 -23z m1012 -44 c95 -25 179
-118 214 -236 35 -119 34 -368 -2 -477 -66 -202 -184 -273 -439 -264 l-90 3
-3 350 c-4 490 7 582 72 617 51 28 158 31 248 7z"/>
<path d="M11740 7543 c0 -17 8 -22 43 -28 114 -18 151 -43 167 -119 8 -36 10
-311 8 -911 -3 -800 -4 -862 -21 -892 -22 -42 -66 -64 -139 -70 -55 -5 -58 -7
-58 -32 l0 -26 460 0 460 0 0 26 c0 25 -3 26 -66 32 -77 6 -110 25 -139 83
-20 38 -20 59 -20 904 0 690 3 873 13 902 20 57 60 84 142 98 61 10 70 14 70
33 l0 22 -460 0 -460 0 0 -22z"/>
<path d="M14610 7544 c0 -20 8 -23 70 -34 79 -13 115 -36 139 -89 14 -32 16
-123 19 -808 4 -821 -2 -987 -36 -1032 -26 -36 -64 -52 -133 -58 -56 -6 -59
-7 -59 -33 l0 -26 830 0 c734 1 829 3 824 16 -4 8 -9 165 -12 348 l-5 332 -28
0 c-25 0 -29 -5 -34 -37 -13 -72 -54 -221 -79 -283 -74 -181 -196 -284 -367
-311 -90 -14 -327 -6 -367 13 -15 7 -35 29 -44 48 -16 32 -18 76 -18 468 l0
432 85 0 c108 0 175 -24 239 -86 54 -51 97 -135 122 -237 17 -67 17 -67 52
-67 29 0 33 3 27 18 -4 9 -9 199 -12 422 l-3 405 -28 3 c-27 3 -29 0 -51 -76
-29 -100 -90 -212 -138 -251 -60 -49 -98 -62 -199 -68 l-94 -6 1 424 c0 301 4
434 12 459 19 55 56 69 193 76 388 20 536 -111 609 -538 5 -33 9 -38 34 -38
l28 0 6 298 c3 163 9 306 12 317 6 20 1 20 -794 21 l-801 1 0 -23z"/>
<path d="M11667 4480 c-101 -26 -188 -97 -231 -189 -30 -65 -30 -197 1 -263
84 -184 308 -248 520 -148 l63 29 0 130 0 131 -70 0 -70 0 0 -95 c0 -95 0 -96
-27 -107 -16 -6 -55 -11 -88 -11 -117 0 -195 70 -203 183 -9 123 52 203 171
225 49 9 131 -11 167 -42 l30 -25 27 20 c16 11 37 30 48 42 l20 22 -38 33
c-22 19 -60 41 -85 50 -57 20 -183 28 -235 15z"/>
<path d="M14237 4476 c-100 -27 -194 -117 -223 -213 -71 -236 114 -453 366
-429 70 6 172 49 205 86 18 20 18 21 -25 65 -43 44 -44 45 -64 26 -54 -49
-127 -68 -198 -50 -147 35 -203 220 -102 338 67 78 196 90 280 26 18 -14 37
-25 41 -25 5 0 27 18 48 41 l40 41 -39 34 c-74 64 -216 90 -329 60z"/>
<path d="M5230 4420 l0 -60 100 0 100 0 0 -260 0 -260 75 0 75 0 0 260 0 260
100 0 100 0 0 60 0 60 -275 0 -275 0 0 -60z"/>
<path d="M6040 4161 l0 -321 70 0 69 0 3 88 3 87 70 3 70 3 58 -86 c33 -48 65
-89 71 -91 7 -3 43 -4 80 -2 l66 3 -68 99 -69 99 41 31 c55 42 86 105 86 176
-1 97 -42 159 -135 202 -45 20 -68 23 -232 26 l-183 4 0 -321z m357 179 c45
-27 61 -87 36 -138 -25 -51 -61 -65 -163 -66 l-85 -1 -3 113 -3 112 93 0 c75
0 99 -4 125 -20z"/>
<path d="M7082 4463 c-21 -42 -272 -610 -272 -617 0 -4 32 -6 72 -4 l71 3 28
65 27 65 152 0 151 0 27 -65 28 -65 76 -3 77 -3 -142 318 -142 318 -72 3 c-61
2 -73 0 -81 -15z m127 -240 c24 -60 46 -114 48 -120 4 -10 -19 -13 -97 -13
-93 0 -102 2 -96 18 25 67 92 222 96 222 3 0 25 -48 49 -107z"/>
<path d="M7819 4163 l137 -318 73 0 73 0 138 318 137 317 -71 0 -72 0 -95
-221 c-53 -121 -100 -221 -105 -221 -4 0 -51 100 -102 221 l-94 221 -78 0 -79
0 138 -317z"/>
<path d="M8620 4160 l0 -320 250 0 251 0 -3 58 -3 57 -172 3 -173 2 0 75 0 75
145 0 145 0 0 55 0 55 -145 0 -145 0 0 70 0 70 165 0 165 0 0 60 0 60 -240 0
-240 0 0 -320z"/>
<path d="M9410 4160 l0 -320 235 0 235 0 0 60 0 60 -160 0 -160 0 0 260 0 260
-75 0 -75 0 0 -320z"/>
<path d="M10683 4273 c-50 -115 -114 -259 -142 -321 l-50 -113 75 3 75 3 28
65 27 65 151 3 151 3 28 -71 27 -70 74 0 c68 0 74 2 68 19 -3 10 -66 153 -139
317 l-134 299 -73 3 -74 2 -92 -207z m221 -68 l45 -110 -96 -3 c-53 -1 -98 0
-101 2 -2 3 17 57 43 121 27 64 52 112 56 108 4 -4 28 -57 53 -118z"/>
<path d="M12330 4160 l0 -320 250 0 251 0 -3 58 -3 57 -172 3 -173 2 0 75 0
75 145 0 145 0 0 55 0 55 -145 0 -145 0 0 70 0 70 165 0 165 0 0 60 0 60 -240
0 -240 0 0 -320z"/>
<path d="M13120 4160 l0 -320 75 0 75 0 2 191 3 192 155 -189 155 -189 63 -3
62 -3 0 321 0 320 -75 0 -75 0 -2 -191 -3 -192 -155 191 -155 191 -62 1 -63 0
0 -320z"/>
<path d="M14800 4476 c0 -3 54 -95 120 -204 l120 -200 0 -116 0 -116 75 0 75
0 0 116 0 116 120 200 c66 109 120 201 120 204 0 2 -31 4 -69 4 l-69 0 -83
-140 c-46 -77 -86 -140 -89 -140 -3 0 -42 63 -88 140 l-83 140 -74 0 c-41 0
-75 -2 -75 -4z"/>
</g>
</svg>
